<svg xmlns="http://www.w3.org/2000/svg" xml:space="preserve" style="fill-rule:evenodd;clip-rule:evenodd;stroke-linejoin:round;stroke-miterlimit:2" viewBox="0 0 1324 1265"><path d="M-.942-4.678H10.62v2.539H-.942z" style="fill:#ed1c24" transform="matrix(3.84176 1.61307 1.61307 -3.84176 268.79 411.022)"/><path d="m0-1.327 9.103-.572.03-.028-6.837-3.679L3.426-7.7l10.185 5.474L12.406.013 3.31.586l-.014.03 6.809 3.664-1.132 2.093L-1.198.892z" style="fill:#ed1c24;fill-rule:nonzero" transform="translate(275.943 393.04)scale(4.16667)"/><path d="M0 6.383-1.737 5.15 3.71-2.593 5.462-1.36 3.464 1.471l7.708 5.427-1.463 2.078-7.701-5.427z" style="fill:#ed1c24;fill-rule:nonzero" transform="translate(308.079 322.376)scale(4.16667)"/><path d="m0-14.133 1.609 1.413-4.059 4.571 1.855 1.644 3.717-4.194 1.471 1.31L.884-5.192 2.999-3.31l4.142-4.666 1.594 1.413L2.911 0l-8.649-7.673z" style="fill:#ed1c24;fill-rule:nonzero" transform="translate(359.879 328.053)scale(4.16667)"/><path d="M0-11.845a4 4 0 0 1 1.217-.738 3.3 3.3 0 0 1 1.261-.188 3 3 0 0 1 1.174.304c.369.18.711.442.999.768.449.515.738 1.052.856 1.609.101.564.013 1.152-.306 1.774l.015.03c.304-.145.58-.218.848-.218.269 0 .542.05.788.146.261.085.507.231.756.411.231.173.454.369.665.573.131.13.284.283.449.456.173.181.362.354.55.535.196.183.391.326.587.464s.399.234.595.269L8.549-3.963a4.7 4.7 0 0 1-1.072-.819 19 19 0 0 0-1.066-.991c-.462-.399-.891-.6-1.295-.63-.392-.023-.834.181-1.306.602L1.905-4.122 4.897-.738 2.999.948l-7.662-8.657zm2.789 4.52c.442-.384.675-.765.725-1.157.05-.384-.123-.805-.515-1.232-.368-.426-.745-.63-1.129-.63-.392.008-.798.196-1.24.588l-2.078 1.839 2.143 2.44z" style="fill:#ed1c24;fill-rule:nonzero" transform="translate(395.007 285.555)scale(4.16667)"/><path d="m0-6.912 8.346 3.709.03-.022-4.355-6.41 1.978-1.348 6.483 9.57L10.374.013 2.058-3.695l-.028.02 4.346 6.406-1.978 1.34-6.483-9.57z" style="fill:#ed1c24;fill-rule:nonzero" transform="translate(432.855 235.364)scale(4.16667)"/><path d="m0-13.466 9.076 8.353-2.344 1.195-1.948-1.905L.924-3.86l.361 2.703L-1.004 0l-1.32-12.286zm3.343 6.252L.116-10.336l-.036.023.583 4.46z" style="fill:#ed1c24;fill-rule:nonzero" transform="translate(500.071 222.742)scale(4.16667)"/><path d="m0-2.166-.758-1.99 8.845-3.399.768 1.998-3.248 1.24 3.379 8.803-2.38.903-3.368-8.792z" style="fill:#ed1c24;fill-rule:nonzero" transform="translate(526.842 172.699)scale(4.16667)"/><path d="M-5.404-7.196H6.155v2.552H-5.404z" style="fill:#ed1c24" transform="scale(4.16667 -4.16667)rotate(-74.002 49.862 -115.619)"/><path d="M0-2.61a5.8 5.8 0 0 1 .738-2.113 4.9 4.9 0 0 1 1.506-1.601c.637-.45 1.39-.748 2.258-.914q1.32-.263 2.45.007a5.15 5.15 0 0 1 1.988.934 5.9 5.9 0 0 1 1.461 1.689c.392.681.668 1.441.838 2.289A7.1 7.1 0 0 1 11.3.071a5.6 5.6 0 0 1-.738 2.073A5.3 5.3 0 0 1 9.056 3.73c-.638.435-1.391.738-2.279.912-.869.16-1.672.16-2.425-.008a5.2 5.2 0 0 1-1.993-.912 5.7 5.7 0 0 1-1.46-1.658A7 7 0 0 1 .07-.176 7.3 7.3 0 0 1 0-2.61M2.997.701c.205.429.467.805.768 1.116.321.32.697.543 1.129.688.437.138.929.151 1.496.043.562-.1 1.014-.303 1.366-.592.351-.299.612-.645.793-1.052.171-.407.261-.848.286-1.317.03-.472 0-.949-.1-1.429a6 6 0 0 0-.447-1.411 3.8 3.8 0 0 0-.763-1.151A2.8 2.8 0 0 0 6.4-5.095c-.431-.136-.934-.158-1.491-.05-.562.11-1.029.311-1.375.61a2.7 2.7 0 0 0-.783 1.049 4 4 0 0 0-.296 1.348c-.02.492.02.984.115 1.486.095.476.241.926.427 1.353" style="fill:#ed1c24;fill-rule:nonzero" transform="translate(612.996 152.242)scale(4.16667)"/><path d="M0-11.335 5.186-3.81h.03l-.361-7.751 2.374-.108.552 11.541-2.55.12L.07-7.51H.035L.397.226l-2.375.108-.552-11.546z" style="fill:#ed1c24;fill-rule:nonzero" transform="translate(688.276 163.34)scale(4.16667)"/><path d="M0-11.662 3.394.203.763-.001.09-2.636l-4.307-.346-1.099 2.497-2.55-.203 5.261-11.177zm-.416 7.083-1.12-4.345h-.025l-1.842 4.106z" style="fill:#ed1c24;fill-rule:nonzero" transform="translate(766.438 165.696)scale(4.16667)"/><path d="m0-11.94-1.837 9.244L3.7-1.609 3.278.492l-8.012-1.586L-2.5-12.432z" style="fill:#ed1c24;fill-rule:nonzero" transform="translate(813.146 173.37)scale(4.16667)"/><path d="M0-7.911q1.01.401 1.612.964c.391.384.677.788.843 1.225.171.441.241.888.226 1.36a4.7 4.7 0 0 1-.302 1.363c-.17.419-.401.826-.702 1.187a3.3 3.3 0 0 1-1.075.864 3.6 3.6 0 0 1-1.455.323c-.552.015-1.16-.107-1.843-.376l-2.49-.962-1.49 3.853-2.38-.921 4.197-10.77zm-2.621 4.824c.267.1.538.181.804.246.266.05.522.058.763.015.231-.035.446-.146.647-.311.196-.166.367-.422.497-.76.131-.342.186-.638.141-.899a1.35 1.35 0 0 0-.256-.673 2.1 2.1 0 0 0-.583-.487 4.4 4.4 0 0 0-.752-.369l-1.848-.71-1.255 3.225z" style="fill:#ed1c24;fill-rule:nonzero" transform="translate(905.763 183.45)scale(4.16667)"/><path d="M0-11.049-1.506 1.202-3.845-.015l.406-2.696-3.825-1.991-1.998 1.861-2.264-1.173 9.216-8.237zm-3.147 6.352.672-4.432-.03-.015-3.293 3.065z" style="fill:#ed1c24;fill-rule:nonzero" transform="translate(956.863 220.275)scale(4.16667)"/><path d="m0-11.303-5.276 7.809L-.602-.342l-1.2 1.767-6.777-4.571 6.471-9.582z" style="fill:#ed1c24;fill-rule:nonzero" transform="translate(997.313 245.48)scale(4.16667)"/><path d="m0-12.176-3.243 7.751.025.015 7.179-4.262 2.68 2.369-7.655 8.672L-2.796.791 2.63-5.354l-.02-.02-7.549 4.26-1.466-1.298 3.247-7.946-.03-.023-5.376 6.079-1.772-1.579 7.655-8.664z" style="fill:#ed1c24;fill-rule:nonzero" transform="translate(1044.73 284.529)scale(4.16667)"/><path d="M0-11.315c.753-.231 1.486-.326 2.219-.261.738.065 1.43.284 2.113.66a5.75 5.75 0 0 1 1.797 1.637q.805 1.075 1.059 2.196c.171.753.181 1.483.026 2.208a5.8 5.8 0 0 1-.884 2.044 7.3 7.3 0 0 1-1.687 1.759A7.1 7.1 0 0 1 2.52.023 5.8 5.8 0 0 1 .321.261a5.06 5.06 0 0 1-2.073-.666c-.673-.384-1.275-.921-1.812-1.646-.527-.708-.874-1.433-1.059-2.186a5.3 5.3 0 0 1-.051-2.196 5.7 5.7 0 0 1 .859-2.036 6.9 6.9 0 0 1 1.656-1.717A7.5 7.5 0 0 1 0-11.315m-1.672 4.151a4 4 0 0 0-.673 1.172c-.145.415-.18.856-.12 1.306.06.457.261.913.612 1.368.332.456.719.783 1.13.971.412.181.838.269 1.29.253a3.8 3.8 0 0 0 1.315-.311 6 6 0 0 0 1.235-.71 6.7 6.7 0 0 0 1.084-1.021q.461-.554.688-1.196c.156-.413.196-.855.131-1.302-.05-.457-.262-.914-.603-1.371-.346-.456-.723-.782-1.144-.971a2.73 2.73 0 0 0-1.285-.246 3.9 3.9 0 0 0-1.351.327 6.6 6.6 0 0 0-1.275.745 5.6 5.6 0 0 0-1.034.986" style="fill:#ed1c24;fill-rule:nonzero" transform="translate(1098.213 354.976)scale(4.16667)"/><path d="M-11.397-3.143H.172v2.538h-11.569z" style="fill:#ed1c24" transform="scale(-4.16667 4.16667)rotate(30.907 -302.822 -436.804)"/><path d="m0-7.839-8.473 4.124 2.47 5.07-1.923.934-3.579-7.352 10.391-5.065z" style="fill:#ed1c24;fill-rule:nonzero" transform="translate(1169.263 424.971)scale(4.16667)"/><path d="M0 3.192c.201-.211.346-.447.469-.718a2.6 2.6 0 0 0 .196-.853 2.6 2.6 0 0 0-.1-.914 2.97 2.97 0 0 0-.71-1.31 2.76 2.76 0 0 0-1.13-.683 4 4 0 0 0-1.378-.18c-.477.03-.971.11-1.456.245a5.9 5.9 0 0 0-1.31.553 3.8 3.8 0 0 0-1.044.863 2.7 2.7 0 0 0-.58 1.18c-.1.441-.08.939.073 1.491.218.748.61 1.27 1.187 1.556.58.286 1.248.376 2.031.256l.672 2.36a5.9 5.9 0 0 1-2.02.06 4.8 4.8 0 0 1-1.724-.618 4.55 4.55 0 0 1-1.333-1.24 5.8 5.8 0 0 1-.848-1.792c-.247-.848-.312-1.661-.212-2.42a5.1 5.1 0 0 1 .733-2.073A5.7 5.7 0 0 1-6.97-2.641 7 7 0 0 1-4.811-3.66c.833-.241 1.636-.341 2.419-.291s1.506.226 2.174.542c.66.311 1.232.778 1.739 1.366.492.592.853 1.309 1.1 2.163.175.617.245 1.22.233 1.812a5 5 0 0 1-.349 1.687c-.216.532-.53.998-.949 1.426-.411.421-.948.762-1.556 1.013l-.683-2.364A2 2 0 0 0 0 3.192" style="fill:#ed1c24;fill-rule:nonzero" transform="translate(290.94 820.63)scale(4.16667)"/><path d="M0-11.606a5.8 5.8 0 0 1 2.224.231q1.053.33 1.912 1.104c.58.518 1.044 1.18 1.406 1.983.361.824.55 1.621.55 2.385 0 .768-.151 1.49-.45 2.148a5.8 5.8 0 0 1-1.317 1.818C3.76-1.4 3.08-.959 2.289-.602A7 7 0 0 1-.02.005a5.8 5.8 0 0 1-2.189-.236 5.35 5.35 0 0 1-1.89-1.119c-.56-.512-1.029-1.17-1.398-1.998-.364-.798-.552-1.591-.552-2.359a4.94 4.94 0 0 1 .429-2.159 5.6 5.6 0 0 1 1.28-1.797 6.7 6.7 0 0 1 1.993-1.311c.791-.351 1.571-.567 2.347-.632m-2.542 3.679a4.3 4.3 0 0 0-.912 1.01 2.7 2.7 0 0 0-.399 1.245c-.042.457.066.943.281 1.46.249.522.538.924.914 1.2a2.8 2.8 0 0 0 1.195.517Q-.8-2.372-.116-2.5a5.8 5.8 0 0 0 1.371-.426 6.4 6.4 0 0 0 1.273-.754 4.1 4.1 0 0 0 .943-1.014c.239-.376.377-.797.419-1.249.031-.462-.065-.949-.304-1.466-.233-.518-.529-.924-.89-1.2a2.74 2.74 0 0 0-1.21-.517 4.1 4.1 0 0 0-1.375.02 6.6 6.6 0 0 0-1.421.446c-.45.196-.856.443-1.232.733" style="fill:#ed1c24;fill-rule:nonzero" transform="translate(298.45 909.334)scale(4.16667)"/><path d="m0-10.206-3.941 8.248.015.025L2.608-6.11l1.29 2.003-9.736 6.23-1.376-2.148 3.926-8.213-.015-.031-6.519 4.177-1.275-2.003 9.736-6.234z" style="fill:#ed1c24;fill-rule:nonzero" transform="translate(342.907 960.98)scale(4.16667)"/><path d="M0 8.412a4.3 4.3 0 0 1-1.376-1.014c-.587-.658-1.001-1.36-1.232-2.088q-.368-1.092-.246-2.184a5.4 5.4 0 0 1 .681-2.093A6.8 6.8 0 0 1-.675-.825a7.2 7.2 0 0 1 2.051-1.31 6 6 0 0 1 2.188-.451 5.2 5.2 0 0 1 2.159.472c.71.321 1.348.813 1.94 1.47.392.452.71.934.941 1.471a4.7 4.7 0 0 1 .422 1.651 4.6 4.6 0 0 1-.218 1.672 4.3 4.3 0 0 1-.957 1.566L6.245 3.894c.376-.532.55-1.074.499-1.616-.037-.547-.268-1.045-.675-1.501C5.692.35 5.274.069 4.847-.087a2.7 2.7 0 0 0-1.313-.135c-.442.065-.868.21-1.303.442a6 6 0 0 0-1.217.853 5.8 5.8 0 0 0-.941 1.064 3.7 3.7 0 0 0-.565 1.225 2.7 2.7 0 0 0-.015 1.32q.15.67.723 1.31c.552.633 1.145.969 1.769 1.03.63.06 1.261-.146 1.913-.633L2.201 4.477l1.421-1.26 3.223 3.629-4.664 4.152-1.079-1.21.811-1.064C1.172 8.784.535 8.668 0 8.412" style="fill:#ed1c24;fill-rule:nonzero" transform="translate(352.329 975.122)scale(4.16667)"/><path d="M0-7.409q.6.49.929 1.079c.216.392.354.799.399 1.205q.075.626-.111 1.215a3.3 3.3 0 0 1-.592 1.114c-.429.523-.913.899-1.443 1.095q-.804.317-1.802 0l-.015.03c.18.266.303.537.346.798.053.261.045.532 0 .803a3 3 0 0 1-.288.803c-.139.267-.297.512-.45.753q-.173.227-.391.527-.216.295-.435.628a6 6 0 0 0-.361.648 1.8 1.8 0 0 0-.168.632l-1.97-1.601c.122-.377.326-.768.625-1.19.296-.402.557-.808.803-1.215.311-.527.449-.984.406-1.385-.045-.392-.306-.788-.813-1.185l-1.97-1.601-2.839 3.504-1.986-1.592 7.289-8.986zM-3.99-3.91c.456.372.87.537 1.259.517.392-.01.768-.256 1.14-.703.346-.436.492-.843.419-1.224-.065-.377-.319-.754-.776-1.125l-2.166-1.747-2.043 2.53z" style="fill:#ed1c24;fill-rule:nonzero" transform="translate(428.988 1046.834)scale(4.16667)"/><path d="m0-5.663-1.09 1.838-5.255-3.088-1.263 2.139 4.842 2.831-.999 1.707-4.842-2.837-1.433 2.45 5.381 3.153-1.079 1.847-7.578-4.448 5.854-9.969z" style="fill:#ed1c24;fill-rule:nonzero" transform="translate(484.292 1075.518)scale(4.16667)"/><path d="M0 3.625q.023.453.256.823c.151.246.352.467.613.658.261.195.547.366.843.487.216.085.447.16.703.231.251.06.497.09.753.075q.378-.016.703-.191c.21-.115.361-.311.476-.577.116-.286.131-.567.016-.818-.101-.256-.282-.502-.538-.748a8 8 0 0 0-.873-.738 21 21 0 0 1-1.029-.783 11 11 0 0 1-1.014-.849A3.9 3.9 0 0 1 .126.211 2.8 2.8 0 0 1-.236-.954c-.05-.421.036-.873.236-1.355.231-.552.553-.989.944-1.285a3.3 3.3 0 0 1 1.346-.627 4.5 4.5 0 0 1 1.535-.066 6.4 6.4 0 0 1 1.516.412 7.6 7.6 0 0 1 1.527.848 4.4 4.4 0 0 1 1.114 1.18c.276.442.452.934.502 1.466s-.05 1.104-.311 1.722L5.913.397c.101-.321.151-.623.131-.883a1.5 1.5 0 0 0-.261-.678 2 2 0 0 0-.537-.522 4.6 4.6 0 0 0-.768-.412 3 3 0 0 0-.592-.176 1.8 1.8 0 0 0-.613-.009c-.201.04-.376.105-.532.22-.161.101-.291.266-.391.508-.081.2-.116.381-.091.546.025.171.131.352.321.563.191.205.472.447.834.728.371.291.848.652 1.455 1.094.176.125.422.311.739.567.305.251.587.562.833.939.261.371.427.813.527 1.3.09.482.015 1.034-.231 1.627a3.6 3.6 0 0 1-.853 1.239 3.16 3.16 0 0 1-1.296.734 4.4 4.4 0 0 1-1.691.13Q1.962 7.814.869 7.37a7 7 0 0 1-1.612-.939 4.5 4.5 0 0 1-1.185-1.295 3.64 3.64 0 0 1-.521-1.601c-.04-.578.075-1.195.356-1.848l2.274.944q-.226.542-.181.994" style="fill:#ed1c24;fill-rule:nonzero" transform="translate(491.525 1080.072)scale(4.16667)"/><path d="M0 4.402c.06.296.18.567.361.783.176.226.407.421.683.587.276.161.582.282.899.382.225.05.461.1.722.13q.393.054.764-.005c.245-.045.471-.13.657-.276.206-.135.341-.346.422-.633.085-.3.055-.577-.081-.817a2.4 2.4 0 0 0-.632-.673 6 6 0 0 0-.969-.623c-.361-.211-.738-.426-1.099-.652a12 12 0 0 1-1.12-.733A4 4 0 0 1-.286.988 2.9 2.9 0 0 1-.783-.116c-.091-.406-.071-.874.075-1.386q.242-.85.783-1.385a3.4 3.4 0 0 1 1.26-.773 4 4 0 0 1 1.506-.246c.552 0 1.059.08 1.566.216.578.16 1.115.391 1.622.657a4.7 4.7 0 0 1 1.245 1.039c.331.412.552.869.667 1.396.121.522.086 1.105-.09 1.742L5.477.481c.075-.336.08-.627.029-.883a1.5 1.5 0 0 0-.331-.643 1.85 1.85 0 0 0-.612-.461 4 4 0 0 0-.808-.312 2.8 2.8 0 0 0-.608-.105 1.8 1.8 0 0 0-.597.06 1.7 1.7 0 0 0-.507.281q-.226.19-.331.552c-.061.216-.066.407-.016.563.046.16.176.326.377.506.216.191.522.402.928.633.392.231.914.542 1.562.914.191.1.467.261.798.471.341.207.653.483.959.829.286.341.517.758.663 1.225.16.471.145 1.024-.025 1.651a3.5 3.5 0 0 1-.699 1.325 3.06 3.06 0 0 1-1.199.884c-.472.211-1.029.321-1.662.336-.622.016-1.31-.085-2.078-.296a7.7 7.7 0 0 1-1.712-.728 4.8 4.8 0 0 1-1.33-1.144 3.7 3.7 0 0 1-.713-1.526c-.115-.572-.07-1.205.131-1.883l2.364.663c-.101.381-.116.718-.06 1.009" style="fill:#ed1c24;fill-rule:nonzero" transform="translate(543.988 1096.205)scale(4.16667)"/><path d="M0-11.661 2.942.311.332.01l-.573-2.66-4.292-.502-1.205 2.45-2.534-.297 5.677-10.973zm-.683 7.048-.948-4.382h-.036l-1.982 4.036z" style="fill:#ed1c24;fill-rule:nonzero" transform="translate(647.521 1146.838)scale(4.16667)"/><path d="m0 11.3 2.374.065.216-7.741h.03l4.594 7.872 2.544.065.327-11.556-2.394-.06-.207 7.751h-.04L2.841-.186.316-.261z" style="fill:#ed1c24;fill-rule:nonzero" transform="translate(676.68 1102.076)scale(4.16667)"/><path d="M0-11.721c.753-.025 1.446.06 2.098.276a4.6 4.6 0 0 1 1.712.999c.492.457.884 1.029 1.17 1.742.291.692.467 1.526.497 2.485.025.838-.045 1.621-.236 2.339a5 5 0 0 1-.904 1.883A4.5 4.5 0 0 1 2.751-.708c-.637.327-1.406.497-2.289.537l-4.985.196-.456-11.55zm.201 9.427A3.3 3.3 0 0 0 1.26-2.52c.346-.13.653-.341.898-.622.262-.291.463-.658.608-1.11.146-.441.201-.989.181-1.621a6.1 6.1 0 0 0-.241-1.571 3.15 3.15 0 0 0-.608-1.19c-.265-.316-.622-.557-1.059-.723q-.645-.238-1.576-.206l-1.817.075.296 7.28z" style="fill:#ed1c24;fill-rule:nonzero" transform="translate(757.392 1149.638)scale(4.16667)"/><path d="m0-13.519.598 2.058-5.854 1.697.688 2.374L.809-8.946l.547 1.898-5.382 1.566.798 2.716 5.984-1.737.603 2.048L-5.07 0l-3.228-11.104z" style="fill:#ed1c24;fill-rule:nonzero" transform="translate(854.384 1135.46)scale(4.16667)"/><path d="m0-7.088 2.746-1.079 3.458 2.61.829-4.297 2.595-1.019-1.431 6.496 5.964 4.136L11.35.873 7.525-1.928l-.929 4.664-2.65 1.049 1.536-7.113z" style="fill:#ed1c24;fill-rule:nonzero" transform="translate(866.2 1104.776)scale(4.16667)"/><path d="m0-8.077 2.043 3.925L6.204-6.31l-2.058-3.931L6.4-11.425l5.351 10.25L9.493 0l-2.3-4.418-4.151 2.159 2.304 4.422-2.244 1.185-5.351-10.25z" style="fill:#ed1c24;fill-rule:nonzero" transform="translate(928.155 1082.522)scale(4.16667)"/><path d="M-3.71-6.817H7.85v2.546H-3.71z" style="fill:#ed1c24" transform="scale(4.16667 -4.16667)rotate(-57.104 -105.377 -343.725)"/><path d="M0-11.224a6.8 6.8 0 0 1 1.275-.824q.618-.313 1.205-.356c.391-.03.783.05 1.144.216.362.186.723.472 1.055.899.361.456.567.923.597 1.385.035.472-.065.964-.321 1.476.682-.271 1.32-.331 1.913-.151q.902.272 1.57 1.125c.372.456.603.919.684 1.39a3 3 0 0 1-.066 1.391c-.13.447-.346.883-.652 1.28a5.5 5.5 0 0 1-1.059 1.104L2.972 1.21l-7.218-9.036zm2.676 3.855c.351-.281.587-.592.672-.949.086-.346-.014-.718-.321-1.094-.17-.211-.336-.356-.532-.422a1 1 0 0 0-.552-.08c-.191.025-.377.08-.567.191-.186.1-.367.226-.547.361l-1.858 1.486L.658-5.762zm3.172 3.745a3.4 3.4 0 0 0 .512-.497 1.9 1.9 0 0 0 .312-.568 1.2 1.2 0 0 0 .035-.622c-.04-.215-.156-.436-.347-.672-.361-.467-.768-.698-1.179-.683-.427.005-.838.186-1.275.537L1.737-4.407l1.988 2.485z" style="fill:#ed1c24;fill-rule:nonzero" transform="translate(1010.922 1042.718)scale(4.16667)"/><path d="M-2.604-6.261H8.953v2.539H-2.604z" style="fill:#ed1c24" transform="matrix(2.93834 2.9542 2.9542 -2.93834 1061.776 963.405)"/><path d="M0 5.491-1.667 4.15l5.954-7.373 1.667 1.34L3.78.817l7.324 5.919-1.601 1.978-7.325-5.929z" style="fill:#ed1c24;fill-rule:nonzero" transform="translate(1059.697 939.855)scale(4.16667)"/><path d="M-1.588-5.444h11.56v2.534h-11.56z" style="fill:#ed1c24" transform="scale(4.16667 -4.16667)rotate(-32.531 -237.607 -561.41)"/><path d="M0 7.575a5.8 5.8 0 0 1-1.285-1.827 5.1 5.1 0 0 1-.412-2.174c.015-.768.216-1.556.583-2.354Q-.534-.006.331-.758a5 5 0 0 1 1.933-1.059 5.8 5.8 0 0 1 2.224-.196c.783.08 1.561.307 2.334.668A7 7 0 0 1 8.8.01a5.65 5.65 0 0 1 1.245 1.818c.286.667.416 1.385.401 2.153-.025.758-.22 1.551-.612 2.369q-.543 1.188-1.426 1.963a5.1 5.1 0 0 1-1.902 1.079 5.7 5.7 0 0 1-2.204.201c-.763-.065-1.531-.291-2.289-.642C1.225 8.579.547 8.132 0 7.575m4.447-.482c.457.091.914.101 1.346.04.437-.075.843-.25 1.22-.512.361-.266.672-.658.908-1.179.241-.523.352-1.004.322-1.456a2.8 2.8 0 0 0-.392-1.26 3.6 3.6 0 0 0-.883-1.004A5.4 5.4 0 0 0 5.753.969 6 6 0 0 0 4.347.487a3.9 3.9 0 0 0-1.38-.05 2.84 2.84 0 0 0-1.22.507c-.371.271-.678.652-.924 1.174-.231.523-.346 1.01-.311 1.461q.039.686.387 1.265c.235.382.546.723.923 1.024.392.302.808.563 1.265.779q.662.317 1.36.446" style="fill:#ed1c24;fill-rule:nonzero" transform="translate(1112.343 866.517)scale(4.16667)"/><path d="m0 1.376 8.78-2.52.015-.03L1.32-3.287l.653-2.3 11.124 3.163-.693 2.439-8.749 2.516-.016.034 7.445 2.109-.653 2.289L-.693 3.805z" style="fill:#ed1c24;fill-rule:nonzero" transform="translate(1126.338 821.255)scale(4.16667)"/><path d="M0-43.696a104.3 104.3 0 0 0-12.073-29.931c-2.344-7.861-11.375-18.235-24.557-27.933a105 105 0 0 0-9.599-6.772 103 103 0 0 0-15.154-7.781c-10.136-4.578-19.568-7.121-26.47-7.04-39.03-4.985-79.28 12.509-101.423 48.025-14.67 23.536-19.291 51.381-13.019 78.393a103.5 103.5 0 0 0 16.488 36.661c1.767 2.755 4.102 5.662 6.925 8.629 2.523 2.841 5.143 5.602 7.977 8.157 3.991 4.382 8.481 8.253 13.551 11.415a64.2 64.2 0 0 0 13.81 6.441 101.7 101.7 0 0 0 16.094 5.703c3.774 1.119 7.273 1.852 10.391 2.158 12.941 2.013 26.269 1.571 39.406-1.486 27.012-6.274 49.968-22.695 64.641-46.238C1.661 11.171 6.28-16.674 0-43.696M-12.575-65.68c.753-1.188 1.074-2.593 1.08-4.137A102.4 102.4 0 0 1-1.361-43.384C1.812-29.731 2.153-15.871-.201-2.477c-1.235-5.04-7.013-12.43-16.084-21.064 2.259-13.519 2.013-26.761-.652-38.867 1.922-.695 3.429-1.767 4.362-3.272M-117.752 80.873a98 98 0 0 1-7.425-1.501 79 79 0 0 1-6.646-2.108c8.88 1.224 18.268.773 27.946-1.471.085-.02.16-.05.246-.07-.135.703-.356 1.36-.708 1.932-1.928 3.087-6.827 4.042-13.413 3.218m13.554-6.44c-12.053 2.795-23.659 2.816-34.351.135a113 113 0 0 1-7.46-3.594c10.316 1.446 22.821-2.535 35.802-10.813 3.388 4.207 5.662 8.207 6.461 11.626.2.884.276 1.687.276 2.455-.247.065-.482.14-.728.191m-76.908-30.577a67 67 0 0 1-1.071-1.37 54 54 0 0 1-1.499-2.039c-2.984-4.251-4.688-8.126-4.688-11.194 0-1.275.298-2.419.905-3.408.066-.106.174-.181.247-.282 2.085 8.078 5.215 15.392 9.301 21.872a86 86 0 0 1-3.026-3.378c-.046-.07-.111-.136-.169-.201M-33.814-88.107c-.949-4.086-2.35-7.643-4.142-10.715 9.634 9.314 16.14 21.588 19.397 35.453-3.549.868-8.533.527-14.372-.886.964-8.83.723-16.934-.883-23.852m15.552 26.098c2.545 11.637 2.831 24.342.777 37.328-5.637-5.271-12.449-10.983-20.154-16.877 2.173-7.353 3.729-14.489 4.563-21.219 5.969 1.421 11.064 1.71 14.814.768m-20.557 19.543c-6.993-5.301-14.678-10.748-22.876-16.167 2.279-4.513 4.373-8.822 6.235-12.878 7.52 3.925 14.709 6.756 21.024 8.401-.799 6.543-2.289 13.491-4.383 20.644M-136.3 36.336a148 148 0 0 0-9.288-5.311 402 402 0 0 1 6.23-12.855 557 557 0 0 0 10.562 6.776 430 430 0 0 0 9.769 5.919 368 368 0 0 1-8.77 11.224 146 146 0 0 0-8.503-5.753m7.625 6.843c-13.379 16.294-23.087 24.587-26.234 22.624-3.153-1.963.005-14.311 8.724-33.488a137 137 0 0 1 9.146 5.206 140 140 0 0 1 8.364 5.658m20.521-51.359a467 467 0 0 0-12.429-7.475 769 769 0 0 1 6.997-11.49l23.9 14.904a701 701 0 0 1-7.208 11.3 477 477 0 0 0-11.26-7.239M-97.647.223c-7.239 11.084-14.156 20.978-20.547 29.527a516 516 0 0 1-9.869-5.984 464 464 0 0 1-10.657-6.847c4.854-9.467 10.677-20.029 17.429-31.369 4.086 2.38 8.237 4.849 12.399 7.45A458 458 0 0 1-97.647.223m-15.206-28.548a695 695 0 0 1 7.615-11.907c3.941 2.63 8.002 5.25 12.169 7.846a463 463 0 0 0 11.445 6.908 636 636 0 0 1-7.319 12.047zm20.522-5.246a503 503 0 0 1-12.153-7.821c7.053-10.75 14.02-20.712 20.556-29.431a495 495 0 0 1 10.763 6.495 469 469 0 0 1 9.648 6.175c-4.96 9.718-10.833 20.391-17.399 31.49a545 545 0 0 1-11.415-6.908m-13.313-8.599c-9.477-6.35-18.232-12.703-25.918-18.782 6.792-9.026 14.066-17.153 21.51-24.093 7.912 3.933 16.285 8.469 24.899 13.496-6.495 8.692-13.428 18.609-20.491 29.379m-.763 1.16a743 743 0 0 0-7.625 11.947l-27.65-17.228a209 209 0 0 1 9.307-13.566c7.706 6.114 16.486 12.487 25.968 18.847m-8.363 13.127a681 681 0 0 0-7.008 11.535c-9.924-5.737-19.537-10.818-28.448-15.054a213 213 0 0 1 7.801-13.705zm-7.711 12.72c-6.33 10.708-12.248 21.395-17.344 31.355-8.398-5.582-16.239-11.16-23.307-16.576 2.977-9.618 7.083-19.668 12.284-29.808 8.865 4.237 18.458 9.301 28.367 15.029m-17.981 32.6a383 383 0 0 0-6.3 12.986c-7.691-3.926-14.995-6.706-21.355-8.207.841-6.677 2.362-13.8 4.571-21.205 7.02 5.387 14.786 10.919 23.084 16.426m22.58 14.105c8.353 4.895 16.771 9.478 24.858 13.534-5.622 5.196-11.29 9.658-16.867 13.318-4.257-5.096-10.024-10.442-16.836-15.526 2.856-3.514 5.817-7.3 8.845-11.326m.833-1.119c6.716-8.981 13.724-19.02 20.546-29.447 9.779 6.501 18.499 12.821 26.048 18.78-6.852 9.211-14.14 17.399-21.515 24.346-7.79-3.9-16.209-8.453-25.079-13.679M-95.735-.168a721 721 0 0 0 7.234-11.34l27.655 17.223a216 216 0 0 1-8.795 12.946c-7.957-6.245-16.842-12.65-26.094-18.829m7.977-12.525a696 696 0 0 0 7.349-12.083c9.593 5.567 19.227 10.708 28.328 15.09a209 209 0 0 1-8.042 14.221zm8.047-13.268c6.576-11.114 12.439-21.731 17.379-31.419 8.298 5.484 16.058 10.983 23.102 16.33-2.967 9.809-7.088 19.999-12.244 30.154-8.649-4.152-18.142-9.186-28.237-15.065m16.821-33.447a530 530 0 0 0-9.532-6.107A506 506 0 0 0-83.09-71.94a364 364 0 0 1 8.871-11.315 137 137 0 0 0 9.302 6.345 149 149 0 0 0 8.212 4.739 372 372 0 0 1-6.185 12.763m-21.414-13.255c-8.514-4.97-16.812-9.47-24.658-13.373 5.708-5.223 11.491-9.759 17.213-13.431 4.112 5.02 9.749 10.316 16.4 15.366a353 353 0 0 0-8.955 11.438m-25.993-14.026c-9.518-4.693-18.313-8.496-25.974-11.242 11.054-7.911 23.107-13.584 35.567-16.473.521-.123 1.059-.218 1.576-.334 0 .864.075 1.755.301 2.711.788 3.396 2.967 7.324 6.204 11.458-5.878 3.797-11.821 8.483-17.674 13.88m-1.085.991c-7.359 6.898-14.552 14.967-21.269 23.878-9.031-7.209-16.531-13.988-21.947-19.884 5.286-5.723 10.994-10.838 17.022-15.286 7.651 2.703 16.551 6.541 26.194 11.292m-44.16 2.965c-4.694-5.259-7.635-9.759-8.423-13.12-.326-1.448-.226-2.635.326-3.514.535-.876 1.556-1.491 2.997-1.832 4.302-.991 11.832.399 21.455 3.667-5.778 4.329-11.255 9.299-16.355 14.799m.03 1.993c5.492 5.968 13.012 12.786 22.043 20.007a216 216 0 0 0-9.398 13.704l-25.975-16.182c4.028-6.303 8.476-12.186 13.33-17.529m11.908 34.891a212 212 0 0 0-7.882 13.86c-10.597-4.985-20.137-8.761-27.953-11.039a132 132 0 0 1 9.744-18.88c.027-.043.057-.086.085-.143zm-8.504 15.074c-5.131 10.02-9.207 19.974-12.168 29.512-8.811-6.812-16.373-13.317-22.226-19.151 1.478-7.163 3.664-14.326 6.534-21.374 7.737 2.243 17.24 6.008 27.86 11.013m-35.554 9.197c-6.794-6.918-11.061-12.786-12.025-16.938-.331-1.455-.231-2.63.319-3.513.545-.879 1.551-1.491 2.999-1.833 3.288-.763 8.492-.1 15.048 1.702a123 123 0 0 0-6.341 20.582m.841 2.716c5.911 5.828 13.423 12.283 22.13 19-2.289 7.59-3.847 14.894-4.693 21.766-7.563-1.626-13.584-1.33-17.088 1.059-3.049-13.287-3.102-27.534-.349-41.825m14.437 71.669c-6.352-7.886-11.003-17.45-13.727-28.408 3.058-2.43 9.011-2.66 16.546-.999-1.674 15.145.246 27.996 6.004 36.57a117 117 0 0 1-8.823-7.163m13.047 10.165c-7.984-7.977-10.823-22.082-8.925-39.271 6.229 1.501 13.428 4.247 20.908 8.027-6.983 15.341-10.914 27.419-9.754 32.73-.753-.492-1.506-.989-2.229-1.486m6.606 4.207c5.281-1.3 14.402-10.16 25.12-23.232 6.696 4.984 12.374 10.225 16.556 15.185-14.774 9.412-28.825 13.092-39.577 9.307-.693-.402-1.406-.838-2.099-1.26m50.345 4.282c-.823-3.555-3.173-7.701-6.671-12.053 5.742-3.77 11.56-8.338 17.318-13.684 8.875 4.412 17.329 8.162 24.854 10.983-10.898 8.113-22.836 13.981-35.195 17.174-.03-.769-.1-1.567-.306-2.42m11.716-26.716c7.32-6.918 14.508-15.03 21.3-24.136 8.709 6.927 15.808 13.323 21.114 18.885-5.337 6.049-11.129 11.48-17.259 16.199-7.299-2.655-15.762-6.305-25.155-10.948m22.113-25.215a215 215 0 0 0 8.89-13.082l24.578 15.325q-.046.07-.086.161a133 133 0 0 1-12.143 16.46c-5.572-5.797-12.871-12.238-21.239-18.864m9.618-14.257a211 211 0 0 0 8.102-14.366c9.513 4.527 18.383 8.217 25.988 10.677a131 131 0 0 1-9.522 18.99zm8.725-15.577c5.1-10.039 9.187-20.12 12.153-29.848 7.811 5.984 14.678 11.747 20.291 17.038-1.341 7.755-3.514 15.597-6.531 23.352-7.269-2.324-16.024-5.843-25.913-10.542m33.638-11.661C-8.042-13.772-2.63-6.78-1.526-2.041c.337 1.446.231 2.626-.311 3.504C-3.76 4.54-11.335 4.214-22.976.65c2.917-7.51 5.055-15.095 6.4-22.615m-20.742-78.355a101.5 101.5 0 0 1 24.035 27.38c.281 1.057.462 2.066.462 2.985 0 1.34-.306 2.527-.934 3.542-.737 1.189-1.962 2.02-3.494 2.607-3.453-14.638-10.471-27.541-20.912-37.139.291.21.567.414.843.625m-8.037-4.639c.863.602 1.687 1.24 2.5 1.878 3.609 3.767 6.195 8.872 7.686 15.29 1.566 6.732 1.797 14.606.883 23.182-6.22-1.636-13.293-4.413-20.592-8.2 7.038-15.554 10.633-27.173 9.523-32.15m-2.309-1.345c.446.281.768.818.939 1.601 1.089 4.633-2.495 16.016-9.402 31.249a138 138 0 0 1-8.053-4.644 133 133 0 0 1-9.156-6.237c10.587-12.843 19.196-21.035 23.825-22.115.783-.181 1.405-.13 1.847.146m-2.128-1.501h-.046c-4.919 1.144-13.754 9.467-24.627 22.625-6.536-4.95-12.083-10.121-16.114-15.018 7.143-4.455 14.171-7.635 20.777-9.163 6.923-1.602 13.037-1.399 18.278.565.587.318 1.149.66 1.732.991m-20.321-2.912c-6.787 1.579-13.996 4.847-21.334 9.433-3.153-4.006-5.267-7.796-6.024-11.054a10.2 10.2 0 0 1-.262-2.689c14.383-2.803 28.067-1.651 40.23 3.384-3.865-.429-8.077-.13-12.61.926m-17.916-11.054a101.7 101.7 0 0 1 26.309 7.018c.206.096.417.191.623.291-11.21-3.759-23.554-4.477-36.45-2.028.161-.617.357-1.21.683-1.716.939-1.521 2.635-2.573 4.995-3.13 1.159-.269 2.444-.407 3.84-.435m-5.346-.552c-2.114.711-3.71 1.828-4.679 3.384-.507.826-.818 1.754-.984 2.76-.653.139-1.32.262-1.988.42-12.921 2.999-25.416 8.948-36.826 17.256-10.386-3.594-18.488-5.115-23.101-4.049-.884.208-1.637.507-2.267.896 20.007-15.217 44.986-22.514 69.845-20.667m-70.121 20.863c-.55.384-.999.826-1.325 1.355-.761 1.203-.921 2.739-.492 4.571.818 3.529 3.933 8.258 8.858 13.757-4.925 5.447-9.473 11.423-13.567 17.828l-17.682-11.019a101.8 101.8 0 0 1 24.208-26.492M-200.939 2.949c-6.137-26.42-1.687-53.643 12.497-76.737l17.66 11.004c-.045.05-.073.103-.103.145a134 134 0 0 0-9.91 19.234c-6.925-1.907-12.416-2.615-15.878-1.812-1.824.427-3.129 1.255-3.882 2.45-.477.773-.711 1.672-.711 2.705 0 .583.066 1.2.219 1.848 1.029 4.447 5.677 10.772 13.039 18.177-2.985 14.859-2.985 29.723.231 43.538.03.15.073.285.115.431-.361.372-.71.748-.983 1.185-1.132 1.807-1.333 4.066-.799 6.626a102.3 102.3 0 0 1-11.495-28.794m122.965 76.639c-10.14 2.364-20.396 3.092-30.496 2.374 2.374-.662 4.216-1.832 5.301-3.569.567-.914.913-1.933 1.049-3.072 12.956-3.273 25.466-9.442 36.811-18.041 11.471 4.161 20.622 6.023 25.582 4.538-11.225 8.413-24.166 14.502-38.247 17.77m40.405-20.787c-2.199 3.518-11.782 2.59-26.415-2.561a123 123 0 0 0 16.681-15.732c8.113 8.715 11.636 15.251 9.734 18.293m1.416.216c1.892-4.092-2.209-11.115-10.201-19.603 4.468-5.181 8.629-10.758 12.364-16.747h-.005c.036-.05.065-.1.096-.161l19.326 12.038c-5.943 9.397-13.227 17.61-21.58 24.473m2.962-37.705A132 132 0 0 0-23.513 2C-12.59 5.399-4.493 6.142-1.345 3.034c-2.465 10.582-6.652 20.808-12.5 30.331z" style="fill:#cce299;fill-rule:nonzero" transform="translate(1137.45 711.35)scale(4.16667)"/><path d="M0 10.303S-19.141-1.245-35.571-2.498c-10.025-.775-50.837 7.267-55.841 9.952-5.005 2.673 36.881-6.134 56.208 0 3.825 1.225 28.979 6.122 30.771 6.122C.693 13.576 0 10.303 0 10.303" style="fill:#006a44;fill-rule:nonzero" transform="translate(867.317 278.761)scale(4.16667)"/><path d="M0 8.138S-12.535.089-23.267-1.824c-6.902-1.23-49.446-.404-70.528 6.122-3.491 1.094 34.726-2.681 50.84.783 10.732 2.289 38.292 6.111 40.45 5.354C-.346 9.651 0 8.138 0 8.138" style="fill:#006a44;fill-rule:nonzero" transform="translate(826.509 336.528)scale(4.16667)"/><path d="M0-14.337s-14.287-6.398-25.23-5.999c-7.043.254-48.212 11.699-67.016 24.586C-95.383 6.398-59.17-7.455-42.604-7.362c11.064.066 38.879-2.208 40.771-3.641C.055-12.439 0-14.337 0-14.337" style="fill:#006a44;fill-rule:nonzero" transform="translate(766.146 490.746)scale(4.16667)"/><path d="M0-42.415s-21.234-3.773-31.489.161C-50.57-34.935-71.666-20.608-91.616.997c-2.57 2.776 35.434-17.986 51.899-25.265 10.13-4.478 37.041-13.047 38.562-14.849C.377-40.899 0-42.415 0-42.415" style="fill:#006a44;fill-rule:nonzero" transform="translate(723.496 677.276)scale(4.16667)"/><path d="M0-101.909s11.752 10.085 16.621 20.682c3.138 6.822 13.694 52.177 12.55 77.081C28.99 0 22.645-41.971 14.739-57.648 9.462-68.1-1.928-95.774-1.701-98.337c.21-2.578 1.701-3.572 1.701-3.572" style="fill:#006a44;fill-rule:nonzero" transform="translate(741.988 900.634)scale(4.16667)"/><path d="M0-98.829s11.054 8.016 16.024 18.631c3.187 6.815 14.156 52.184 13.227 77.083-.161 4.152-6.867-37.819-14.909-53.507C8.965-67.073-2.646-94.715-2.45-97.303-2.259-99.866 0-98.829 0-98.829" style="fill:#006a44;fill-rule:nonzero" transform="translate(867.317 762.092)scale(4.16667)"/><path d="M0-104.678s8.564 11.453 11.169 22.986C12.836-74.275 13.9-27.457 7.72-3.406 6.702.6 9.056-41.899 4.528-59.128c-3.012-11.475-8.484-41.225-7.746-43.688.743-2.462 3.218-1.862 3.218-1.862" style="fill:#006a44;fill-rule:nonzero" transform="translate(965.772 711.267)scale(4.16667)"/><path d="M0-105.122s10.517 11.583 14.181 22.768c2.36 7.2 7.836 53.68 3.971 78.263C17.499 0 15.833-42.539 9.719-59.18 5.632-70.269-2.61-99.289-2.103-101.819c.492-2.528 2.103-3.303 2.103-3.303" style="fill:#006a44;fill-rule:nonzero" transform="translate(818.73 832.405)scale(4.16667)"/><path d="M0-94.841S8.865-81.995 14.704-71.91c3.77 6.461 14.185 37.594 18.674 67.819C33.99 0 22.841-32.489 13.488-47.318c-6.229-9.889-16.61-40.204-16.63-42.805C-3.158-92.708 0-94.841 0-94.841" style="fill:#006a44;fill-rule:nonzero" transform="translate(680.788 974.28)scale(4.16667)"/><path d="M0-103.44s5.1 15.205 4.101 27.017C3.458-68.817-9.563-24.1-22.615-3.444-24.788 0-9.824-39.451-8.941-57.307c.578-11.917 4.317-41.956 5.753-44.05C-1.742-103.425 0-103.44 0-103.44" style="fill:#006a44;fill-rule:nonzero" transform="translate(657.005 1048.805)scale(4.16667)"/><path d="M0-97.055S-9.87-71.92-13.68-63.507c-2.419 5.406-10.446 41.018-9.317 60.294.181 3.213 4.87-29.587 11.034-42.092C-7.856-53.623 1.28-76.694 1.069-78.677.868-80.665 0-97.055 0-97.055" style="fill:#006a44;fill-rule:nonzero" transform="translate(631.113 1031.567)scale(4.16667)"/><path d="M0-74.069s.186 13.584-3.76 22.65c-2.56 5.823-25.2 37.403-41.502 49.853-2.701 2.088 20.168-24.729 25.614-38.619 3.63-9.262 14.709-31.982 16.446-33.201C-1.466-74.591 0-74.069 0-74.069" style="fill:#006a44;fill-rule:nonzero" transform="translate(641.613 945.542)scale(4.16667)"/><path d="M0-78.04s-18.383 19.457-25.25 25.25c-4.403 3.725-26.194 31.967-33.091 49.813C-59.493 0-41.826-27.288-31.184-35.627c7.094-5.542 20.09-18.659 20.727-20.561C-9.819-58.045 0-78.04 0-78.04" style="fill:#006a44;fill-rule:nonzero" transform="translate(659.83 902.538)scale(4.16667)"/><path d="M0-106.212c-1.797-.775-31.43 17.11-64.355 66.486-4.94 7.39-25.05 40.501-21.48 39.803 2.238-.411 28.784-47.498 49.034-67.743 22.198-22.204 40.365-35.838 40.365-35.838z" style="fill:#006a44;fill-rule:nonzero" transform="translate(951.463 706.584)scale(4.16667)"/><path d="M0-7.651h1.59q8.167.001 11.05-1.72 2.878-1.718 2.878-5.846.001-3.483-2.47-5.095-2.472-1.614-7.761-1.614H2.279zm-22.358 35.296 10.019-62.941H4.944c4.787 0 8.381.196 10.79.583s4.499 1.038 6.278 1.956c3.21 1.631 5.609 3.869 7.199 6.706q2.389 4.255 2.388 10.19 0 5.89-2.56 10.917-2.556 5.032-6.942 7.74-2.58 1.59-6.106 2.258-3.526.664-11.047.665h-7.051l-3.526 21.926z" style="fill:#231f20;fill-rule:nonzero" transform="translate(253.95 650.876)scale(4.16667)"/><path d="M-19.642 39.941h63.726L46.769 23h-63.726z" style="fill:#231f20;fill-rule:nonzero" transform="scale(4.16667 -4.16667)rotate(80.995 168.983 -4.512)"/><path d="M0-7.651h1.59q8.167.001 11.05-1.72 2.878-1.718 2.878-5.846.001-3.483-2.47-5.095-2.472-1.614-7.761-1.614H2.279zm-22.358 35.296 10.019-62.941H4.944c4.787 0 8.381.196 10.79.583s4.499 1.038 6.278 1.956c3.21 1.631 5.609 3.869 7.199 6.706q2.389 4.255 2.388 10.19 0 5.89-2.56 10.917-2.556 5.032-6.942 7.74-2.58 1.59-6.106 2.258-3.526.664-11.047.665h-7.051l-3.526 21.926z" style="fill:#231f20;fill-rule:nonzero" transform="translate(620.096 650.876)scale(4.16667)"/><path d="M0-35.251q-7.695 0-12.897 5.547-5.202 5.545-5.202 13.758c0 4.841 1.385 8.713 4.15 11.605Q-9.802.003-2.878.004 4.687.002 9.974-5.736q5.29-5.741 5.291-13.997-.002-6.79-4.3-11.153Q6.665-35.25 0-35.251m-3.868 50.643q-6.749-.001-12.274-1.847-5.525-1.848-9.824-5.547-4.512-3.954-7.051-9.759-2.536-5.801-2.536-12.339 0-7.052 2.172-13.174 2.17-6.126 6.47-11.116 5.031-5.932 12.273-9.093c4.831-2.104 10.067-3.16 15.714-3.16q14.187 0 22.937 8.169 8.747 8.172 8.747 21.237.001 7.011-2.213 13.178a35 35 0 0 1-6.469 11.112q-5.203 6.066-12.298 9.2-7.091 3.14-15.648 3.139" style="fill:#231f20;fill-rule:nonzero" transform="translate(919.767 708.909)scale(4.16667)"/><path d="m0-57.091-2.837 17.369c-2.409-2.09-5.03-3.677-7.867-4.749a24.8 24.8 0 0 0-8.858-1.614q-7.826-.001-12.897 5.462-5.073 5.457-5.074 13.928 0 7.653 4.255 11.842 4.26 4.194 12.041 4.194 3.351 0 6.897-.819c2.368-.541 4.852-1.36 7.46-2.45L-9.502 2.365q-3.223 1.034-7.116 1.569-3.89.539-8.402.538-13.459 0-21.563-8.34c-5.403-5.561-8.103-12.938-8.103-22.142q0-6.66 2.086-12.702a35.5 35.5 0 0 1 6.127-10.985q4.728-5.76 11.801-8.813 7.072-3.053 15.84-3.053c3.324 0 6.552.374 9.673 1.117A42.5 42.5 0 0 1 0-57.091" style="fill:#231f20;fill-rule:nonzero" transform="translate(1315.31 754.055)scale(4.16667)"/><path d="M0-7.651h1.59q8.167.001 11.05-1.72 2.878-1.718 2.878-5.846.001-3.483-2.47-5.095-2.472-1.614-7.761-1.614H2.279zm-22.358 35.296 10.019-62.941H4.944c4.787 0 8.381.196 10.79.583s4.499 1.038 6.278 1.956c3.21 1.631 5.609 3.869 7.199 6.706q2.389 4.255 2.388 10.19 0 5.89-2.56 10.917-2.556 5.032-6.942 7.74-2.58 1.59-6.106 2.258-3.526.664-11.047.665h-7.051l-3.526 21.926z" style="fill:#ed1c24;fill-rule:nonzero" transform="translate(224.71 636.255)scale(4.16667)"/><path d="M-19.642 39.941h63.726L46.769 23h-63.726z" style="fill:#ed1c24;fill-rule:nonzero" transform="scale(4.16667 -4.16667)rotate(80.995 163.42 -6.866)"/><path d="M0-7.651h1.59q8.167.001 11.05-1.72 2.878-1.718 2.878-5.846.001-3.483-2.47-5.095-2.472-1.614-7.761-1.614H2.279zm-22.358 35.296 10.019-62.941H4.944c4.787 0 8.381.196 10.79.583s4.499 1.038 6.278 1.956c3.21 1.631 5.609 3.869 7.199 6.706q2.389 4.255 2.388 10.19 0 5.89-2.56 10.917-2.556 5.032-6.942 7.74-2.58 1.59-6.106 2.258-3.526.664-11.047.665h-7.051l-3.526 21.926z" style="fill:#ed1c24;fill-rule:nonzero" transform="translate(590.855 636.255)scale(4.16667)"/><path d="M0-35.251q-7.695 0-12.897 5.547-5.202 5.545-5.202 13.758c0 4.841 1.385 8.713 4.15 11.605Q-9.802.003-2.878.004 4.687.002 9.974-5.736q5.29-5.741 5.291-13.997-.002-6.79-4.3-11.153Q6.665-35.25 0-35.251m-3.868 50.643q-6.749-.001-12.274-1.847-5.525-1.848-9.824-5.547-4.512-3.954-7.051-9.759-2.536-5.801-2.536-12.338 0-7.053 2.172-13.175 2.17-6.126 6.47-11.116 5.031-5.932 12.273-9.093c4.831-2.104 10.067-3.16 15.714-3.16q14.187 0 22.937 8.169 8.747 8.172 8.747 21.237.001 7.011-2.213 13.178a35 35 0 0 1-6.469 11.112q-5.203 6.066-12.298 9.2-7.091 3.14-15.648 3.139" style="fill:#ed1c24;fill-rule:nonzero" transform="translate(890.526 694.292)scale(4.16667)"/><path d="m0-57.091-2.837 17.369c-2.409-2.09-5.03-3.677-7.867-4.749a24.8 24.8 0 0 0-8.858-1.614q-7.826-.001-12.897 5.462-5.073 5.457-5.074 13.928 0 7.653 4.255 11.842 4.26 4.194 12.041 4.194 3.351 0 6.897-.819c2.368-.541 4.852-1.36 7.46-2.45L-9.502 2.365q-3.223 1.034-7.116 1.569-3.89.539-8.402.538-13.459 0-21.563-8.34c-5.403-5.561-8.103-12.938-8.103-22.142q0-6.661 2.087-12.701a35.5 35.5 0 0 1 6.126-10.986q4.728-5.76 11.801-8.813 7.072-3.053 15.84-3.053c3.324 0 6.552.374 9.673 1.118A42.5 42.5 0 0 1 0-57.091" style="fill:#ed1c24;fill-rule:nonzero" transform="translate(1286.068 739.434)scale(4.16667)"/><path d="M0 2.687C-2.437 9.412-1.052 15.445-.159 16.86c-2.496-4.749 1.57-25.994 28.935-26.585-2.793-1.907-6.207-3.434-10.038-4.448-4.624 1.756-8.228 3.885-11.025 6.199-2.795-2.309-6.393-4.436-11.008-6.191-3.819 1.013-7.225 2.537-10.007 4.437 7.484-.003 13.42 1.88 17.949 4.696A24.4 24.4 0 0 0 1.643-.864c-5.328-2.342-12.336-3.544-21.051-2.493-1.101 1.958-1.704 4.069-1.704 6.272q.002.931.141 1.838C-12.251 1.741-5.288 1.471 0 2.687" style="fill:#00b09b" transform="translate(96.38 349.787)scale(4.16667)"/><path d="M0 3.597S1.595 1.541 3.58.141a45 45 0 0 0-7.159 0C-1.593 1.541 0 3.597 0 3.597" style="fill:#00b09b" transform="translate(128.612 284.932)scale(4.16667)"/><path d="M0 25.479c-6.693-.325-6.923-8.9 0-14.242 6.923 5.342 6.693 13.917 0 14.242m28.706-15.68c0-3.025-3.518-8.297-3.63-8.307C-7.324-.935-13.385 26.414 0 26.193c8.051-.317 8.83-9.282 2.144-16.363a20 20 0 0 1 3.234-1.442c3.131 5.065 3.845 10.385 2.494 13.509.892-1.415 2.278-7.448-.16-14.173 5.292-1.218 12.264-.946 20.994 2.075" style="fill:#00b09b" transform="translate(128.605 328.8)scale(4.16667)"/><path d="M0-3.313h.848l.673 1.771.71-1.771h.858L3.587 0h-.859l-.242-1.907h-.009L1.682 0h-.341l-.76-1.907H.572L.294 0h-.855z" style="fill:#231f20;fill-rule:nonzero" transform="translate(85.272 463.992)scale(4.16667)"/><path d="M0 3.313h.861V2.216h.487c.75 0 1.172-.344 1.172-1.125C2.52.331 2.028 0 1.316 0H0zM.861.695h.143c.334 0 .62.005.62.422 0 .405-.308.405-.62.405H.861z" style="fill:#231f20;fill-rule:nonzero" transform="translate(113.087 450.188)scale(4.16667)"/><path d="M0-3.53c-.951 0-1.83.704-1.83 1.704C-1.83-.754-1.062 0 0 0s1.831-.754 1.831-1.826c0-1-.878-1.704-1.831-1.704m0 .835c.514 0 .936.416.936.873 0 .572-.422.987-.936.987-.513 0-.935-.415-.935-.987 0-.457.422-.873.935-.873" style="fill:#231f20;fill-rule:nonzero" transform="translate(143.454 464.442)scale(4.16667)"/><path d="M0-1.995h.061c.231 0 .501.018.501.322 0 .28-.237.32-.466.32H0zM.466.659c.605 0 1.196-.229 1.196-.924 0-.461-.2-.781-.674-.842v-.008c.267-.137.362-.379.362-.678 0-.631-.395-.861-.981-.861H-.862V.659zM0-.712h.086c.283 0 .709-.04.709.36C.795.013.364.001.11.001H0z" style="fill:#231f20;fill-rule:nonzero" transform="translate(167.681 461.246)scale(4.16667)"/><path d="M0-22.678c-29.078-2.28-38.401 19.103-30.562 25.687-7.503-3.208-4.061-27.628 25.742-28.673.652-.023 3.28.877 4.82 2.986" style="fill:#efb30f" transform="translate(236.931 422.475)scale(4.16667)"/></svg>