<?xml version="1.0" encoding="UTF-8" standalone="no"?>
<!DOCTYPE svg PUBLIC "-//W3C//DTD SVG 1.1//EN" "http://www.w3.org/Graphics/SVG/1.1/DTD/svg11.dtd">
<svg width="100%" height="100%" viewBox="0 0 1324 1265" version="1.1" xmlns="http://www.w3.org/2000/svg" xmlns:xlink="http://www.w3.org/1999/xlink" xml:space="preserve" xmlns:serif="http://www.serif.com/" style="fill-rule:evenodd;clip-rule:evenodd;stroke-miterlimit:10;">
    <g id="Layer-1" serif:id="Layer 1" transform="matrix(4.16667,0,0,4.16667,0,0)">
        <g transform="matrix(0.922022,0.387137,0.387137,-0.922022,64.5095,98.6453)">
            <rect x="-0.942" y="-4.678" width="11.562" height="2.539" style="fill:rgb(35,31,32);"/>
        </g>
        <g transform="matrix(1,0,0,1,66.2263,94.3293)">
            <path d="M0,-1.327L9.103,-1.899L9.133,-1.927L2.296,-5.606L3.426,-7.7L13.611,-2.226L12.406,0.013L3.31,0.586L3.296,0.616L10.105,4.28L8.973,6.373L-1.198,0.892L0,-1.327Z" style="fill:rgb(35,31,32);fill-rule:nonzero;"/>
        </g>
        <g transform="matrix(1,0,0,1,73.9389,77.3702)">
            <path d="M0,6.383L-1.737,5.15L3.71,-2.593L5.462,-1.36L3.464,1.471L11.172,6.898L9.709,8.976L2.008,3.549L0,6.383Z" style="fill:rgb(35,31,32);fill-rule:nonzero;"/>
        </g>
        <g transform="matrix(1,0,0,1,86.3709,78.7327)">
            <path d="M0,-14.133L1.609,-12.72L-2.45,-8.149L-0.595,-6.505L3.122,-10.699L4.593,-9.389L0.884,-5.192L2.999,-3.31L7.141,-7.976L8.735,-6.563L2.911,0L-5.738,-7.673L0,-14.133Z" style="fill:rgb(35,31,32);fill-rule:nonzero;"/>
        </g>
        <g transform="matrix(1,0,0,1,94.8017,68.5331)">
            <path d="M0,-11.845C0.392,-12.184 0.798,-12.429 1.217,-12.583C1.637,-12.728 2.058,-12.793 2.478,-12.771C2.891,-12.748 3.283,-12.648 3.652,-12.467C4.021,-12.287 4.363,-12.025 4.651,-11.699C5.1,-11.184 5.389,-10.647 5.507,-10.09C5.608,-9.526 5.52,-8.938 5.201,-8.316L5.216,-8.286C5.52,-8.431 5.796,-8.504 6.064,-8.504C6.333,-8.504 6.606,-8.454 6.852,-8.358C7.113,-8.273 7.359,-8.127 7.608,-7.947C7.839,-7.774 8.062,-7.578 8.273,-7.374C8.404,-7.244 8.557,-7.091 8.722,-6.918C8.895,-6.737 9.084,-6.564 9.272,-6.383C9.468,-6.2 9.663,-6.057 9.859,-5.919C10.055,-5.781 10.258,-5.685 10.454,-5.65L8.549,-3.963C8.2,-4.149 7.846,-4.418 7.477,-4.782C7.129,-5.136 6.767,-5.462 6.411,-5.773C5.949,-6.172 5.52,-6.373 5.116,-6.403C4.724,-6.426 4.282,-6.222 3.81,-5.801L1.905,-4.122L4.897,-0.738L2.999,0.948L-4.663,-7.709L0,-11.845ZM2.789,-7.325C3.231,-7.709 3.464,-8.09 3.514,-8.482C3.564,-8.866 3.391,-9.287 2.999,-9.714C2.631,-10.14 2.254,-10.344 1.87,-10.344C1.478,-10.336 1.072,-10.148 0.63,-9.756L-1.448,-7.917L0.695,-5.477L2.789,-7.325Z" style="fill:rgb(35,31,32);fill-rule:nonzero;"/>
        </g>
        <g transform="matrix(1,0,0,1,103.885,56.4873)">
            <path d="M0,-6.912L8.346,-3.203L8.376,-3.225L4.021,-9.635L5.999,-10.983L12.482,-1.413L10.374,0.013L2.058,-3.695L2.03,-3.675L6.376,2.731L4.398,4.071L-2.085,-5.499L0,-6.912Z" style="fill:rgb(35,31,32);fill-rule:nonzero;"/>
        </g>
        <g transform="matrix(1,0,0,1,120.017,53.4581)">
            <path d="M0,-13.466L9.076,-5.113L6.732,-3.918L4.784,-5.823L0.924,-3.86L1.285,-1.157L-1.004,0L-2.324,-12.286L0,-13.466ZM3.343,-7.214L0.116,-10.336L0.08,-10.313L0.663,-5.853L3.343,-7.214Z" style="fill:rgb(35,31,32);fill-rule:nonzero;"/>
        </g>
        <g transform="matrix(1,0,0,1,126.442,41.4477)">
            <path d="M0,-2.166L-0.758,-4.156L8.087,-7.555L8.855,-5.557L5.607,-4.317L8.986,4.486L6.606,5.389L3.238,-3.403L0,-2.166Z" style="fill:rgb(35,31,32);fill-rule:nonzero;"/>
        </g>
        <g transform="matrix(0.275612,0.961269,0.961269,-0.275612,147.26,35.8218)">
            <rect x="-5.404" y="-7.196" width="11.559" height="2.552" style="fill:rgb(35,31,32);"/>
        </g>
        <g transform="matrix(1,0,0,1,147.119,36.538)">
            <path d="M0,-2.61C0.115,-3.383 0.361,-4.086 0.738,-4.723C1.109,-5.356 1.606,-5.891 2.244,-6.324C2.881,-6.774 3.634,-7.072 4.502,-7.238C5.381,-7.412 6.199,-7.412 6.952,-7.231C7.691,-7.057 8.358,-6.746 8.94,-6.297C9.517,-5.848 10.005,-5.283 10.401,-4.608C10.793,-3.927 11.069,-3.167 11.239,-2.319C11.395,-1.493 11.415,-0.697 11.3,0.071C11.184,0.831 10.938,1.526 10.562,2.144C10.185,2.766 9.678,3.294 9.056,3.73C8.418,4.165 7.665,4.468 6.777,4.642C5.908,4.802 5.105,4.802 4.352,4.634C3.599,4.461 2.941,4.157 2.359,3.722C1.782,3.281 1.29,2.729 0.899,2.064C0.507,1.396 0.231,0.651 0.07,-0.176C-0.09,-1.024 -0.116,-1.834 0,-2.61M2.997,0.701C3.202,1.13 3.464,1.506 3.765,1.817C4.086,2.137 4.462,2.36 4.894,2.505C5.331,2.643 5.823,2.656 6.39,2.548C6.952,2.448 7.404,2.245 7.756,1.956C8.107,1.657 8.368,1.311 8.549,0.904C8.72,0.497 8.81,0.056 8.835,-0.413C8.865,-0.885 8.835,-1.362 8.735,-1.842C8.639,-2.341 8.493,-2.806 8.288,-3.253C8.097,-3.702 7.836,-4.081 7.525,-4.404C7.214,-4.718 6.837,-4.949 6.4,-5.095C5.969,-5.231 5.466,-5.253 4.909,-5.145C4.347,-5.035 3.88,-4.834 3.534,-4.535C3.188,-4.254 2.926,-3.898 2.751,-3.486C2.575,-3.072 2.485,-2.622 2.455,-2.138C2.435,-1.646 2.475,-1.154 2.57,-0.652C2.665,-0.176 2.811,0.274 2.997,0.701" style="fill:rgb(35,31,32);fill-rule:nonzero;"/>
        </g>
        <g transform="matrix(1,0,0,1,165.186,39.2015)">
            <path d="M0,-11.335L5.186,-3.81L5.216,-3.81L4.855,-11.561L7.229,-11.669L7.781,-0.128L5.231,-0.008L0.07,-7.51L0.035,-7.51L0.397,0.226L-1.978,0.334L-2.53,-11.212L0,-11.335Z" style="fill:rgb(35,31,32);fill-rule:nonzero;"/>
        </g>
        <g transform="matrix(1,0,0,1,183.945,39.767)">
            <path d="M0,-11.662L3.394,0.203L0.763,-0.001L0.09,-2.636L-4.217,-2.982L-5.316,-0.485L-7.866,-0.688L-2.605,-11.865L0,-11.662ZM-0.416,-4.579L-1.536,-8.924L-1.561,-8.924L-3.403,-4.818L-0.416,-4.579Z" style="fill:rgb(35,31,32);fill-rule:nonzero;"/>
        </g>
        <g transform="matrix(1,0,0,1,195.155,41.6087)">
            <path d="M0,-11.94L-1.837,-2.696L3.7,-1.609L3.278,0.492L-4.734,-1.094L-2.5,-12.432L0,-11.94Z" style="fill:rgb(35,31,32);fill-rule:nonzero;"/>
        </g>
        <g transform="matrix(1,0,0,1,217.383,44.0278)">
            <path d="M0,-7.911C0.673,-7.643 1.21,-7.323 1.612,-6.947C2.003,-6.563 2.289,-6.159 2.455,-5.722C2.626,-5.281 2.696,-4.834 2.681,-4.362C2.65,-3.897 2.55,-3.448 2.379,-2.999C2.209,-2.58 1.978,-2.173 1.677,-1.812C1.376,-1.451 1.029,-1.159 0.602,-0.948C0.176,-0.747 -0.311,-0.637 -0.853,-0.625C-1.405,-0.61 -2.013,-0.732 -2.696,-1.001L-5.186,-1.963L-6.676,1.89L-9.056,0.969L-4.859,-9.801L0,-7.911ZM-2.621,-3.087C-2.354,-2.987 -2.083,-2.906 -1.817,-2.841C-1.551,-2.791 -1.295,-2.783 -1.054,-2.826C-0.823,-2.861 -0.608,-2.972 -0.407,-3.137C-0.211,-3.303 -0.04,-3.559 0.09,-3.897C0.221,-4.239 0.276,-4.535 0.231,-4.796C0.206,-5.05 0.116,-5.276 -0.025,-5.469C-0.18,-5.652 -0.361,-5.818 -0.608,-5.956C-0.838,-6.099 -1.094,-6.224 -1.36,-6.325L-3.208,-7.035L-4.463,-3.81L-2.621,-3.087Z" style="fill:rgb(35,31,32);fill-rule:nonzero;"/>
        </g>
        <g transform="matrix(1,0,0,1,229.647,52.8659)">
            <path d="M0,-11.049L-1.506,1.202L-3.845,-0.015L-3.439,-2.711L-7.264,-4.702L-9.262,-2.841L-11.526,-4.014L-2.31,-12.251L0,-11.049ZM-3.147,-4.697L-2.475,-9.129L-2.505,-9.144L-5.798,-6.079L-3.147,-4.697Z" style="fill:rgb(35,31,32);fill-rule:nonzero;"/>
        </g>
        <g transform="matrix(1,0,0,1,239.355,58.9152)">
            <path d="M0,-11.303L-5.276,-3.494L-0.602,-0.342L-1.802,1.425L-8.579,-3.146L-2.108,-12.728L0,-11.303Z" style="fill:rgb(35,31,32);fill-rule:nonzero;"/>
        </g>
        <g transform="matrix(1,0,0,1,250.735,68.2868)">
            <path d="M0,-12.176L-3.243,-4.425L-3.218,-4.41L3.961,-8.672L6.641,-6.303L-1.014,2.369L-2.796,0.791L2.63,-5.354L2.61,-5.374L-4.939,-1.114L-6.405,-2.412L-3.158,-10.358L-3.188,-10.381L-8.564,-4.302L-10.336,-5.881L-2.681,-14.545L0,-12.176Z" style="fill:rgb(35,31,32);fill-rule:nonzero;"/>
        </g>
        <g transform="matrix(1,0,0,1,263.571,85.1941)">
            <path d="M0,-11.315C0.753,-11.546 1.486,-11.641 2.219,-11.576C2.957,-11.511 3.649,-11.292 4.332,-10.916C5,-10.532 5.607,-9.998 6.129,-9.279C6.666,-8.562 7.018,-7.831 7.188,-7.083C7.359,-6.33 7.369,-5.6 7.214,-4.875C7.058,-4.157 6.767,-3.476 6.33,-2.831C5.898,-2.182 5.331,-1.594 4.643,-1.072C3.97,-0.573 3.253,-0.204 2.52,0.023C1.782,0.246 1.044,0.326 0.321,0.261C-0.397,0.195 -1.1,-0.028 -1.752,-0.405C-2.425,-0.789 -3.027,-1.326 -3.564,-2.051C-4.091,-2.759 -4.438,-3.484 -4.623,-4.237C-4.794,-4.99 -4.809,-5.716 -4.674,-6.433C-4.533,-7.141 -4.242,-7.824 -3.815,-8.469C-3.389,-9.114 -2.831,-9.686 -2.159,-10.186C-1.461,-10.705 -0.738,-11.076 0,-11.315M-1.672,-7.164C-1.968,-6.802 -2.194,-6.411 -2.345,-5.992C-2.49,-5.577 -2.525,-5.136 -2.465,-4.686C-2.405,-4.229 -2.204,-3.773 -1.853,-3.318C-1.521,-2.862 -1.134,-2.535 -0.723,-2.347C-0.311,-2.166 0.115,-2.078 0.567,-2.094C0.999,-2.116 1.451,-2.217 1.882,-2.405C2.319,-2.586 2.731,-2.831 3.117,-3.115C3.519,-3.419 3.885,-3.76 4.201,-4.136C4.508,-4.506 4.738,-4.904 4.889,-5.332C5.045,-5.745 5.085,-6.187 5.02,-6.634C4.97,-7.091 4.758,-7.548 4.417,-8.005C4.071,-8.461 3.694,-8.787 3.273,-8.976C2.861,-9.157 2.435,-9.25 1.988,-9.222C1.536,-9.199 1.094,-9.091 0.637,-8.895C0.196,-8.7 -0.231,-8.454 -0.638,-8.15C-1.029,-7.859 -1.376,-7.533 -1.672,-7.164" style="fill:rgb(35,31,32);fill-rule:nonzero;"/>
        </g>
        <g transform="matrix(-0.858004,0.513643,0.513643,0.858004,267.361,93.5178)">
            <rect x="-11.397" y="-3.143" width="11.569" height="2.538" style="fill:rgb(35,31,32);"/>
        </g>
        <g transform="matrix(1,0,0,1,280.623,101.993)">
            <path d="M0,-7.839L-8.473,-3.715L-6.003,1.355L-7.926,2.289L-11.505,-5.063L-1.114,-10.128L0,-7.839Z" style="fill:rgb(35,31,32);fill-rule:nonzero;"/>
        </g>
        <g transform="matrix(1,0,0,1,69.8256,196.951)">
            <path d="M0,3.192C0.201,2.981 0.346,2.745 0.469,2.474C0.577,2.208 0.65,1.917 0.665,1.621C0.688,1.31 0.65,1.014 0.565,0.707C0.419,0.155 0.166,-0.277 -0.145,-0.603C-0.48,-0.924 -0.841,-1.155 -1.275,-1.286C-1.697,-1.421 -2.158,-1.487 -2.653,-1.466C-3.13,-1.436 -3.624,-1.356 -4.109,-1.221C-4.573,-1.09 -5.015,-0.899 -5.419,-0.668C-5.833,-0.427 -6.187,-0.141 -6.463,0.195C-6.752,0.536 -6.94,0.923 -7.043,1.375C-7.143,1.816 -7.123,2.314 -6.97,2.866C-6.752,3.614 -6.36,4.136 -5.783,4.422C-5.203,4.708 -4.535,4.798 -3.752,4.678L-3.08,7.038C-3.798,7.178 -4.463,7.193 -5.1,7.098C-5.73,6.997 -6.303,6.791 -6.824,6.48C-7.339,6.169 -7.781,5.757 -8.157,5.24C-8.519,4.728 -8.81,4.136 -9.005,3.448C-9.252,2.6 -9.317,1.787 -9.217,1.028C-9.113,0.266 -8.875,-0.427 -8.484,-1.045C-8.1,-1.662 -7.592,-2.189 -6.97,-2.641C-6.34,-3.088 -5.622,-3.429 -4.811,-3.66C-3.978,-3.901 -3.175,-4.001 -2.392,-3.951C-1.609,-3.901 -0.886,-3.725 -0.218,-3.409C0.442,-3.098 1.014,-2.631 1.521,-2.043C2.013,-1.451 2.374,-0.734 2.621,0.12C2.796,0.737 2.866,1.34 2.854,1.932C2.831,2.535 2.716,3.092 2.505,3.619C2.289,4.151 1.975,4.617 1.556,5.045C1.145,5.466 0.608,5.807 0,6.058L-0.683,3.694C-0.414,3.568 -0.191,3.408 0,3.192" style="fill:rgb(35,31,32);fill-rule:nonzero;"/>
        </g>
        <g transform="matrix(1,0,0,1,71.6278,218.24)">
            <path d="M0,-11.606C0.783,-11.671 1.521,-11.591 2.224,-11.375C2.926,-11.154 3.564,-10.788 4.136,-10.271C4.716,-9.753 5.18,-9.091 5.542,-8.288C5.903,-7.464 6.092,-6.667 6.092,-5.903C6.092,-5.135 5.941,-4.413 5.642,-3.755C5.331,-3.082 4.904,-2.48 4.325,-1.937C3.76,-1.4 3.08,-0.959 2.289,-0.602C1.521,-0.256 0.745,-0.06 -0.02,0.005C-0.788,0.065 -1.513,-0.015 -2.209,-0.231C-2.904,-0.467 -3.526,-0.833 -4.099,-1.35C-4.659,-1.862 -5.128,-2.52 -5.497,-3.348C-5.861,-4.146 -6.049,-4.939 -6.049,-5.707C-6.064,-6.486 -5.919,-7.204 -5.62,-7.866C-5.324,-8.534 -4.904,-9.126 -4.34,-9.663C-3.787,-10.195 -3.122,-10.637 -2.347,-10.974C-1.556,-11.325 -0.776,-11.541 0,-11.606M-2.542,-7.927C-2.904,-7.635 -3.208,-7.294 -3.454,-6.917C-3.687,-6.541 -3.818,-6.129 -3.853,-5.672C-3.895,-5.215 -3.787,-4.729 -3.572,-4.212C-3.323,-3.69 -3.034,-3.288 -2.658,-3.012C-2.297,-2.746 -1.89,-2.565 -1.463,-2.495C-1.021,-2.414 -0.572,-2.414 -0.116,-2.5C0.356,-2.585 0.811,-2.726 1.255,-2.926C1.717,-3.133 2.138,-3.383 2.528,-3.68C2.912,-3.976 3.223,-4.312 3.471,-4.694C3.71,-5.07 3.848,-5.491 3.89,-5.943C3.921,-6.405 3.825,-6.892 3.586,-7.409C3.353,-7.927 3.057,-8.333 2.696,-8.609C2.327,-8.88 1.928,-9.056 1.486,-9.126C1.044,-9.201 0.588,-9.186 0.111,-9.106C-0.376,-9.011 -0.848,-8.865 -1.31,-8.66C-1.76,-8.464 -2.166,-8.217 -2.542,-7.927" style="fill:rgb(35,31,32);fill-rule:nonzero;"/>
        </g>
        <g transform="matrix(1,0,0,1,82.2977,230.635)">
            <path d="M0,-10.206L-3.941,-1.958L-3.926,-1.933L2.608,-6.11L3.898,-4.107L-5.838,2.123L-7.214,-0.025L-3.288,-8.238L-3.303,-8.269L-9.822,-4.092L-11.097,-6.095L-1.361,-12.329L0,-10.206Z" style="fill:rgb(35,31,32);fill-rule:nonzero;"/>
        </g>
        <g transform="matrix(1,0,0,1,84.5589,234.029)">
            <path d="M0,8.412C-0.544,8.151 -0.999,7.82 -1.376,7.398C-1.963,6.74 -2.377,6.038 -2.608,5.31C-2.854,4.582 -2.934,3.854 -2.854,3.126C-2.781,2.409 -2.55,1.71 -2.173,1.033C-1.805,0.35 -1.305,-0.268 -0.675,-0.825C-0.03,-1.402 0.653,-1.838 1.376,-2.135C2.109,-2.431 2.831,-2.577 3.564,-2.586C4.302,-2.586 5.012,-2.431 5.723,-2.114C6.433,-1.793 7.071,-1.301 7.663,-0.644C8.055,-0.192 8.373,0.29 8.604,0.827C8.853,1.359 8.983,1.906 9.026,2.478C9.053,3.036 8.991,3.593 8.808,4.15C8.619,4.712 8.301,5.235 7.851,5.716L6.245,3.894C6.621,3.362 6.795,2.82 6.744,2.278C6.707,1.731 6.476,1.233 6.069,0.777C5.692,0.35 5.274,0.069 4.847,-0.087C4.418,-0.237 3.983,-0.288 3.534,-0.222C3.092,-0.157 2.666,-0.012 2.231,0.22C1.797,0.451 1.39,0.732 1.014,1.073C0.653,1.394 0.341,1.745 0.073,2.137C-0.196,2.529 -0.392,2.945 -0.492,3.362C-0.61,3.799 -0.61,4.241 -0.507,4.682C-0.407,5.129 -0.166,5.566 0.216,5.992C0.768,6.625 1.361,6.961 1.985,7.022C2.615,7.082 3.246,6.876 3.898,6.389L2.201,4.477L3.622,3.217L6.845,6.846L2.181,10.998L1.102,9.788L1.913,8.724C1.172,8.784 0.535,8.668 0,8.412" style="fill:rgb(35,31,32);fill-rule:nonzero;"/>
        </g>
        <g transform="matrix(1,0,0,1,102.957,251.24)">
            <path d="M0,-7.409C0.399,-7.083 0.71,-6.721 0.929,-6.33C1.145,-5.938 1.283,-5.531 1.328,-5.125C1.378,-4.708 1.341,-4.302 1.217,-3.91C1.102,-3.518 0.899,-3.142 0.625,-2.796C0.196,-2.273 -0.288,-1.897 -0.818,-1.701C-1.353,-1.49 -1.955,-1.49 -2.62,-1.701L-2.635,-1.671C-2.455,-1.405 -2.332,-1.134 -2.289,-0.873C-2.236,-0.612 -2.244,-0.341 -2.289,-0.07C-2.347,0.206 -2.44,0.472 -2.577,0.733C-2.716,1 -2.874,1.245 -3.027,1.486C-3.142,1.637 -3.273,1.813 -3.418,2.013C-3.562,2.209 -3.707,2.42 -3.853,2.641C-3.99,2.857 -4.114,3.073 -4.214,3.289C-4.317,3.514 -4.367,3.72 -4.382,3.921L-6.352,2.32C-6.23,1.943 -6.026,1.552 -5.727,1.13C-5.431,0.728 -5.17,0.322 -4.924,-0.085C-4.613,-0.612 -4.475,-1.069 -4.518,-1.47C-4.563,-1.862 -4.824,-2.258 -5.331,-2.655L-7.301,-4.256L-10.14,-0.752L-12.126,-2.344L-4.837,-11.33L0,-7.409ZM-3.99,-3.91C-3.534,-3.538 -3.12,-3.373 -2.731,-3.393C-2.339,-3.403 -1.963,-3.649 -1.591,-4.096C-1.245,-4.532 -1.099,-4.939 -1.172,-5.32C-1.237,-5.697 -1.491,-6.074 -1.948,-6.445L-4.114,-8.192L-6.157,-5.662L-3.99,-3.91Z" style="fill:rgb(35,31,32);fill-rule:nonzero;"/>
        </g>
        <g transform="matrix(1,0,0,1,116.23,258.124)">
            <path d="M0,-5.663L-1.09,-3.825L-6.345,-6.913L-7.608,-4.774L-2.766,-1.943L-3.765,-0.236L-8.607,-3.073L-10.04,-0.623L-4.659,2.53L-5.738,4.377L-13.316,-0.071L-7.462,-10.04L0,-5.663Z" style="fill:rgb(35,31,32);fill-rule:nonzero;"/>
        </g>
        <g transform="matrix(1,0,0,1,117.966,259.217)">
            <path d="M0,3.625C0.015,3.926 0.101,4.202 0.256,4.448C0.407,4.694 0.608,4.915 0.869,5.106C1.13,5.301 1.416,5.472 1.712,5.593C1.928,5.678 2.159,5.753 2.415,5.824C2.666,5.884 2.912,5.914 3.168,5.899C3.419,5.889 3.655,5.824 3.871,5.708C4.081,5.593 4.232,5.397 4.347,5.131C4.463,4.845 4.478,4.564 4.363,4.313C4.262,4.057 4.081,3.811 3.825,3.565C3.579,3.319 3.283,3.072 2.952,2.827C2.611,2.58 2.259,2.32 1.923,2.044C1.566,1.778 1.22,1.491 0.909,1.195C0.582,0.894 0.321,0.567 0.126,0.211C-0.08,-0.15 -0.2,-0.537 -0.236,-0.954C-0.286,-1.375 -0.2,-1.827 0,-2.309C0.231,-2.861 0.553,-3.298 0.944,-3.594C1.35,-3.905 1.798,-4.116 2.29,-4.221C2.776,-4.332 3.288,-4.352 3.825,-4.287C4.363,-4.206 4.855,-4.076 5.341,-3.875C5.899,-3.644 6.405,-3.358 6.868,-3.027C7.324,-2.685 7.701,-2.294 7.982,-1.847C8.258,-1.405 8.434,-0.913 8.484,-0.381C8.534,0.151 8.434,0.723 8.173,1.341L5.913,0.397C6.014,0.076 6.064,-0.226 6.044,-0.486C6.014,-0.738 5.919,-0.963 5.783,-1.164C5.653,-1.36 5.462,-1.541 5.246,-1.686C5.015,-1.837 4.769,-1.978 4.478,-2.098C4.282,-2.178 4.087,-2.239 3.886,-2.274C3.675,-2.309 3.479,-2.319 3.273,-2.283C3.072,-2.243 2.897,-2.178 2.741,-2.063C2.58,-1.962 2.45,-1.797 2.35,-1.555C2.269,-1.355 2.234,-1.174 2.259,-1.009C2.284,-0.838 2.39,-0.657 2.58,-0.446C2.771,-0.241 3.052,0.001 3.414,0.282C3.785,0.573 4.262,0.934 4.869,1.376C5.045,1.501 5.291,1.687 5.608,1.943C5.913,2.194 6.195,2.505 6.441,2.882C6.702,3.253 6.868,3.695 6.968,4.182C7.058,4.664 6.983,5.216 6.737,5.809C6.536,6.295 6.245,6.707 5.884,7.048C5.522,7.39 5.085,7.636 4.588,7.782C4.087,7.927 3.524,7.977 2.897,7.912C2.274,7.847 1.597,7.666 0.869,7.37C0.286,7.124 -0.261,6.813 -0.743,6.431C-1.24,6.059 -1.636,5.628 -1.928,5.136C-2.224,4.659 -2.394,4.122 -2.449,3.535C-2.489,2.957 -2.374,2.34 -2.093,1.687L0.181,2.631C0.03,2.992 -0.03,3.324 0,3.625" style="fill:rgb(35,31,32);fill-rule:nonzero;"/>
        </g>
        <g transform="matrix(1,0,0,1,130.557,263.089)">
            <path d="M0,4.402C0.06,4.698 0.18,4.969 0.361,5.185C0.537,5.411 0.768,5.606 1.044,5.772C1.32,5.933 1.626,6.054 1.943,6.154C2.168,6.204 2.404,6.254 2.665,6.284C2.926,6.319 3.182,6.319 3.429,6.279C3.674,6.234 3.9,6.149 4.086,6.003C4.292,5.868 4.427,5.657 4.508,5.37C4.593,5.07 4.563,4.793 4.427,4.553C4.282,4.317 4.081,4.09 3.795,3.88C3.524,3.664 3.202,3.453 2.826,3.257C2.465,3.046 2.088,2.831 1.727,2.605C1.335,2.379 0.959,2.133 0.607,1.872C0.261,1.621 -0.041,1.324 -0.286,0.988C-0.522,0.662 -0.693,0.295 -0.783,-0.116C-0.874,-0.522 -0.854,-0.99 -0.708,-1.502C-0.547,-2.069 -0.286,-2.531 0.075,-2.887C0.436,-3.234 0.858,-3.495 1.335,-3.66C1.807,-3.836 2.314,-3.921 2.841,-3.906C3.393,-3.906 3.9,-3.826 4.407,-3.69C4.985,-3.53 5.522,-3.299 6.029,-3.033C6.521,-2.747 6.932,-2.4 7.274,-1.994C7.605,-1.582 7.826,-1.125 7.941,-0.598C8.062,-0.076 8.027,0.507 7.851,1.144L5.477,0.481C5.552,0.145 5.557,-0.146 5.506,-0.402C5.442,-0.653 5.331,-0.874 5.175,-1.045C5.014,-1.235 4.809,-1.386 4.563,-1.506C4.327,-1.632 4.056,-1.733 3.755,-1.818C3.559,-1.878 3.348,-1.908 3.147,-1.923C2.936,-1.938 2.741,-1.913 2.55,-1.863C2.364,-1.798 2.188,-1.702 2.043,-1.582C1.892,-1.456 1.782,-1.27 1.712,-1.03C1.651,-0.814 1.646,-0.623 1.696,-0.467C1.742,-0.307 1.872,-0.141 2.073,0.039C2.289,0.23 2.595,0.441 3.001,0.672C3.393,0.903 3.915,1.214 4.563,1.586C4.754,1.686 5.03,1.847 5.361,2.057C5.702,2.264 6.014,2.54 6.32,2.886C6.606,3.227 6.837,3.644 6.983,4.111C7.143,4.582 7.128,5.135 6.958,5.762C6.812,6.269 6.581,6.706 6.259,7.087C5.943,7.474 5.537,7.77 5.06,7.971C4.588,8.182 4.031,8.292 3.398,8.307C2.776,8.323 2.088,8.222 1.32,8.011C0.712,7.835 0.14,7.59 -0.392,7.283C-0.924,6.967 -1.376,6.58 -1.722,6.139C-2.068,5.692 -2.319,5.185 -2.435,4.613C-2.55,4.041 -2.505,3.408 -2.304,2.73L0.06,3.393C-0.041,3.774 -0.056,4.111 0,4.402" style="fill:rgb(35,31,32);fill-rule:nonzero;"/>
        </g>
        <g transform="matrix(1,0,0,1,155.405,275.241)">
            <path d="M0,-11.661L2.942,0.311L0.332,0.01L-0.241,-2.65L-4.533,-3.152L-5.738,-0.702L-8.272,-0.999L-2.595,-11.972L0,-11.661ZM-0.683,-4.613L-1.631,-8.995L-1.667,-8.995L-3.649,-4.959L-0.683,-4.613Z" style="fill:rgb(35,31,32);fill-rule:nonzero;"/>
        </g>
        <g transform="matrix(1,0,0,1,162.403,264.498)">
            <path d="M0,11.3L2.374,11.365L2.59,3.624L2.62,3.624L7.214,11.496L9.758,11.561L10.085,0.005L7.691,-0.055L7.484,7.696L7.444,7.696L2.841,-0.186L0.316,-0.261L0,11.3Z" style="fill:rgb(35,31,32);fill-rule:nonzero;"/>
        </g>
        <g transform="matrix(1,0,0,1,181.774,275.913)">
            <path d="M0,-11.721C0.753,-11.746 1.446,-11.661 2.098,-11.445C2.751,-11.234 3.313,-10.898 3.81,-10.446C4.302,-9.989 4.694,-9.417 4.98,-8.704C5.271,-8.012 5.447,-7.178 5.477,-6.219C5.502,-5.381 5.432,-4.598 5.241,-3.88C5.055,-3.147 4.749,-2.525 4.337,-1.997C3.926,-1.46 3.389,-1.029 2.751,-0.708C2.114,-0.381 1.345,-0.211 0.462,-0.171L-4.523,0.025L-4.979,-11.525L0,-11.721ZM0.201,-2.294C0.573,-2.309 0.924,-2.389 1.26,-2.52C1.606,-2.65 1.913,-2.861 2.158,-3.142C2.42,-3.433 2.621,-3.8 2.766,-4.252C2.912,-4.693 2.967,-5.241 2.947,-5.873C2.927,-6.46 2.846,-6.983 2.706,-7.444C2.575,-7.916 2.374,-8.298 2.098,-8.634C1.833,-8.95 1.476,-9.191 1.039,-9.357C0.608,-9.517 0.085,-9.583 -0.537,-9.563L-2.354,-9.488L-2.058,-2.208L0.201,-2.294Z" style="fill:rgb(35,31,32);fill-rule:nonzero;"/>
        </g>
        <g transform="matrix(1,0,0,1,205.052,272.51)">
            <path d="M0,-13.519L0.598,-11.461L-5.256,-9.764L-4.568,-7.39L0.809,-8.946L1.356,-7.048L-4.026,-5.482L-3.228,-2.766L2.756,-4.503L3.359,-2.455L-5.07,0L-8.298,-11.104L0,-13.519Z" style="fill:rgb(35,31,32);fill-rule:nonzero;"/>
        </g>
        <g transform="matrix(1,0,0,1,207.888,265.146)">
            <path d="M0,-7.088L2.746,-8.167L6.204,-5.557L7.033,-9.854L9.628,-10.873L8.197,-4.377L14.161,-0.241L11.35,0.873L7.525,-1.928L6.596,2.736L3.946,3.785L5.482,-3.328L0,-7.088Z" style="fill:rgb(35,31,32);fill-rule:nonzero;"/>
        </g>
        <g transform="matrix(1,0,0,1,222.757,259.805)">
            <path d="M0,-8.077L2.043,-4.152L6.204,-6.31L4.146,-10.241L6.4,-11.425L11.751,-1.175L9.493,-0L7.193,-4.418L3.042,-2.259L5.346,2.163L3.102,3.348L-2.249,-6.902L0,-8.077Z" style="fill:rgb(35,31,32);fill-rule:nonzero;"/>
        </g>
        <g transform="matrix(0.543111,0.839661,0.839661,-0.543111,240.467,245.525)">
            <rect x="-3.71" y="-6.817" width="11.56" height="2.546" style="fill:rgb(35,31,32);"/>
        </g>
        <g transform="matrix(1,0,0,1,242.621,250.252)">
            <path d="M0,-11.224C0.437,-11.57 0.854,-11.847 1.275,-12.048C1.687,-12.258 2.089,-12.374 2.48,-12.404C2.871,-12.434 3.263,-12.354 3.624,-12.188C3.986,-12.002 4.347,-11.716 4.679,-11.289C5.04,-10.833 5.246,-10.366 5.276,-9.904C5.311,-9.432 5.211,-8.94 4.955,-8.428C5.637,-8.699 6.275,-8.759 6.868,-8.579C7.47,-8.398 7.992,-8.022 8.438,-7.454C8.81,-6.998 9.041,-6.535 9.122,-6.064C9.207,-5.587 9.187,-5.125 9.056,-4.673C8.926,-4.226 8.71,-3.79 8.404,-3.393C8.107,-2.976 7.751,-2.615 7.345,-2.289L2.972,1.21L-4.246,-7.826L0,-11.224ZM2.676,-7.369C3.027,-7.65 3.263,-7.961 3.348,-8.318C3.434,-8.664 3.334,-9.036 3.027,-9.412C2.857,-9.623 2.691,-9.768 2.495,-9.834C2.319,-9.914 2.129,-9.939 1.943,-9.914C1.752,-9.889 1.566,-9.834 1.376,-9.723C1.19,-9.623 1.009,-9.497 0.829,-9.362L-1.029,-7.876L0.658,-5.762L2.676,-7.369ZM5.848,-3.624C6.044,-3.785 6.215,-3.94 6.36,-4.121C6.506,-4.307 6.606,-4.493 6.672,-4.689C6.737,-4.884 6.752,-5.085 6.707,-5.311C6.667,-5.526 6.551,-5.747 6.36,-5.983C5.999,-6.45 5.592,-6.681 5.181,-6.666C4.754,-6.661 4.343,-6.48 3.906,-6.129L1.737,-4.407L3.725,-1.922L5.848,-3.624Z" style="fill:rgb(35,31,32);fill-rule:nonzero;"/>
        </g>
        <g transform="matrix(0.7052,0.709008,0.709008,-0.7052,254.826,231.217)">
            <rect x="-2.604" y="-6.261" width="11.557" height="2.539" style="fill:rgb(35,31,32);"/>
        </g>
        <g transform="matrix(1,0,0,1,254.327,225.565)">
            <path d="M0,5.491L-1.667,4.15L4.287,-3.223L5.954,-1.883L3.78,0.817L11.104,6.736L9.503,8.714L2.178,2.785L0,5.491Z" style="fill:rgb(35,31,32);fill-rule:nonzero;"/>
        </g>
        <g transform="matrix(0.843102,0.537754,0.537754,-0.843102,264.62,215.858)">
            <rect x="-1.588" y="-5.444" width="11.56" height="2.534" style="fill:rgb(35,31,32);"/>
        </g>
        <g transform="matrix(1,0,0,1,266.962,207.964)">
            <path d="M0,7.575C-0.567,7.028 -0.989,6.415 -1.285,5.748C-1.581,5.075 -1.712,4.347 -1.697,3.574C-1.682,2.806 -1.481,2.018 -1.114,1.22C-0.728,0.402 -0.246,-0.256 0.331,-0.758C0.913,-1.265 1.551,-1.611 2.264,-1.817C2.967,-2.023 3.71,-2.093 4.488,-2.013C5.271,-1.933 6.049,-1.706 6.822,-1.345C7.59,-0.984 8.243,-0.542 8.8,0.01C9.342,0.552 9.764,1.155 10.045,1.828C10.331,2.495 10.461,3.213 10.446,3.981C10.421,4.739 10.226,5.532 9.834,6.35C9.473,7.143 8.996,7.796 8.408,8.313C7.836,8.82 7.199,9.181 6.506,9.392C5.808,9.603 5.07,9.668 4.302,9.593C3.539,9.528 2.771,9.302 2.013,8.951C1.225,8.579 0.547,8.132 0,7.575M4.447,7.093C4.904,7.184 5.361,7.194 5.793,7.133C6.23,7.058 6.636,6.883 7.013,6.621C7.374,6.355 7.685,5.963 7.921,5.442C8.162,4.919 8.273,4.438 8.243,3.986C8.212,3.529 8.082,3.117 7.851,2.726C7.635,2.349 7.329,2.008 6.968,1.722C6.591,1.416 6.184,1.16 5.753,0.969C5.296,0.743 4.824,0.587 4.347,0.487C3.865,0.387 3.409,0.372 2.967,0.437C2.52,0.512 2.113,0.678 1.747,0.944C1.376,1.215 1.069,1.596 0.823,2.118C0.592,2.641 0.477,3.128 0.512,3.579C0.537,4.036 0.668,4.458 0.899,4.844C1.134,5.226 1.445,5.567 1.822,5.868C2.214,6.17 2.63,6.431 3.087,6.647C3.529,6.857 3.981,7.008 4.447,7.093" style="fill:rgb(35,31,32);fill-rule:nonzero;"/>
        </g>
        <g transform="matrix(1,0,0,1,270.321,197.101)">
            <path d="M0,1.376L8.78,-1.144L8.795,-1.174L1.32,-3.287L1.973,-5.587L13.097,-2.424L12.404,0.015L3.655,2.531L3.639,2.565L11.084,4.674L10.431,6.963L-0.693,3.805L0,1.376Z" style="fill:rgb(35,31,32);fill-rule:nonzero;"/>
        </g>
        <g transform="matrix(1,0,0,1,272.988,170.724)">
            <path d="M0,-43.696C-2.49,-54.403 -6.591,-64.459 -12.073,-73.627C-14.417,-81.488 -23.448,-91.862 -36.63,-101.56C-39.687,-103.98 -42.885,-106.247 -46.229,-108.332C-51.133,-111.397 -56.213,-113.97 -61.383,-116.113C-71.519,-120.691 -80.951,-123.234 -87.853,-123.153C-126.883,-128.138 -167.133,-110.644 -189.276,-75.128C-203.946,-51.592 -208.567,-23.747 -202.295,3.265C-199.187,16.669 -193.543,29.043 -185.807,39.926C-184.04,42.681 -181.705,45.588 -178.882,48.555C-176.359,51.396 -173.739,54.157 -170.905,56.712C-166.914,61.094 -162.424,64.965 -157.354,68.127C-152.992,70.838 -148.368,72.977 -143.544,74.568C-138.313,76.932 -132.942,78.83 -127.45,80.271C-123.676,81.39 -120.177,82.123 -117.059,82.429C-104.118,84.442 -90.79,84 -77.653,80.943C-50.641,74.669 -27.685,58.248 -13.012,34.705C1.661,11.171 6.28,-16.674 0,-43.696M-12.575,-65.68C-11.822,-66.868 -11.501,-68.273 -11.495,-69.817C-6.968,-61.617 -3.529,-52.752 -1.361,-43.384C1.812,-29.731 2.153,-15.871 -0.201,-2.477C-1.436,-7.517 -7.214,-14.907 -16.285,-23.541C-14.026,-37.06 -14.272,-50.302 -16.937,-62.408C-15.015,-63.103 -13.508,-64.175 -12.575,-65.68M-117.752,80.873C-120.242,80.466 -122.712,79.974 -125.177,79.372C-127.3,78.805 -129.524,78.102 -131.823,77.264C-122.943,78.488 -113.555,78.037 -103.877,75.793C-103.792,75.773 -103.717,75.743 -103.631,75.723C-103.766,76.426 -103.987,77.083 -104.339,77.655C-106.267,80.742 -111.166,81.697 -117.752,80.873M-104.198,74.433C-116.251,77.228 -127.857,77.249 -138.549,74.568C-140.994,73.499 -143.489,72.304 -146.009,70.974C-135.693,72.42 -123.188,68.439 -110.207,60.161C-106.819,64.368 -104.545,68.368 -103.746,71.787C-103.546,72.671 -103.47,73.474 -103.47,74.242C-103.717,74.307 -103.952,74.382 -104.198,74.433M-181.106,43.856C-181.482,43.389 -181.824,42.948 -182.177,42.486C-182.692,41.828 -183.184,41.14 -183.676,40.447C-186.66,36.196 -188.364,32.321 -188.364,29.253C-188.364,27.978 -188.066,26.834 -187.459,25.845C-187.393,25.739 -187.285,25.664 -187.212,25.563C-185.127,33.641 -181.997,40.955 -177.911,47.435C-178.983,46.291 -180.011,45.157 -180.937,44.057C-180.983,43.987 -181.048,43.921 -181.106,43.856M-33.814,-88.107C-34.763,-92.193 -36.164,-95.75 -37.956,-98.822C-28.322,-89.508 -21.816,-77.234 -18.559,-63.369C-22.108,-62.501 -27.092,-62.842 -32.931,-64.255C-31.967,-73.085 -32.208,-81.189 -33.814,-88.107M-18.262,-62.009C-15.717,-50.372 -15.431,-37.667 -17.485,-24.681C-23.122,-29.952 -29.934,-35.664 -37.639,-41.558C-35.466,-48.911 -33.91,-56.047 -33.076,-62.777C-27.107,-61.356 -22.012,-61.067 -18.262,-62.009M-38.819,-42.466C-45.812,-47.767 -53.497,-53.214 -61.695,-58.633C-59.416,-63.146 -57.322,-67.455 -55.46,-71.511C-47.94,-67.586 -40.751,-64.755 -34.436,-63.11C-35.235,-56.567 -36.725,-49.619 -38.819,-42.466M-136.3,36.336C-139.423,34.394 -142.53,32.632 -145.588,31.025C-143.735,27.015 -141.667,22.733 -139.358,18.17C-135.909,20.433 -132.39,22.702 -128.796,24.946C-125.573,26.964 -122.305,28.932 -119.027,30.865C-122.089,34.936 -125.016,38.676 -127.797,42.089C-130.492,40.126 -133.339,38.189 -136.3,36.336M-128.675,43.179C-142.054,59.473 -151.762,67.766 -154.909,65.803C-158.062,63.84 -154.904,51.492 -146.185,32.315C-143.153,33.892 -140.096,35.619 -137.039,37.521C-134.122,39.343 -131.331,41.241 -128.675,43.179M-108.154,-8.18C-112.326,-10.785 -116.477,-13.265 -120.583,-15.655C-118.345,-19.399 -116.02,-23.23 -113.586,-27.145L-89.686,-12.241C-92.115,-8.351 -94.52,-4.586 -96.894,-0.941C-100.594,-3.396 -104.364,-5.816 -108.154,-8.18M-97.647,0.223C-104.886,11.307 -111.803,21.201 -118.194,29.75C-121.422,27.848 -124.709,25.845 -128.063,23.766C-131.692,21.497 -135.256,19.219 -138.72,16.919C-133.866,7.452 -128.043,-3.11 -121.291,-14.45C-117.205,-12.07 -113.054,-9.601 -108.892,-7C-104.991,-4.581 -101.261,-2.166 -97.647,0.223M-112.853,-28.325C-110.317,-32.381 -107.772,-36.357 -105.238,-40.232C-101.297,-37.602 -97.236,-34.982 -93.069,-32.386C-89.289,-30.032 -85.464,-27.718 -81.624,-25.478C-83.978,-21.508 -86.418,-17.482 -88.943,-13.431L-112.853,-28.325ZM-92.331,-33.571C-96.488,-36.161 -100.544,-38.777 -104.484,-41.392C-97.431,-52.142 -90.464,-62.104 -83.928,-70.823C-80.364,-68.73 -76.785,-66.579 -73.165,-64.328C-69.882,-62.285 -66.674,-60.226 -63.517,-58.153C-68.477,-48.435 -74.35,-37.762 -80.916,-26.663C-84.646,-28.862 -88.446,-31.151 -92.331,-33.571M-105.644,-42.17C-115.121,-48.52 -123.876,-54.873 -131.562,-60.952C-124.77,-69.978 -117.496,-78.105 -110.052,-85.045C-102.14,-81.112 -93.767,-76.576 -85.153,-71.549C-91.648,-62.857 -98.581,-52.94 -105.644,-42.17M-106.407,-41.01C-108.942,-37.125 -111.482,-33.139 -114.032,-29.063L-141.682,-46.291C-138.72,-51 -135.608,-55.518 -132.375,-59.857C-124.669,-53.743 -115.889,-47.37 -106.407,-41.01M-114.77,-27.883C-117.149,-24.058 -119.479,-20.213 -121.778,-16.348C-131.702,-22.085 -141.315,-27.166 -150.226,-31.402C-147.846,-35.975 -145.241,-40.554 -142.425,-45.107L-114.77,-27.883ZM-122.481,-15.163C-128.811,-4.455 -134.729,6.232 -139.825,16.192C-148.223,10.61 -156.064,5.032 -163.132,-0.384C-160.155,-10.002 -156.049,-20.052 -150.848,-30.192C-141.983,-25.955 -132.39,-20.891 -122.481,-15.163M-140.462,17.437C-142.751,21.949 -144.864,26.302 -146.762,30.423C-154.453,26.497 -161.757,23.717 -168.117,22.216C-167.276,15.539 -165.755,8.416 -163.546,1.011C-156.526,6.398 -148.76,11.93 -140.462,17.437M-117.882,31.542C-109.529,36.437 -101.111,41.02 -93.024,45.076C-98.646,50.272 -104.314,54.734 -109.891,58.394C-114.148,53.298 -119.915,47.952 -126.727,42.868C-123.871,39.354 -120.91,35.568 -117.882,31.542M-117.049,30.423C-110.333,21.442 -103.325,11.403 -96.503,0.976C-86.724,7.477 -78.004,13.797 -70.455,19.756C-77.307,28.967 -84.595,37.155 -91.97,44.102C-99.76,40.202 -108.179,35.649 -117.049,30.423M-95.735,-0.168C-93.295,-3.913 -90.88,-7.703 -88.501,-11.508L-60.846,5.715C-63.672,10.228 -66.624,14.54 -69.641,18.661C-77.598,12.416 -86.483,6.011 -95.735,-0.168M-87.758,-12.693C-85.223,-16.769 -82.768,-20.805 -80.409,-24.776C-70.816,-19.209 -61.182,-14.068 -52.081,-9.686C-54.546,-4.917 -57.212,-0.158 -60.123,4.535L-87.758,-12.693ZM-79.711,-25.961C-73.135,-37.075 -67.272,-47.692 -62.332,-57.38C-54.034,-51.896 -46.274,-46.397 -39.23,-41.05C-42.197,-31.241 -46.318,-21.051 -51.474,-10.896C-60.123,-15.048 -69.616,-20.082 -79.711,-25.961M-62.89,-59.408C-66.007,-61.451 -69.179,-63.487 -72.422,-65.515C-76.002,-67.739 -79.551,-69.86 -83.09,-71.94C-80.017,-76.012 -77.055,-79.792 -74.219,-83.255C-71.293,-81.074 -68.18,-78.946 -64.917,-76.91C-62.151,-75.193 -59.421,-73.627 -56.705,-72.171C-58.552,-68.158 -60.615,-63.891 -62.89,-59.408M-84.304,-72.663C-92.818,-77.633 -101.116,-82.133 -108.962,-86.036C-103.254,-91.259 -97.471,-95.795 -91.749,-99.467C-87.637,-94.447 -82,-89.151 -75.349,-84.101C-78.21,-80.602 -81.212,-76.78 -84.304,-72.663M-110.297,-86.689C-119.815,-91.382 -128.61,-95.185 -136.271,-97.931C-125.217,-105.842 -113.164,-111.515 -100.704,-114.404C-100.183,-114.527 -99.645,-114.622 -99.128,-114.738C-99.128,-113.874 -99.053,-112.983 -98.827,-112.027C-98.039,-108.631 -95.86,-104.703 -92.623,-100.569C-98.501,-96.772 -104.444,-92.086 -110.297,-86.689M-111.382,-85.698C-118.741,-78.8 -125.934,-70.731 -132.651,-61.82C-141.682,-69.029 -149.182,-75.808 -154.598,-81.704C-149.312,-87.427 -143.604,-92.542 -137.576,-96.99C-129.925,-94.287 -121.025,-90.449 -111.382,-85.698M-155.542,-82.733C-160.236,-87.992 -163.177,-92.492 -163.965,-95.853C-164.291,-97.301 -164.191,-98.488 -163.639,-99.367C-163.104,-100.243 -162.083,-100.858 -160.642,-101.199C-156.34,-102.19 -148.81,-100.8 -139.187,-97.532C-144.965,-93.203 -150.442,-88.233 -155.542,-82.733M-155.512,-80.74C-150.02,-74.772 -142.5,-67.954 -133.469,-60.733C-136.727,-56.351 -139.874,-51.78 -142.867,-47.029L-168.842,-63.211C-164.814,-69.514 -160.366,-75.397 -155.512,-80.74M-143.604,-45.849C-146.456,-41.241 -149.086,-36.613 -151.486,-31.989C-162.083,-36.974 -171.623,-40.75 -179.439,-43.028C-176.751,-49.454 -173.513,-55.779 -169.695,-61.908C-169.668,-61.951 -169.638,-61.994 -169.61,-62.051L-143.604,-45.849ZM-152.108,-30.775C-157.239,-20.755 -161.315,-10.801 -164.276,-1.263C-173.087,-8.075 -180.649,-14.58 -186.502,-20.414C-185.024,-27.577 -182.838,-34.74 -179.968,-41.788C-172.231,-39.545 -162.728,-35.78 -152.108,-30.775M-187.662,-21.578C-194.456,-28.496 -198.723,-34.364 -199.687,-38.516C-200.018,-39.971 -199.918,-41.146 -199.368,-42.029C-198.823,-42.908 -197.817,-43.52 -196.369,-43.862C-193.081,-44.625 -187.877,-43.962 -181.321,-42.16C-184.075,-35.378 -186.183,-28.491 -187.662,-21.578M-186.821,-18.862C-180.91,-13.034 -173.398,-6.579 -164.691,0.138C-166.98,7.728 -168.538,15.032 -169.384,21.904C-176.947,20.278 -182.968,20.574 -186.472,22.963C-189.521,9.676 -189.574,-4.571 -186.821,-18.862M-172.384,52.807C-178.736,44.921 -183.387,35.357 -186.111,24.399C-183.053,21.969 -177.1,21.739 -169.565,23.4C-171.239,38.545 -169.319,51.396 -163.561,59.97C-166.749,57.626 -169.695,55.221 -172.384,52.807M-159.337,62.972C-167.321,54.995 -170.16,40.89 -168.262,23.701C-162.033,25.202 -154.834,27.948 -147.354,31.728C-154.337,47.069 -158.268,59.147 -157.108,64.458C-157.861,63.966 -158.614,63.469 -159.337,62.972M-152.731,67.179C-147.45,65.879 -138.329,57.019 -127.611,43.947C-120.915,48.931 -115.237,54.172 -111.055,59.132C-125.829,68.544 -139.88,72.224 -150.632,68.439C-151.325,68.037 -152.038,67.601 -152.731,67.179M-102.386,71.461C-103.209,67.906 -105.559,63.76 -109.057,59.408C-103.315,55.638 -97.497,51.07 -91.739,45.724C-82.864,50.136 -74.41,53.886 -66.885,56.707C-77.783,64.82 -89.721,70.688 -102.08,73.881C-102.11,73.112 -102.18,72.314 -102.386,71.461M-90.67,44.745C-83.35,37.827 -76.162,29.715 -69.37,20.609C-60.661,27.536 -53.562,33.932 -48.256,39.494C-53.593,45.543 -59.385,50.974 -65.515,55.693C-72.814,53.038 -81.277,49.388 -90.67,44.745M-68.557,19.53C-65.49,15.363 -62.528,11.001 -59.667,6.448L-35.089,21.773C-35.119,21.819 -35.149,21.874 -35.175,21.934C-38.854,27.823 -42.925,33.31 -47.318,38.394C-52.89,32.597 -60.189,26.156 -68.557,19.53M-58.939,5.273C-56.012,0.534 -53.317,-4.27 -50.837,-9.093C-41.324,-4.566 -32.454,-0.876 -24.849,1.584C-27.434,8.004 -30.606,14.369 -34.371,20.574L-58.939,5.273ZM-50.214,-10.304C-45.114,-20.343 -41.027,-30.424 -38.061,-40.152C-30.25,-34.168 -23.383,-28.405 -17.77,-23.114C-19.111,-15.359 -21.284,-7.517 -24.301,0.238C-31.57,-2.086 -40.325,-5.605 -50.214,-10.304M-16.576,-21.965C-8.042,-13.772 -2.63,-6.78 -1.526,-2.041C-1.189,-0.595 -1.295,0.585 -1.837,1.463C-3.76,4.54 -11.335,4.214 -22.976,0.65C-20.059,-6.86 -17.921,-14.445 -16.576,-21.965M-37.318,-100.32C-27.644,-92.65 -19.543,-83.386 -13.283,-72.94C-13.002,-71.883 -12.821,-70.874 -12.821,-69.955C-12.821,-68.615 -13.127,-67.428 -13.755,-66.413C-14.492,-65.224 -15.717,-64.393 -17.249,-63.806C-20.702,-78.444 -27.72,-91.347 -38.161,-100.945C-37.87,-100.735 -37.594,-100.531 -37.318,-100.32M-45.355,-104.959C-44.492,-104.357 -43.668,-103.719 -42.855,-103.081C-39.246,-99.314 -36.66,-94.209 -35.169,-87.791C-33.603,-81.059 -33.372,-73.185 -34.286,-64.609C-40.506,-66.245 -47.579,-69.022 -54.878,-72.809C-47.84,-88.363 -44.245,-99.982 -45.355,-104.959M-47.664,-106.304C-47.218,-106.023 -46.896,-105.486 -46.725,-104.703C-45.636,-100.07 -49.22,-88.687 -56.127,-73.454C-58.798,-74.88 -61.484,-76.416 -64.18,-78.098C-67.393,-80.095 -70.455,-82.191 -73.336,-84.335C-62.749,-97.178 -54.14,-105.37 -49.511,-106.45C-48.728,-106.631 -48.106,-106.58 -47.664,-106.304M-49.792,-107.805L-49.838,-107.805C-54.757,-106.661 -63.592,-98.338 -74.465,-85.18C-81.001,-90.13 -86.548,-95.301 -90.579,-100.198C-83.436,-104.653 -76.408,-107.833 -69.802,-109.361C-62.879,-110.963 -56.765,-110.76 -51.524,-108.796C-50.937,-108.478 -50.375,-108.136 -49.792,-107.805M-70.113,-110.717C-76.9,-109.138 -84.109,-105.87 -91.447,-101.284C-94.6,-105.29 -96.714,-109.08 -97.471,-112.338C-97.693,-113.302 -97.763,-114.186 -97.733,-115.027C-83.35,-117.83 -69.666,-116.678 -57.503,-111.643C-61.368,-112.072 -65.58,-111.773 -70.113,-110.717M-88.029,-121.771C-79.119,-120.634 -70.274,-118.322 -61.72,-114.753C-61.514,-114.657 -61.303,-114.562 -61.097,-114.462C-72.307,-118.221 -84.651,-118.939 -97.547,-116.49C-97.386,-117.107 -97.19,-117.7 -96.864,-118.206C-95.925,-119.727 -94.229,-120.779 -91.869,-121.336C-90.71,-121.605 -89.425,-121.743 -88.029,-121.771M-93.375,-122.323C-95.489,-121.612 -97.085,-120.495 -98.054,-118.939C-98.561,-118.113 -98.872,-117.185 -99.038,-116.179C-99.691,-116.04 -100.358,-115.917 -101.026,-115.759C-113.947,-112.76 -126.442,-106.811 -137.852,-98.503C-148.238,-102.097 -156.34,-103.618 -160.953,-102.552C-161.837,-102.344 -162.59,-102.045 -163.22,-101.656C-143.213,-116.873 -118.234,-124.17 -93.375,-122.323M-163.496,-101.46C-164.046,-101.076 -164.495,-100.634 -164.821,-100.105C-165.582,-98.902 -165.742,-97.366 -165.313,-95.534C-164.495,-92.005 -161.38,-87.276 -156.455,-81.777C-161.38,-76.33 -165.928,-70.354 -170.022,-63.949L-187.704,-74.968C-181.076,-85.456 -172.825,-94.316 -163.496,-101.46M-200.939,2.949C-207.076,-23.471 -202.626,-50.694 -188.442,-73.788L-170.782,-62.784C-170.827,-62.734 -170.855,-62.681 -170.885,-62.639C-174.768,-56.401 -178.063,-49.956 -180.795,-43.405C-187.72,-45.312 -193.211,-46.02 -196.673,-45.217C-198.497,-44.79 -199.802,-43.962 -200.555,-42.767C-201.032,-41.994 -201.266,-41.095 -201.266,-40.062C-201.266,-39.479 -201.2,-38.862 -201.047,-38.214C-200.018,-33.767 -195.37,-27.442 -188.008,-20.037C-190.993,-5.178 -190.993,9.686 -187.777,23.501C-187.747,23.651 -187.704,23.786 -187.662,23.932C-188.023,24.304 -188.372,24.68 -188.645,25.117C-189.777,26.924 -189.978,29.183 -189.444,31.743C-194.652,22.888 -198.555,13.225 -200.939,2.949M-77.974,79.588C-88.114,81.952 -98.37,82.68 -108.47,81.962C-106.096,81.3 -104.254,80.13 -103.169,78.393C-102.602,77.479 -102.256,76.46 -102.12,75.321C-89.164,72.048 -76.654,65.879 -65.309,57.28C-53.838,61.441 -44.687,63.303 -39.727,61.818C-50.952,70.231 -63.893,76.32 -77.974,79.588M-37.569,58.801C-39.768,62.319 -49.351,61.391 -63.984,56.24C-58.06,51.627 -52.458,46.361 -47.303,40.508C-39.19,49.223 -35.667,55.759 -37.569,58.801M-36.153,59.017C-34.261,54.925 -38.362,47.902 -46.354,39.414C-41.886,34.233 -37.725,28.656 -33.99,22.667L-33.995,22.667C-33.959,22.617 -33.93,22.567 -33.899,22.506L-14.573,34.544C-20.516,43.941 -27.8,52.154 -36.153,59.017M-33.191,21.312C-29.361,15.007 -26.134,8.531 -23.513,2C-12.59,5.399 -4.493,6.142 -1.345,3.034C-3.81,13.616 -7.997,23.842 -13.845,33.365L-33.191,21.312Z" style="fill:rgb(35,31,32);fill-rule:nonzero;"/>
        </g>
        <g transform="matrix(1,0,0,1,208.156,66.9027)">
            <path d="M0,10.303C0,10.303 -19.141,-1.245 -35.571,-2.498C-45.596,-3.273 -86.408,4.769 -91.412,7.454C-96.417,10.127 -54.531,1.32 -35.204,7.454C-31.379,8.679 -6.225,13.576 -4.433,13.576C0.693,13.576 0,10.303 0,10.303" style="fill:rgb(35,31,32);fill-rule:nonzero;"/>
        </g>
        <g transform="matrix(1,0,0,1,198.362,80.7667)">
            <path d="M0,8.138C0,8.138 -12.535,0.089 -23.267,-1.824C-30.169,-3.054 -72.713,-2.228 -93.795,4.298C-97.286,5.392 -59.069,1.617 -42.955,5.081C-32.223,7.37 -4.663,11.192 -2.505,10.435C-0.346,9.651 0,8.138 0,8.138" style="fill:rgb(35,31,32);fill-rule:nonzero;"/>
        </g>
        <g transform="matrix(1,0,0,1,183.875,117.779)">
            <path d="M0,-14.337C0,-14.337 -14.287,-20.735 -25.23,-20.336C-32.273,-20.082 -73.442,-8.637 -92.246,4.25C-95.383,6.398 -59.17,-7.455 -42.604,-7.362C-31.54,-7.296 -3.725,-9.57 -1.833,-11.003C0.055,-12.439 0,-14.337 0,-14.337" style="fill:rgb(35,31,32);fill-rule:nonzero;"/>
        </g>
        <g transform="matrix(1,0,0,1,173.639,162.546)">
            <path d="M0,-42.415C0,-42.415 -21.234,-46.188 -31.489,-42.254C-50.57,-34.935 -71.666,-20.608 -91.616,0.997C-94.186,3.773 -56.182,-16.989 -39.717,-24.268C-29.587,-28.746 -2.676,-37.315 -1.155,-39.117C0.377,-40.899 0,-42.415 0,-42.415" style="fill:rgb(35,31,32);fill-rule:nonzero;"/>
        </g>
        <g transform="matrix(1,0,0,1,178.077,216.152)">
            <path d="M0,-101.909C0,-101.909 11.752,-91.824 16.621,-81.227C19.759,-74.405 30.315,-29.05 29.171,-4.146C28.99,0 22.645,-41.971 14.739,-57.648C9.462,-68.1 -1.928,-95.774 -1.701,-98.337C-1.491,-100.915 0,-101.909 0,-101.909" style="fill:rgb(35,31,32);fill-rule:nonzero;"/>
        </g>
        <g transform="matrix(1,0,0,1,208.156,182.902)">
            <path d="M0,-98.829C0,-98.829 11.054,-90.813 16.024,-80.198C19.211,-73.383 30.18,-28.014 29.251,-3.115C29.09,1.037 22.384,-40.934 14.342,-56.622C8.965,-67.073 -2.646,-94.715 -2.45,-97.303C-2.259,-99.866 0,-98.829 0,-98.829" style="fill:rgb(35,31,32);fill-rule:nonzero;"/>
        </g>
        <g transform="matrix(1,0,0,1,231.785,170.704)">
            <path d="M0,-104.678C0,-104.678 8.564,-93.225 11.169,-81.692C12.836,-74.275 13.9,-27.457 7.72,-3.406C6.702,0.6 9.056,-41.899 4.528,-59.128C1.516,-70.603 -3.956,-100.353 -3.218,-102.816C-2.475,-105.278 0,-104.678 0,-104.678" style="fill:rgb(35,31,32);fill-rule:nonzero;"/>
        </g>
        <g transform="matrix(1,0,0,1,196.495,199.777)">
            <path d="M0,-105.122C0,-105.122 10.517,-93.539 14.181,-82.354C16.541,-75.154 22.017,-28.674 18.152,-4.091C17.499,0 15.833,-42.539 9.719,-59.18C5.632,-70.269 -2.61,-99.289 -2.103,-101.819C-1.611,-104.347 0,-105.122 0,-105.122" style="fill:rgb(35,31,32);fill-rule:nonzero;"/>
        </g>
        <g transform="matrix(1,0,0,1,163.389,233.827)">
            <path d="M0,-94.841C0,-94.841 8.865,-81.995 14.704,-71.91C18.474,-65.449 28.889,-34.316 33.378,-4.091C33.99,0 22.841,-32.489 13.488,-47.318C7.259,-57.207 -3.122,-87.522 -3.142,-90.123C-3.158,-92.708 0,-94.841 0,-94.841" style="fill:rgb(35,31,32);fill-rule:nonzero;"/>
        </g>
        <g transform="matrix(1,0,0,1,157.681,251.713)">
            <path d="M0,-103.44C0,-103.44 5.1,-88.235 4.101,-76.423C3.458,-68.817 -9.563,-24.1 -22.615,-3.444C-24.788,0 -9.824,-39.451 -8.941,-57.307C-8.363,-69.224 -4.624,-99.263 -3.188,-101.357C-1.742,-103.425 0,-103.44 0,-103.44" style="fill:rgb(35,31,32);fill-rule:nonzero;"/>
        </g>
        <g transform="matrix(1,0,0,1,151.467,247.576)">
            <path d="M0,-97.055C0,-97.055 -9.87,-71.92 -13.68,-63.507C-16.099,-58.101 -24.126,-22.489 -22.997,-3.213C-22.816,0 -18.127,-32.8 -11.963,-45.305C-7.856,-53.623 1.28,-76.694 1.069,-78.677C0.868,-80.665 0,-97.055 0,-97.055" style="fill:rgb(35,31,32);fill-rule:nonzero;"/>
        </g>
        <g transform="matrix(1,0,0,1,153.987,226.93)">
            <path d="M0,-74.069C0,-74.069 0.186,-60.485 -3.76,-51.419C-6.32,-45.596 -28.96,-14.016 -45.262,-1.566C-47.963,0.522 -25.094,-26.295 -19.648,-40.185C-16.018,-49.447 -4.939,-72.167 -3.202,-73.386C-1.466,-74.591 0,-74.069 0,-74.069" style="fill:rgb(35,31,32);fill-rule:nonzero;"/>
        </g>
        <g transform="matrix(1,0,0,1,158.359,216.609)">
            <path d="M0,-78.04C0,-78.04 -18.383,-58.583 -25.25,-52.79C-29.653,-49.065 -51.444,-20.823 -58.341,-2.977C-59.493,0 -41.826,-27.288 -31.184,-35.627C-24.09,-41.169 -11.094,-54.286 -10.457,-56.188C-9.819,-58.045 0,-78.04 0,-78.04" style="fill:rgb(35,31,32);fill-rule:nonzero;"/>
        </g>
        <g transform="matrix(1,0,0,1,228.351,169.58)">
            <path d="M0,-106.212C-1.797,-106.987 -31.43,-89.102 -64.355,-39.726C-69.295,-32.336 -89.405,0.775 -85.835,0.077C-83.597,-0.334 -57.051,-47.421 -36.801,-67.666C-14.603,-89.87 3.564,-103.504 3.564,-103.504L0,-106.212Z" style="fill:rgb(35,31,32);fill-rule:nonzero;"/>
        </g>
        <g transform="matrix(1,0,0,1,53.9304,152.701)">
            <path d="M0,-7.651L1.59,-7.651C7.035,-7.651 10.718,-8.223 12.64,-9.371C14.559,-10.516 15.518,-12.465 15.518,-15.217C15.518,-17.54 14.696,-19.236 13.048,-20.312C11.4,-21.388 8.813,-21.926 5.287,-21.926L2.279,-21.926L0,-7.651ZM-22.358,27.645L-12.339,-35.296L4.944,-35.296C9.731,-35.296 13.325,-35.1 15.734,-34.713C18.143,-34.326 20.233,-33.675 22.012,-32.757C25.222,-31.126 27.621,-28.888 29.211,-26.051C30.804,-23.214 31.599,-19.818 31.599,-15.861C31.599,-11.934 30.746,-8.295 29.039,-4.944C27.336,-1.59 25.02,0.991 22.097,2.796C20.377,3.855 18.342,4.609 15.991,5.054C13.641,5.496 9.957,5.719 4.944,5.719L-2.107,5.719L-5.633,27.645L-22.358,27.645Z" style="fill:white;fill-rule:nonzero;stroke:rgb(35,31,32);stroke-width:1px;"/>
        </g>
        <g transform="matrix(0.156513,-0.987676,-0.987676,-0.156513,131.061,167.197)">
            <path d="M-19.642,39.941L44.084,39.941L46.769,23L-16.957,23L-19.642,39.941Z" style="fill:white;fill-rule:nonzero;stroke:rgb(35,31,32);stroke-width:1px;"/>
        </g>
        <g transform="matrix(1,0,0,1,141.805,152.701)">
            <path d="M0,-7.651L1.59,-7.651C7.035,-7.651 10.718,-8.223 12.64,-9.371C14.559,-10.516 15.518,-12.465 15.518,-15.217C15.518,-17.54 14.696,-19.236 13.048,-20.312C11.4,-21.388 8.813,-21.926 5.287,-21.926L2.279,-21.926L0,-7.651ZM-22.358,27.645L-12.339,-35.296L4.944,-35.296C9.731,-35.296 13.325,-35.1 15.734,-34.713C18.143,-34.326 20.233,-33.675 22.012,-32.757C25.222,-31.126 27.621,-28.888 29.211,-26.051C30.804,-23.214 31.599,-19.818 31.599,-15.861C31.599,-11.934 30.746,-8.295 29.039,-4.944C27.336,-1.59 25.02,0.991 22.097,2.796C20.377,3.855 18.342,4.609 15.991,5.054C13.641,5.496 9.957,5.719 4.944,5.719L-2.107,5.719L-5.633,27.645L-22.358,27.645Z" style="fill:white;fill-rule:nonzero;stroke:rgb(35,31,32);stroke-width:1px;"/>
        </g>
        <g transform="matrix(1,0,0,1,213.726,166.63)">
            <path d="M0,-35.251C-5.129,-35.251 -9.43,-33.401 -12.897,-29.704C-16.365,-26.006 -18.099,-21.422 -18.099,-15.946C-18.099,-11.105 -16.714,-7.233 -13.949,-4.341C-11.184,-1.446 -7.494,0.004 -2.878,0.004C2.166,0.004 6.449,-1.912 9.974,-5.736C13.5,-9.563 15.265,-14.23 15.265,-19.733C15.265,-24.259 13.829,-27.977 10.965,-30.886C8.097,-33.795 4.444,-35.251 0,-35.251M-3.868,15.392C-8.367,15.392 -12.459,14.775 -16.142,13.545C-19.825,12.312 -23.101,10.465 -25.966,7.998C-28.974,5.363 -31.325,2.108 -33.017,-1.761C-34.707,-5.629 -35.553,-9.741 -35.553,-14.099C-35.553,-18.801 -34.83,-23.193 -33.381,-27.274C-31.935,-31.359 -29.776,-35.063 -26.911,-38.39C-23.557,-42.344 -19.466,-45.376 -14.638,-47.483C-9.807,-49.587 -4.571,-50.643 1.076,-50.643C10.533,-50.643 18.181,-47.919 24.013,-42.474C29.844,-37.026 32.76,-29.947 32.76,-21.237C32.76,-16.563 32.024,-12.17 30.547,-8.059C29.07,-3.947 26.915,-0.239 24.078,3.053C20.61,7.097 16.509,10.163 11.78,12.253C7.052,14.347 1.837,15.392 -3.868,15.392" style="fill:white;fill-rule:nonzero;"/>
        </g>
        <g transform="matrix(1,0,0,1,213.726,166.63)">
            <path d="M0,-35.251C-5.129,-35.251 -9.43,-33.401 -12.897,-29.704C-16.365,-26.006 -18.099,-21.422 -18.099,-15.946C-18.099,-11.105 -16.714,-7.233 -13.949,-4.341C-11.184,-1.446 -7.494,0.004 -2.878,0.004C2.166,0.004 6.449,-1.912 9.974,-5.736C13.5,-9.563 15.265,-14.23 15.265,-19.733C15.265,-24.259 13.829,-27.977 10.965,-30.886C8.097,-33.795 4.444,-35.251 0,-35.251ZM-3.868,15.392C-8.367,15.392 -12.459,14.775 -16.142,13.545C-19.825,12.312 -23.101,10.465 -25.966,7.998C-28.974,5.363 -31.325,2.108 -33.017,-1.761C-34.707,-5.629 -35.553,-9.741 -35.553,-14.099C-35.553,-18.801 -34.83,-23.193 -33.381,-27.274C-31.935,-31.359 -29.776,-35.063 -26.911,-38.39C-23.557,-42.344 -19.466,-45.376 -14.638,-47.483C-9.807,-49.587 -4.571,-50.643 1.076,-50.643C10.533,-50.643 18.181,-47.919 24.013,-42.474C29.844,-37.026 32.76,-29.947 32.76,-21.237C32.76,-16.563 32.024,-12.17 30.547,-8.059C29.07,-3.947 26.915,-0.239 24.078,3.053C20.61,7.097 16.509,10.163 11.78,12.253C7.052,14.347 1.837,15.392 -3.868,15.392Z" style="fill:none;fill-rule:nonzero;stroke:rgb(35,31,32);stroke-width:1px;"/>
        </g>
        <g transform="matrix(1,0,0,1,308.656,177.464)">
            <path d="M0,-57.091L-2.837,-39.722C-5.246,-41.812 -7.867,-43.399 -10.704,-44.471C-13.541,-45.547 -16.495,-46.085 -19.562,-46.085C-24.78,-46.085 -29.077,-44.266 -32.459,-40.623C-35.841,-36.985 -37.533,-32.342 -37.533,-26.695C-37.533,-21.593 -36.115,-17.646 -33.278,-14.853C-30.437,-12.057 -26.425,-10.659 -21.237,-10.659C-19.003,-10.659 -16.704,-10.933 -14.34,-11.478C-11.972,-12.019 -9.488,-12.838 -6.88,-13.928L-9.502,2.365C-11.65,3.054 -14.024,3.578 -16.618,3.934C-19.212,4.294 -22.012,4.472 -25.02,4.472C-33.994,4.472 -41.179,1.693 -46.583,-3.868C-51.986,-9.429 -54.686,-16.806 -54.686,-26.01C-54.686,-30.45 -53.991,-34.685 -52.599,-38.711C-51.212,-42.738 -49.17,-46.4 -46.473,-49.697C-43.321,-53.538 -39.387,-56.474 -34.672,-58.51C-29.957,-60.545 -24.677,-61.563 -18.832,-61.563C-15.508,-61.563 -12.28,-61.189 -9.159,-60.445C-6.034,-59.699 -2.981,-58.582 0,-57.091Z" style="fill:white;fill-rule:nonzero;stroke:rgb(35,31,32);stroke-width:1px;"/>
        </g>
        <g transform="matrix(1,0,0,1,23.1311,83.9489)">
            <path d="M0,2.687C-2.437,9.412 -1.052,15.445 -0.159,16.86C-2.655,12.111 1.411,-9.134 28.776,-9.725C25.983,-11.632 22.569,-13.159 18.738,-14.173C14.114,-12.417 10.51,-10.288 7.713,-7.974C4.918,-10.283 1.32,-12.41 -3.295,-14.165C-7.114,-13.152 -10.52,-11.628 -13.302,-9.728C-5.818,-9.731 0.118,-7.848 4.647,-5.032C3.43,-3.664 2.439,-2.265 1.643,-0.864C-3.685,-3.206 -10.693,-4.408 -19.408,-3.357C-20.509,-1.399 -21.112,0.712 -21.112,2.915C-21.112,3.536 -21.063,4.148 -20.971,4.753C-12.251,1.741 -5.288,1.471 0,2.687" style="fill:rgb(35,31,32);"/>
        </g>
        <g transform="matrix(1,0,0,1,30.8669,68.3836)">
            <path d="M0,3.597C0,3.597 1.595,1.541 3.58,0.141C2.408,0.048 1.211,0 0,0C-1.211,0 -2.406,0.048 -3.579,0.141C-1.593,1.541 0,3.597 0,3.597" style="fill:rgb(35,31,32);"/>
        </g>
        <g transform="matrix(1,0,0,1,30.8651,78.9121)">
            <path d="M0,25.479C-6.693,25.154 -6.923,16.579 0,11.237C6.923,16.579 6.693,25.154 0,25.479M28.706,9.799C28.706,6.774 25.188,1.502 25.076,1.492C-7.324,-0.935 -13.385,26.414 0,26.193C8.051,25.876 8.83,16.911 2.144,9.83C3.121,9.283 4.199,8.796 5.378,8.388C8.509,13.453 9.223,18.773 7.872,21.897C8.764,20.482 10.15,14.449 7.712,7.724C13.004,6.506 19.976,6.778 28.706,9.799" style="fill:rgb(35,31,32);"/>
        </g>
        <g transform="matrix(1,0,0,1,20.4653,111.358)">
            <path d="M0,-3.313L0.848,-3.313L1.521,-1.542L2.231,-3.313L3.089,-3.313L3.587,0L2.728,0L2.486,-1.907L2.477,-1.907L1.682,0L1.341,0L0.581,-1.907L0.572,-1.907L0.294,0L-0.561,0L0,-3.313Z" style="fill:rgb(35,31,32);fill-rule:nonzero;"/>
        </g>
        <g transform="matrix(1,0,0,1,27.1409,108.045)">
            <path d="M0,3.313L0.861,3.313L0.861,2.216L1.348,2.216C2.098,2.216 2.52,1.872 2.52,1.091C2.52,0.331 2.028,0 1.316,0L0,0L0,3.313ZM0.861,0.695L1.004,0.695C1.338,0.695 1.624,0.7 1.624,1.117C1.624,1.522 1.316,1.522 1.004,1.522L0.861,1.522L0.861,0.695Z" style="fill:rgb(35,31,32);fill-rule:nonzero;"/>
        </g>
        <g transform="matrix(1,0,0,1,34.429,111.466)">
            <path d="M0,-3.53C-0.951,-3.53 -1.83,-2.826 -1.83,-1.826C-1.83,-0.754 -1.062,0 0,0C1.062,0 1.831,-0.754 1.831,-1.826C1.831,-2.826 0.953,-3.53 0,-3.53M0,-2.695C0.514,-2.695 0.936,-2.279 0.936,-1.822C0.936,-1.25 0.514,-0.835 0,-0.835C-0.513,-0.835 -0.935,-1.25 -0.935,-1.822C-0.935,-2.279 -0.513,-2.695 0,-2.695" style="fill:rgb(35,31,32);fill-rule:nonzero;"/>
        </g>
        <g transform="matrix(1,0,0,1,40.2434,110.699)">
            <path d="M0,-1.995L0.061,-1.995C0.292,-1.995 0.562,-1.977 0.562,-1.673C0.562,-1.393 0.325,-1.353 0.096,-1.353L0,-1.353L0,-1.995ZM0.466,0.659C1.071,0.659 1.662,0.43 1.662,-0.265C1.662,-0.726 1.462,-1.046 0.988,-1.107L0.988,-1.115C1.255,-1.252 1.35,-1.494 1.35,-1.793C1.35,-2.424 0.955,-2.654 0.369,-2.654L-0.862,-2.654L-0.862,0.659L0.466,0.659ZM0,-0.712L0.086,-0.712C0.369,-0.712 0.795,-0.752 0.795,-0.352C0.795,0.013 0.364,0.001 0.11,0.001L0,0.001L0,-0.712Z" style="fill:rgb(35,31,32);fill-rule:nonzero;"/>
        </g>
        <g transform="matrix(1,0,0,1,56.8635,101.394)">
            <path d="M0,-22.678C-29.078,-24.958 -38.401,-3.575 -30.562,3.009C-38.065,-0.199 -34.623,-24.619 -4.82,-25.664C-4.168,-25.687 -1.54,-24.787 0,-22.678" style="fill:rgb(35,31,32);"/>
        </g>
    </g>
</svg>
