<?xml version="1.0" encoding="UTF-8" standalone="no"?>
<!DOCTYPE svg PUBLIC "-//W3C//DTD SVG 1.1//EN" "http://www.w3.org/Graphics/SVG/1.1/DTD/svg11.dtd">
<svg width="100%" height="100%" viewBox="0 0 389 291" version="1.1" xmlns="http://www.w3.org/2000/svg" xmlns:xlink="http://www.w3.org/1999/xlink" xml:space="preserve" xmlns:serif="http://www.serif.com/" style="fill-rule:evenodd;clip-rule:evenodd;stroke-linejoin:round;stroke-miterlimit:2;">
    <g transform="matrix(1,0,0,1,-112.564,-269.091)">
        <path d="M255.015,392.249C238.57,437.596 247.928,478.321 253.95,487.854C237.098,455.827 264.545,312.485 449.175,308.486C430.346,295.619 407.288,285.325 381.438,278.505C350.249,290.349 325.931,304.714 307.053,320.302C288.206,304.741 263.918,290.374 232.79,278.534C207.015,285.393 184.043,295.669 165.255,308.486C215.755,308.462 255.818,321.153 286.367,340.161C278.154,349.377 271.479,358.816 266.094,368.285C230.154,352.485 182.87,344.381 124.086,351.464C116.641,364.664 112.565,378.92 112.565,393.799C112.565,397.942 112.888,402.079 113.533,406.171C172.353,385.863 219.336,384.036 255.016,392.25M307.198,293.379C307.198,293.379 317.969,279.487 331.365,270.043C323.325,269.411 315.263,269.094 307.198,269.091C299.148,269.094 291.101,269.412 283.075,270.043C296.46,279.487 307.198,293.379 307.198,293.379M307.198,512.01C262.054,509.841 260.495,451.969 307.198,415.962C353.921,451.969 352.35,509.841 307.198,512.01M500.885,406.241C500.885,385.842 477.17,350.278 476.393,350.218C257.786,333.834 216.886,518.343 307.198,516.854C361.525,514.719 366.773,454.21 321.655,406.465C328.26,402.744 335.518,399.464 343.486,396.722C364.607,430.89 369.433,466.786 360.303,487.854C366.324,478.319 375.679,437.603 359.238,392.249C394.947,384.036 441.981,385.862 500.885,406.241" style="fill:white;"/>
    </g>
    <g transform="matrix(1,0,0,1,-112.564,-269.091)">
        <path d="M237.027,536.687L242.759,536.687L247.283,548.659L252.08,536.687L257.868,536.687L261.249,559.03L255.436,559.03L253.799,546.182L253.739,546.182L248.39,559.03L246.082,559.03L240.943,546.182L240.882,546.182L239.025,559.03L233.244,559.03L237.028,536.687L237.027,536.687ZM282.059,559.034L287.872,559.034L287.872,551.646L291.18,551.646C296.215,551.646 299.075,549.339 299.075,544.038C299.075,538.925 295.762,536.693 290.966,536.693L282.059,536.693L282.059,559.034ZM287.872,541.367L288.86,541.367C291.115,541.367 293.032,541.406 293.032,544.223C293.032,546.966 290.965,546.966 288.86,546.966L287.872,546.966L287.872,541.367ZM331.248,535.934C324.817,535.934 318.892,540.701 318.892,547.462C318.892,554.673 324.068,559.779 331.248,559.779C338.417,559.779 343.584,554.672 343.584,547.462C343.584,540.701 337.683,535.934 331.248,535.934M331.248,541.595C334.711,541.595 337.572,544.416 337.572,547.491C337.572,551.354 334.711,554.135 331.248,554.135C327.775,554.135 324.943,551.354 324.943,547.491C324.943,544.416 327.775,541.595 331.248,541.595M370.464,541.132L370.883,541.132C372.455,541.132 374.259,541.255 374.259,543.317C374.259,545.205 372.659,545.477 371.127,545.477L370.464,545.477L370.464,541.132ZM373.607,559.039C377.703,559.039 381.711,557.487 381.711,552.799C381.711,549.69 380.344,547.554 377.139,547.131L377.139,547.072C378.948,546.159 379.6,544.523 379.6,542.499C379.6,538.239 376.915,536.682 372.955,536.682L364.676,536.682L364.676,559.039L373.607,559.039ZM370.464,549.812L371.068,549.812C372.955,549.812 375.835,549.544 375.835,552.209C375.835,554.665 372.926,554.577 371.214,554.577L370.465,554.577L370.465,549.812L370.464,549.812Z" style="fill:white;fill-rule:nonzero;"/>
    </g>
    <g transform="matrix(1,0,0,1,-112.564,-269.091)">
        <path d="M482.618,338.823C286.431,323.406 223.523,467.672 276.418,512.112C225.775,490.451 249.022,325.687 450.094,318.669C454.521,318.48 472.247,324.572 482.618,338.822" style="fill:white;"/>
    </g>
</svg>
