<svg version="1.1" id="Layer_1" xmlns="http://www.w3.org/2000/svg" x="0" y="0" viewBox="0 0 413.6 313.9" style="enable-background:new 0 0 413.6 313.9" xml:space="preserve"><style>.st1{fill:#00ac98}.st2{fill:#292526}</style><path d="M168.7 246.7c-31.5-18.4-32.3-90 29.1-134.2C259.2 68.3 334.4 72 334.4 72c15.1 4.9 24.1 17.6 24.1 17.6s-97.8-10.2-157.1 36.8c-59.3 47.1-57.7 93.7-32.7 119.1v1.2" style="fill:#e8a642"/><path class="st1" d="M160.8 147.4c50.7-92.2 165.8-84.6 165.8-84.6C293.4 42.7 267.2 35 267.2 35c-34.9 10.9-70.4 38.2-70.4 38.2-37.6-29.5-68.2-37.6-68.2-37.6-38.9 9.8-59.5 25.6-59.5 25.6 78 2.2 109.1 31.6 109.1 31.6-8.2 6-19.1 24-19.1 24C107.4 93.4 29.3 99.9 29.3 99.9c-14.7 26.2-11.2 52-11.2 52 73.9-31.5 131.8-13.2 131.8-13.2-19.6 48.6-1.1 86.2-1.1 86.2-15.8-34.9 12-77.5 12-77.5"/><path class="st1" d="M196.8 48.7s18.9-21.3 23.6-22.9c0 0-36.7-1.9-45.8 0 0-.1 16.2 10.9 22.2 22.9M229.7 220.5s-4.5 31.1-38.9 26.2c0 0-28.2-3.3-25.4-37.2 0 0 2.5-29.9 31.5-49.9.1-.1 33.2 15.9 32.8 60.9M354 99.9s-121.7-14.8-177.9 60.6c-23.9 32-23.7 59.3-13.3 74.5 11.9 17.4 37.1 20 52.6 13.3 0 0 27.8-12.3 22.1-47.1-2.3-14.1-6.1-28.2-26.6-50.7 0 0 12.3-9 19.2-7.8 0 0 31.1 36.4 17.2 79 0 0 16.4-29-1.6-83.9 0 0 59.7-16.4 129.7 13.1 0 .1 1.3-18.1-21.4-51z"/><path class="st2" d="M159.3 267.7h3.8l2.9 7.8 3.1-7.8h3.8l2.2 14.5h-3.8l-1.1-8.3-3.5 8.3h-1.5l-3.3-8.3h-.1l-1.2 8.3h-3.7l2.4-14.5M188 282.2h3.8v-4.8h2.1c3.3 0 5.1-1.5 5.1-4.9 0-3.3-2.1-4.8-5.3-4.8H188v14.5m3.8-11.4h.6c1.5 0 2.7 0 2.7 1.8s-1.4 1.8-2.7 1.8h-.6v-3.6zM219.4 267.3c-4.2 0-8 3.1-8 7.4 0 4.7 3.4 8 8 8 4.7 0 8-3.3 8-8 0-4.3-3.8-7.4-8-7.4m0 3.6c2.3 0 4.1 1.8 4.1 3.8 0 2.5-1.8 4.3-4.1 4.3-2.2 0-4.1-1.8-4.1-4.3 0-2 1.9-3.8 4.1-3.8zM244.3 270.6h.3c1 0 2.2.1 2.2 1.4 0 1.2-1 1.4-2 1.4h-.4v-2.8m2 11.6c2.7 0 5.3-1 5.3-4 0-2-.9-3.4-3-3.7 1.2-.6 1.6-1.6 1.6-2.9 0-2.8-1.7-3.8-4.3-3.8h-5.4v14.5h5.8zm-2.1-6h.4c1.2 0 3.1-.2 3.1 1.6 0 1.6-1.9 1.5-3 1.5h-.5v-3.1z"/></svg>