<svg xmlns="http://www.w3.org/2000/svg" viewBox="112.564 269.091 388.32 290.688"><path d="M255.015 392.249c-16.445 45.347-7.087 86.072-1.065 95.605-16.852-32.027 10.595-175.369 195.225-179.368-18.829-12.867-41.887-23.161-67.737-29.981-31.189 11.844-55.507 26.209-74.385 41.797-18.847-15.561-43.135-29.928-74.263-41.768-25.775 6.859-48.747 17.135-67.535 29.952 50.5-.024 90.563 12.667 121.112 31.675-8.213 9.216-14.888 18.655-20.273 28.124-35.94-15.8-83.224-23.904-142.008-16.821-7.445 13.2-11.521 27.456-11.521 42.335a79.46 79.46 0 0 0 .968 12.372c58.82-20.308 105.803-22.135 141.483-13.921m52.182-98.871s10.771-13.892 24.167-23.336a309.763 309.763 0 0 0-24.167-.952 309.31 309.31 0 0 0-24.123.952c13.385 9.444 24.123 23.336 24.123 23.336m0 218.631c-45.144-2.169-46.703-60.041 0-96.048 46.723 36.007 45.152 93.879 0 96.048m193.687-105.769c0-20.399-23.715-55.963-24.492-56.023-218.607-16.384-259.507 168.125-169.195 166.636 54.327-2.135 59.575-62.644 14.457-110.389 6.605-3.721 13.863-7.001 21.831-9.743 21.121 34.168 25.947 70.064 16.817 91.132 6.021-9.535 15.376-50.251-1.065-95.605 35.709-8.213 82.743-6.387 141.647 13.992" fill="#48A090" fill-rule="evenodd"/><path d="M237.027 536.687h5.732l4.524 11.972 4.797-11.972h5.788l3.381 22.343h-5.813l-1.637-12.848h-.06l-5.349 12.848h-2.308l-5.139-12.848h-.061l-1.857 12.848h-5.781l3.784-22.343zm45.032 22.347h5.813v-7.388h3.308c5.035 0 7.895-2.307 7.895-7.608 0-5.113-3.313-7.345-8.109-7.345h-8.907v22.341zm5.813-17.667h.988c2.255 0 4.172.039 4.172 2.856 0 2.743-2.067 2.743-4.172 2.743h-.988v-5.599zm43.376-5.433c-6.431 0-12.356 4.767-12.356 11.528 0 7.211 5.176 12.317 12.356 12.317 7.169 0 12.336-5.107 12.336-12.317 0-6.761-5.901-11.528-12.336-11.528m0 5.661c3.463 0 6.324 2.821 6.324 5.896 0 3.863-2.861 6.644-6.324 6.644-3.473 0-6.305-2.781-6.305-6.644 0-3.075 2.832-5.896 6.305-5.896m39.216-.463h.419c1.572 0 3.376.123 3.376 2.185 0 1.888-1.6 2.16-3.132 2.16h-.663v-4.345zm3.143 17.907c4.096 0 8.104-1.552 8.104-6.24 0-3.109-1.367-5.245-4.572-5.668v-.059c1.809-.913 2.461-2.549 2.461-4.573 0-4.26-2.685-5.817-6.645-5.817h-8.279v22.357h8.931zm-3.143-9.227h.604c1.887 0 4.767-.268 4.767 2.397 0 2.456-2.909 2.368-4.621 2.368h-.749v-4.765z" fill="#151318"/><path d="M482.618 338.823c-196.187-15.417-259.095 128.849-206.2 173.289-50.643-21.661-27.396-186.425 173.676-193.443 4.427-.189 22.153 5.903 32.524 20.153" fill="#E7BA3F" fill-rule="evenodd"/></svg>