<?xml version="1.0" standalone="no"?>
<!DOCTYPE svg PUBLIC "-//W3C//DTD SVG 20010904//EN"
 "http://www.w3.org/TR/2001/REC-SVG-20010904/DTD/svg10.dtd">
<svg version="1.0" xmlns="http://www.w3.org/2000/svg"
 width="776.000000pt" height="776.000000pt" viewBox="0 0 776.000000 776.000000"
 preserveAspectRatio="xMidYMid meet">
<metadata>
Created by potrace 1.14, written by Peter Selinger 2001-2017
</metadata>
<g transform="translate(0.000000,776.000000) scale(0.100000,-0.100000)"
fill="#000000" stroke="none">
<path d="M3599 6775 c-3 -2 -45 -6 -94 -8 -50 -3 -92 -6 -94 -6 -2 -1 23 -21
55 -45 119 -89 294 -262 402 -396 l21 -25 38 45 c122 145 292 308 405 390 22
17 39 30 37 31 -39 9 -762 22 -770 14z"/>
<path d="M2335 6573 c-27 -8 -102 -31 -165 -51 -186 -57 -265 -87 -495 -188
-159 -69 -303 -144 -455 -236 -187 -112 -184 -105 -49 -108 203 -4 379 -15
524 -34 28 -3 70 -8 95 -11 25 -3 56 -7 70 -10 22 -4 67 -11 125 -20 265 -42
646 -152 932 -271 139 -57 415 -194 443 -219 8 -8 17 -13 20 -13 3 1 25 -11
48 -26 40 -25 42 -29 29 -44 -8 -9 -25 -30 -38 -46 -13 -16 -29 -34 -34 -40
-57 -62 -212 -282 -279 -393 -21 -35 -39 -63 -41 -63 -4 0 -17 5 -106 44 -118
51 -426 150 -594 190 -38 9 -86 21 -105 26 -19 5 -53 12 -75 16 -22 4 -44 8
-50 10 -25 5 -143 26 -170 30 -16 2 -41 6 -55 9 -14 3 -47 7 -75 10 -27 3 -59
7 -70 9 -11 2 -56 7 -99 11 -43 4 -87 8 -97 10 -120 23 -771 23 -1019 0 -19
-2 -69 -6 -110 -9 -135 -12 -209 -21 -215 -28 -10 -12 -105 -220 -105 -230 0
-8 -4 -18 -9 -24 -20 -22 -81 -255 -98 -375 -11 -73 -8 -409 3 -435 9 -21 10
-21 144 23 146 48 415 125 520 150 36 8 72 17 80 19 52 13 99 23 122 28 15 2
63 12 105 20 43 9 89 17 103 20 14 2 52 9 85 15 33 6 78 13 100 16 22 2 72 9
110 14 196 28 312 34 605 35 281 0 426 -8 540 -29 14 -3 43 -7 65 -10 44 -6
142 -23 165 -29 8 -3 24 -5 35 -5 48 -3 49 -13 16 -118 -17 -54 -33 -108 -36
-118 -2 -11 -8 -35 -14 -53 -5 -18 -10 -36 -11 -40 0 -4 -5 -23 -10 -43 -5
-19 -12 -51 -14 -70 -3 -19 -5 -34 -6 -34 -3 0 -17 -81 -35 -205 -26 -179 -26
-562 0 -740 13 -90 37 -210 51 -260 8 -30 17 -65 20 -77 7 -34 23 -73 29 -73
4 0 4 4 1 9 -11 16 -37 171 -31 181 3 5 1 11 -4 14 -9 6 -7 326 3 376 2 14 7
48 10 75 3 28 10 75 16 105 6 30 13 67 15 82 2 15 6 31 9 36 3 5 7 19 10 33 6
32 45 170 53 189 3 8 7 23 9 32 6 26 89 236 127 318 47 101 158 304 168 308 5
2 9 8 9 13 0 20 172 263 265 374 156 187 387 403 575 538 36 26 70 51 75 55 6
5 39 27 75 50 36 23 70 46 76 51 6 5 38 23 69 40 32 17 63 35 70 41 29 24 435
217 475 226 3 0 16 5 30 11 55 23 253 92 285 99 6 2 57 17 115 33 58 17 114
33 125 36 26 5 47 10 128 29 37 9 82 18 100 21 17 3 39 8 48 11 10 2 30 7 45
9 16 2 50 8 77 13 26 5 47 7 47 4 0 -2 6 1 13 7 8 6 16 9 19 6 2 -2 31 0 64 5
92 14 134 20 194 25 30 3 71 7 90 9 120 14 294 24 423 25 26 1 47 4 47 9 0 7
-173 122 -183 122 -3 0 -41 21 -84 46 -95 57 -305 159 -428 209 -49 20 -99 40
-110 45 -75 33 -387 136 -470 155 -5 1 -22 5 -37 9 -19 6 -49 -1 -110 -25 -46
-18 -87 -36 -92 -41 -6 -4 -15 -8 -22 -8 -6 0 -33 -10 -60 -22 -27 -12 -51
-23 -54 -23 -26 -7 -320 -152 -456 -226 -139 -74 -427 -257 -529 -336 -16 -13
-34 -27 -40 -31 -5 -4 -41 -31 -78 -60 l-69 -54 -116 90 c-64 49 -127 94 -139
100 -12 7 -27 18 -35 25 -7 7 -38 28 -68 47 -30 19 -57 37 -60 40 -4 5 -179
111 -235 142 -143 81 -339 180 -490 248 -101 46 -337 140 -348 139 -7 0 -34
-7 -62 -16z"/>
<path d="M6618 5785 c-2 -2 -52 -6 -113 -10 -60 -3 -123 -8 -140 -9 -16 -2
-65 -7 -108 -10 -43 -4 -88 -9 -100 -12 -12 -2 -42 -7 -67 -9 -25 -3 -56 -8
-70 -10 -25 -4 -99 -15 -135 -20 -11 -1 -20 -3 -20 -4 0 -1 -12 -4 -26 -6 -55
-7 -100 -15 -146 -26 -27 -6 -59 -13 -72 -15 -13 -3 -51 -12 -85 -20 -34 -8
-70 -17 -81 -19 -40 -9 -262 -73 -330 -96 -38 -13 -72 -24 -75 -24 -6 -2 3 1
-185 -72 -348 -137 -641 -301 -925 -519 -130 -100 -186 -149 -320 -284 -108
-108 -143 -147 -234 -260 -20 -25 -41 -50 -46 -57 -5 -6 -44 -63 -85 -125 -42
-62 -79 -118 -83 -123 -4 -6 -18 -33 -32 -60 -14 -28 -28 -52 -31 -55 -12 -11
-94 -191 -135 -298 -37 -95 -84 -243 -100 -317 -75 -335 -75 -638 1 -900 1 -5
3 -13 4 -18 0 -4 8 -21 16 -37 9 -17 13 -30 10 -30 -9 0 55 -122 98 -185 50
-75 142 -162 215 -204 l56 -32 -57 58 c-32 33 -65 70 -74 83 -9 14 -20 27 -23
30 -14 12 -70 105 -70 117 0 7 -4 13 -10 13 -5 0 -10 5 -10 10 0 6 -8 29 -19
53 -34 76 -67 189 -76 256 -1 14 -6 48 -10 74 -18 120 -5 341 30 497 3 14 8
34 10 45 24 113 89 285 164 435 138 274 307 501 555 739 117 112 116 111 121
111 2 0 20 15 39 33 19 17 65 55 103 82 37 28 70 53 73 56 7 9 267 179 273
179 3 0 34 17 68 38 76 46 384 198 419 206 3 1 53 20 112 43 163 64 480 162
603 187 54 11 69 14 140 29 39 9 86 18 105 21 39 6 70 12 115 21 17 3 44 8 60
9 17 2 50 6 75 10 111 16 193 25 285 32 28 2 95 7 150 11 129 10 683 9 844 -1
l124 -8 -21 29 c-39 54 -148 152 -232 209 -72 48 -190 112 -225 120 -5 2 -30
11 -55 20 -38 15 -230 30 -242 19z"/>
<path d="M6458 5175 c-2 -2 -57 -6 -123 -9 -66 -3 -133 -8 -150 -10 -16 -2
-64 -7 -105 -10 -41 -4 -86 -9 -100 -11 -14 -2 -45 -7 -70 -10 -25 -3 -56 -8
-70 -10 -14 -3 -41 -7 -60 -10 -94 -15 -165 -28 -270 -52 -63 -14 -122 -27
-130 -28 -8 -2 -17 -4 -20 -5 -3 -1 -9 -3 -15 -5 -5 -1 -12 -3 -15 -4 -5 -3
-20 -6 -55 -14 -11 -2 -27 -6 -35 -9 -8 -4 -74 -24 -146 -46 -168 -52 -399
-142 -517 -203 -21 -10 -44 -19 -51 -19 -8 0 -16 -4 -18 -8 -1 -4 -37 -25 -78
-46 -107 -55 -253 -145 -372 -228 -57 -40 -105 -75 -108 -78 -3 -3 -27 -23
-55 -45 -93 -74 -120 -99 -245 -224 -69 -70 -153 -162 -188 -206 -35 -44 -69
-87 -75 -95 -21 -26 -103 -153 -132 -205 -16 -27 -34 -57 -41 -65 -7 -8 -13
-18 -14 -22 0 -4 -21 -51 -45 -103 -25 -53 -48 -108 -51 -123 -4 -15 -10 -32
-15 -37 -11 -15 -76 -268 -84 -330 -11 -77 -12 -295 -3 -345 5 -25 11 -60 14
-79 17 -104 86 -256 157 -347 95 -123 201 -197 357 -252 118 -41 162 -47 345
-46 179 1 274 18 412 76 268 111 442 342 489 648 8 51 12 270 6 284 -3 5 -6
27 -8 50 -2 22 -6 52 -9 66 -3 14 -8 36 -11 50 -9 43 -25 103 -47 170 -12 36
-20 68 -19 73 1 4 -2 7 -8 7 -5 0 -10 8 -10 18 0 10 -3 22 -7 26 -5 4 -8 11
-8 14 -1 20 -100 210 -151 290 -32 52 -63 101 -69 110 -33 54 -177 235 -233
291 l-23 23 32 20 c38 23 171 86 247 117 28 11 75 30 103 42 28 11 52 19 53
17 163 -253 336 -674 380 -923 2 -16 7 -41 10 -55 4 -14 8 -45 11 -70 3 -25 9
-71 14 -104 13 -95 5 -361 -14 -446 -20 -92 -21 -97 -34 -139 -6 -19 -7 -30
-3 -25 5 5 15 29 22 54 8 25 17 50 21 55 4 6 10 24 13 40 3 17 12 57 20 90 13
57 22 104 31 168 2 15 7 44 9 65 12 83 18 196 17 357 -1 158 -4 215 -16 305
-3 19 -7 55 -10 80 -8 76 -25 168 -49 275 -2 6 -6 28 -11 50 -4 22 -14 54 -21
71 -7 17 -11 34 -8 37 3 3 -2 19 -10 36 -9 17 -16 33 -16 36 0 5 -1 8 -5 23
-1 4 -5 21 -10 37 -4 17 -10 35 -14 40 -5 10 -11 35 -8 35 1 0 58 11 127 24
69 14 152 28 185 31 33 4 72 8 86 11 160 25 709 25 924 -1 17 -2 57 -6 90 -10
33 -3 71 -8 85 -10 14 -2 45 -7 70 -10 66 -9 194 -32 280 -49 41 -8 86 -17
100 -20 14 -3 66 -14 115 -26 50 -12 117 -28 150 -35 83 -19 432 -123 456
-135 10 -6 19 -9 19 -6 0 2 30 -7 66 -20 37 -13 69 -24 72 -24 5 0 -3 80 -13
140 -14 77 -71 248 -113 340 -9 19 -16 37 -17 40 -1 9 -147 294 -164 320 -33
50 -42 65 -54 90 -18 38 -105 166 -121 179 -8 7 -45 14 -82 17 -79 5 -731 14
-736 9z m-2523 -1367 c223 -182 403 -405 515 -642 42 -89 83 -202 94 -256 3
-19 9 -46 12 -60 3 -14 8 -38 11 -55 4 -16 6 -88 6 -160 -1 -170 -27 -272
-104 -404 -104 -179 -348 -305 -584 -303 -62 1 -96 6 -194 28 -158 35 -347
184 -407 322 -9 20 -22 49 -30 65 -9 15 -12 27 -8 27 3 0 2 6 -4 13 -9 12 -14
31 -29 112 -13 71 -6 286 11 360 38 164 47 189 134 363 31 62 62 121 69 130 7
9 40 55 75 102 59 81 91 119 183 214 51 54 192 176 203 176 4 0 25 -15 47 -32z"/>
<path d="M4310 1442 c-67 -19 -123 -63 -158 -122 -22 -36 -26 -56 -26 -110 1
-70 18 -116 63 -163 86 -93 245 -102 341 -20 60 52 80 96 84 187 4 89 -59 178
-153 216 -33 13 -123 21 -151 12z m134 -135 c94 -66 49 -216 -66 -220 -151 -6
-184 203 -38 240 42 11 65 7 104 -20z"/>
<path d="M2520 1430 c-28 -4 -36 -10 -38 -30 -2 -14 -9 -59 -17 -100 -8 -41
-17 -93 -20 -115 -3 -23 -8 -52 -10 -65 -28 -137 -29 -135 34 -135 62 0 63 2
75 106 11 91 18 144 20 146 1 1 25 -55 53 -125 42 -105 55 -127 72 -128 17 -1
28 11 47 53 14 30 27 59 28 66 1 7 12 34 24 61 12 27 22 52 22 57 0 5 4 9 8 9
5 0 10 -15 11 -32 1 -18 4 -46 6 -63 3 -16 7 -52 11 -80 8 -72 7 -71 65 -70
53 1 54 1 55 30 0 17 -3 39 -6 50 -4 11 -10 49 -14 84 -4 36 -8 67 -10 70 -2
3 -6 29 -10 56 -10 76 -16 125 -19 138 -3 15 -41 23 -88 19 -31 -3 -39 -9 -44
-30 -4 -15 -13 -40 -20 -57 -8 -16 -25 -57 -38 -90 -29 -69 -23 -76 -79 82
-36 100 -42 104 -118 93z"/>
<path d="M3450 1432 l-65 -3 2 -197 c0 -108 2 -208 2 -222 1 -24 4 -26 51 -25
30 0 54 5 59 13 4 7 6 39 5 72 -2 51 0 60 14 60 153 5 195 32 207 134 5 36 1
58 -15 90 -33 69 -90 86 -260 78z m140 -114 c15 -16 19 -30 15 -48 -8 -33 -14
-38 -50 -40 -53 -4 -54 -3 -51 53 2 28 4 52 5 52 29 9 64 1 81 -17z"/>
<path d="M5036 1217 c1 -118 4 -219 7 -224 8 -13 202 -9 252 6 49 14 76 49 80
104 3 48 -15 91 -48 108 -32 17 -32 17 -12 39 39 43 15 149 -38 169 -12 5 -71
9 -132 10 l-110 2 1 -214z m182 110 c29 -23 8 -62 -38 -69 -23 -3 -25 0 -26
37 0 22 1 43 3 47 4 8 44 -2 61 -15z m36 -190 c8 -21 6 -31 -6 -44 -16 -15
-87 -27 -89 -14 -1 3 -3 25 -5 49 l-3 44 47 -4 c41 -3 48 -7 56 -31z"/>
</g>
</svg>
