<?xml version="1.0" standalone="no"?>
<!DOCTYPE svg PUBLIC "-//W3C//DTD SVG 20010904//EN"
 "http://www.w3.org/TR/2001/REC-SVG-20010904/DTD/svg10.dtd">
<svg version="1.0" xmlns="http://www.w3.org/2000/svg"
 width="358.000000pt" height="358.000000pt" viewBox="0 0 358.000000 358.000000"
 preserveAspectRatio="xMidYMid meet">
<metadata>
Created by potrace 1.14, written by Peter Selinger 2001-2017
</metadata>
<g transform="translate(0.000000,358.000000) scale(0.100000,-0.100000)"
fill="#000000" stroke="none">
<path d="M1580 3071 c0 -5 12 -17 27 -26 40 -27 161 -151 168 -175 3 -11 9
-20 13 -20 4 0 52 45 106 100 54 55 103 100 107 100 5 0 9 6 9 13 0 10 -46 13
-215 15 -118 0 -215 -3 -215 -7z"/>
<path d="M2430 2956 c-153 -55 -349 -161 -537 -288 l-102 -69 -88 63 c-146
105 -194 134 -333 204 -147 73 -240 106 -281 100 -41 -7 -203 -58 -264 -84
-58 -24 -225 -108 -262 -132 -43 -26 -42 -36 5 -36 248 -5 558 -68 770 -158
81 -34 201 -101 242 -135 l25 -20 -31 -30 c-29 -28 -62 -71 -138 -173 -26 -37
-28 -38 -55 -24 -73 38 -313 104 -441 121 -25 3 -56 8 -70 10 -29 5 -100 13
-180 21 -73 7 -473 12 -532 6 l-46 -4 -31 -68 c-45 -101 -72 -221 -78 -344 -5
-104 -5 -109 13 -101 124 54 361 123 514 149 197 34 452 38 635 10 61 -9 140
-27 148 -34 4 -3 1 -22 -7 -41 -18 -44 -52 -179 -61 -244 -16 -114 -6 -410 13
-391 3 4 6 37 8 74 4 138 37 259 114 417 157 323 409 579 727 738 252 126 606
209 891 208 45 -1 82 1 82 4 0 7 -198 115 -283 155 -83 38 -246 103 -282 114
-11 3 -49 -5 -85 -18z"/>
<path d="M2967 2604 c-1 -1 -33 -4 -72 -8 -38 -3 -83 -8 -100 -11 -165 -30
-213 -39 -295 -61 -366 -97 -676 -267 -886 -487 -137 -142 -218 -279 -276
-467 -25 -79 -30 -116 -33 -220 -3 -112 2 -160 28 -255 13 -48 70 -139 115
-183 30 -29 56 -51 59 -49 2 3 -16 31 -41 64 -40 52 -104 173 -91 173 3 0 -1
15 -8 33 -20 47 -21 209 -2 282 41 160 127 309 265 459 106 116 285 255 420
328 109 59 368 152 475 171 17 3 41 8 55 11 57 13 77 16 110 20 19 3 73 9 120
16 47 6 114 13 150 15 79 5 384 5 423 0 28 -3 29 -3 10 18 -41 50 -102 98
-159 127 -58 30 -66 31 -163 29 -56 -2 -103 -4 -104 -5z"/>
<path d="M3108 2345 c-2 -1 -66 -6 -143 -9 -77 -4 -151 -9 -165 -11 -31 -4
-105 -15 -145 -21 -141 -22 -328 -73 -458 -126 -365 -148 -647 -416 -762 -723
-36 -95 -47 -150 -47 -240 0 -149 54 -258 161 -329 143 -95 353 -98 485 -7 95
66 163 191 171 314 12 185 -70 391 -228 581 -40 47 -40 49 -21 63 34 27 118
63 146 63 59 0 173 -221 218 -422 8 -37 11 -99 8 -180 -5 -113 -4 -120 8 -78
25 86 36 253 23 362 -4 34 -10 81 -12 103 -6 46 -43 203 -57 240 -10 27 -9 28
82 44 166 30 482 32 643 6 188 -31 299 -59 457 -115 l110 -39 -6 37 c-3 20 -8
50 -11 66 -11 57 -65 182 -117 272 -86 149 -67 135 -193 140 -61 3 -118 6
-127 8 -9 2 -18 3 -20 1z m-1264 -645 c69 -47 161 -154 200 -233 45 -92 65
-170 73 -278 5 -81 4 -89 -26 -152 -58 -121 -155 -180 -295 -179 -162 1 -279
93 -310 244 -27 131 12 281 111 430 40 62 176 198 196 198 5 0 28 -13 51 -30z"/>
<path d="M1262 1230 c0 -14 2 -19 5 -12 2 6 2 18 0 25 -3 6 -5 1 -5 -13z"/>
<path d="M1990 646 c-39 -12 -57 -47 -46 -89 16 -64 111 -75 141 -17 20 38 19
52 -5 82 -25 32 -47 38 -90 24z m44 -36 c29 -11 33 -27 13 -55 -20 -26 -67
-13 -67 18 0 13 5 28 12 35 14 14 11 14 42 2z"/>
<path d="M1416 638 c-3 -7 -7 -32 -10 -55 -3 -23 -8 -48 -12 -56 -3 -9 3 -16
15 -20 14 -3 21 0 22 9 1 8 3 19 4 24 1 6 3 18 4 28 2 10 10 -1 22 -27 22 -49
22 -49 49 5 l19 39 1 -31 c0 -30 24 -63 36 -51 4 3 3 37 -2 74 -8 58 -12 68
-30 71 -16 2 -24 -6 -36 -35 l-14 -38 -14 38 c-14 37 -46 52 -54 25z"/>
<path d="M1704 583 c1 -62 8 -82 29 -83 4 0 7 11 7 24 0 17 8 25 32 32 22 7
34 17 39 34 9 37 -16 60 -66 60 l-41 0 0 -67z m69 23 c3 -8 0 -17 -8 -19 -15
-7 -25 1 -25 20 0 17 26 17 33 -1z"/>
<path d="M2230 576 l0 -74 45 3 c25 3 50 7 55 10 13 8 13 52 0 60 -6 4 -8 16
-5 26 10 30 -13 49 -56 49 l-39 0 0 -74z m60 35 c0 -6 -4 -13 -10 -16 -5 -3
-10 1 -10 9 0 9 5 16 10 16 6 0 10 -4 10 -9z m7 -58 c2 -6 -3 -13 -12 -16 -10
-5 -15 0 -15 14 0 21 21 22 27 2z"/>
</g>
</svg>
