<svg xmlns="http://www.w3.org/2000/svg" xmlns:xlink="http://www.w3.org/1999/xlink" viewBox="-71.082 -19.04 903.693 530.799" xmlns:v="https://vecta.io/nano"><style><![CDATA[.B{fill:#fff}.C{fill:#0e1632}.D{fill:#01020e}.E{fill:#e74d91}.F{fill:#0076bd}.G{fill:#f4ad85}.H{fill:#ed9072}.I{fill:#e6e4eb}.J{fill:#bfcce8}.K{fill:#e8685b}.L{fill:#3a405c}.M{fill:#383d5d}]]></style><defs><clipPath id="A"><path d="M0 500h750V0H0z"/></clipPath><path id="B" d="M321.725 402.863H214.784c-.752 0-1.039-.615-.638-1.367l3.079-5.773c.401-.752 1.343-1.367 2.096-1.367h106.942c.752 0 1.038.615.637 1.367l-3.079 5.773c-.401.752-1.343 1.367-2.096 1.367"/><path id="C" d="M135.829 292.629a3.99 3.99 0 0 1 3.982 3.981 3.99 3.99 0 0 1-3.982 3.982 3.99 3.99 0 0 1-3.981-3.982 3.99 3.99 0 0 1 3.981-3.981"/><path id="D" d="M528.916 287.353a3.99 3.99 0 0 1 3.981 3.981 3.99 3.99 0 0 1-3.981 3.981 3.99 3.99 0 0 1-3.981-3.981 3.99 3.99 0 0 1 3.981-3.981"/></defs><g clip-path="url(#A)" transform="matrix(1.333333 0 0 -1.333333 -119.235474 579.693115)" fill-rule="evenodd"><path d="M74.994 353.013c-17.393 0-31.623 14.23-31.623 31.622s14.23 31.623 31.623 31.623 31.623-14.23 31.623-31.623-14.23-31.622-31.623-31.622m154.65-297.022h14.996 428.69c15.897 0 28.903 13.005 28.903 28.904s-13.006 28.904-28.903 28.904h-12.02c-51.562 0-93.75 42.188-93.75 93.75s-42.187 93.75-93.75 93.75l.204.003h-77.332c-6.068 0-11.033 4.964-11.033 11.033a11.07 11.07 0 0 0 11.033 11.034h49.099c8.459 0 15.38 6.921 15.38 15.38s-6.921 15.381-15.38 15.381H384.15c-17.084 0-31.062 13.979-31.062 31.063s-13.979 31.064-31.064 31.064l.067.001H244.64h-90.032c-17.393 0-31.623-14.23-31.623-31.623s14.23-31.622 31.623-31.622h47.536l-.077-.001c9.83-.041 17.858-8.095 17.858-17.933s-8.028-17.891-17.858-17.933l.077-.001c-19.499 0-35.452-15.954-35.452-35.452s-15.953-35.452-35.452-35.452c-52.319 0-95.125-42.807-95.125-95.125s42.806-95.125 95.125-95.125z" fill="#e2e8f5"/><g fill="#b1c0e2"><path d="M561.215 241.356l-3.662 8.201h-84.496c-.726 0-1.002-.594-.615-1.318l2.968-5.565c.387-.725 1.295-1.318 2.022-1.318zm3.513-10.985l-2.481 8.202h-89.19c-.725 0-1.002-.594-.615-1.318l2.969-5.566c.386-.725 1.295-1.318 2.021-1.318zm2.082-10.984l-1.427 8.202h-92.326c-.726 0-1.002-.593-.615-1.318l2.969-5.567c.386-.724 1.295-1.317 2.021-1.317zm.74-10.985l-.432 8.202h-94.061c-.726 0-1.002-.593-.615-1.317l2.968-5.567c.387-.725 1.295-1.318 2.022-1.318zm.564-10.984l-.529 8.202h-94.529c-.725 0-1.002-.593-.615-1.318l2.969-5.566c.387-.724 1.295-1.318 2.021-1.318z"/><path d="M488.22 246.556a.83.83 0 1 1-1.661 0v-71.763a.83.83 0 1 1 1.661 0z"/><path d="M484.068 155.607a3.32 3.32 0 1 1 6.642 0v19.186a3.32 3.32 0 1 1-6.642 0z"/><use xlink:href="#B"/><path d="M321.725 391.471H214.784c-.752 0-1.039-.615-.638-1.367l3.079-5.773c.401-.752 1.343-1.367 2.096-1.367h106.942c.752 0 1.038.615.637 1.367l-3.079 5.773c-.401.752-1.343 1.367-2.096 1.367"/><path d="M230.511 399.751a.86.86 0 1 1-1.722 0v-74.433a.86.86 0 1 1 1.722 0z"/><path d="M226.206 305.419c0-1.902 1.542-3.445 3.444-3.445s3.444 1.543 3.444 3.445v19.899c0 1.903-1.542 3.445-3.444 3.445s-3.444-1.542-3.444-3.445zm-86.67-58.189a35.16 35.16 0 0 0-8.296-.989c-12.485 0-24.425-2.444-35.374-6.865h48.005c.695 0 1.565.568 1.935 1.261l2.844 5.33c.369.695.104 1.263-.59 1.263zm-49.667-10.519c-4.647-2.264-9.084-4.896-13.276-7.855h67.278c.695 0 1.565.567 1.935 1.261l2.844 5.331c.369.695.104 1.263-.59 1.263zM73.002 226.19a96.55 96.55 0 0 1-8.904-7.854h79.774c.694 0 1.564.568 1.934 1.262l2.844 5.33c.369.694.104 1.262-.59 1.262zm-11.463-10.518c-2.318-2.499-4.506-5.119-6.549-7.855h88.882c.694 0 1.564.568 1.934 1.262l2.844 5.33c.369.695.104 1.263-.59 1.263zm-8.463-10.52l-4.911-7.854h95.707c.694 0 1.564.567 1.934 1.262l2.844 5.33c.369.694.105 1.262-.59 1.262z"/><path d="M133.539 243.301c0 1.021.356 1.85.795 1.85s.795-.829.795-1.85V83.51c0-1.021-.355-1.85-.795-1.85s-.795.829-.795 1.85z"/><path d="M137.515 63.287a3.18 3.18 0 1 0-6.361 0V81.66a3.18 3.18 0 1 0 6.361 0zM49.319 194.633h98.741c.694 0 .959-.567.59-1.263l-2.844-5.33c-.37-.693-1.24-1.261-1.935-1.261H45.13c-.695 0-.959.568-.589 1.261l2.842 5.33c.371.696 1.242 1.263 1.936 1.263m0-10.519h98.741c.694 0 .959-.568.59-1.262l-2.844-5.331c-.37-.694-1.24-1.262-1.935-1.262H45.13c-.695 0-.959.568-.589 1.262l2.842 5.331c.371.694 1.242 1.262 1.936 1.262m0-10.519h98.741c.694 0 .959-.568.59-1.262l-2.844-5.33c-.37-.695-1.24-1.262-1.935-1.262H45.13c-.695 0-.959.567-.589 1.262l2.842 5.33c.371.694 1.242 1.262 1.936 1.262m0-10.52h98.741c.694 0 .959-.567.59-1.262l-2.844-5.331c-.37-.694-1.24-1.261-1.935-1.261H45.13c-.695 0-.959.567-.589 1.261l2.842 5.331c.371.695 1.242 1.262 1.936 1.262m0-10.518h98.741c.694 0 .959-.568.59-1.263l-2.844-5.33c-.37-.694-1.24-1.261-1.935-1.261H45.13c-.695 0-.959.567-.589 1.261l2.842 5.33c.371.695 1.242 1.263 1.936 1.263m0-10.52h98.741c.694 0 .959-.568.59-1.263l-2.844-5.33c-.37-.693-1.24-1.261-1.935-1.261H45.13c-.695 0-.959.568-.589 1.261l2.842 5.33c.371.695 1.242 1.263 1.936 1.263m0-10.518h98.741c.694 0 .959-.568.59-1.263l-2.844-5.33c-.37-.695-1.24-1.262-1.935-1.262H45.13c-.695 0-.959.567-.589 1.262l2.842 5.33c.371.695 1.242 1.263 1.936 1.263m0-10.521h98.741c.694 0 .959-.567.59-1.262l-2.844-5.33c-.37-.694-1.24-1.262-1.935-1.262H45.13c-.695 0-.959.568-.589 1.262l2.842 5.33c.371.695 1.242 1.262 1.936 1.262"/></g><path d="M166.912 365.336c-.864-2.433-2.639-4.312-4.809-5.668-1.033-.645-2.356-1.292-3.537-1.627a1.05 1.05 0 0 0-1.295.714c-.036.128-.049.263-.036.395a13.89 13.89 0 0 1-.033 3.222 11.77 11.77 0 0 1-.368 1.763c-4.736.638-9.079 2.937-12.285 6.485-3.369 3.727-5.216 8.528-5.216 13.552a20.16 20.16 0 0 0 5.922 14.298c3.803 3.804 8.917 5.922 14.297 5.922a20.16 20.16 0 0 0 20.221-20.22c0-4.163-1.266-8.191-3.658-11.599-2.286-3.26-5.494-5.787-9.203-7.237" class="J"/><path d="M527.249 154.018h34.73a3.25 3.25 0 0 0 2.081-.752.98.98 0 0 0 .405-.312 1.02 1.02 0 0 0 .143-.263c.409-.546.652-1.224.652-1.954v-20.411c0-.902-.368-1.721-.963-2.316v-.004c-.595-.593-1.415-.962-2.318-.962h-34.73a3.27 3.27 0 0 0-2.317.962c-.595.595-.964 1.416-.964 2.32v20.411c0 .734.243 1.414.653 1.962a1.02 1.02 0 0 0 .142.255c.109.142.249.248.404.312.567.47 1.294.752 2.082.752" fill="#9eb1d9"/><path d="M258.002 194.052c7.822-4.214 12.155-9.199 17.487-16.415 11.868-16.067 16.506-28.376 30.018-42.876 4.981-5.345 29.515 36.657 32.353 42.182.554 1.078 2.939 6.274 4.972 4.637.951-.763 4.258-4.119 6.369-5.194s4.68-.519 5.177-3.643c-5.568-20.722-30.353-86.858-59.781-65.09-20.875 15.441-36.442 39.178-39.105 42.624-9.661 12.499-3.369 25.023-7.685 33.916l-.016.03-.283.6-.097.204-.179.385-.002.01-.165.36-.094.211-.065.148c-1.825 4.149-1.932 5.802-1.932 5.802l4.06-4.512z" class="D"/><path d="M175.08 177.521l13.682 17.296 3.025 2.596 30.39 11.428 14.064-2.191h-.001s14.028-6.828 15.215-6.767c.129.008.332.087.591.226l8.295-23.862 5.75-36.925c.714-2.354 1.323-35.513-1.292-40.275s-.395-12.14-10.463-15.239-31.592-9.09-46.047 6.188-17.462 23.757-21.075 28.922-12.134 58.603-12.134 58.603" fill="#e2e1e7"/><path d="M232.508 187.123l.843-1.465s12.046-36.436 11.547-65.636-15.222-4.242-14.973-1.746 2.859 50.035.306 67.195c0 0 .193 2.309 2.277 1.652" class="E"/><path d="M239.178 205.01s11.681-27.89 7.277-59.836-13.697-56.402-13.697-56.402l-2.242-28.003h40.374c.276 11.304.688 20.818 1.265 27.251 3.178 35.436 12.968 110.803-32.977 116.99" class="D"/><path d="M239.178 205.01s11.681-27.89 7.277-59.836c-1.601-11.624-3.85-22.255-6.065-31.078v-.001l1.053-4.931c8.684 20.392 22.106 71.901 21.777 72.065s-8.267.781-8.267.781c1.892 1.852 4.236 2.798 3.743 3.703-.444.814-11.671 15.243-13.91 18.116a38.68 38.68 0 0 1-5.608 1.181" class="C"/><path d="M244.675 60.769l-.983 15.132c-4.515 51.772-2.255 86.431-37.039 127.356-8.136-1.56-22.79-9.205-22.79-9.205-6.448-3.367-12.592-8.772-13.663-16.23-1.517-10.585 9.999-47.251 17.084-70.225 3.052-9.896 3.433-26.851 2.431-46.828z" class="D"/><path d="M211.003 237.532l.354-8.298v-19.583c0-1.248-1.164-3.048-3.216-4.614 3.06-3.321 10.606-11.034 15.341-11.767 6.052-.934 13.041 1.749 14.787 3.246 1.22 1.047 1.338 6.466 2.055 9.497-.565.156.078-.007-.491.179-1.477.486-2.878 1.187-3.785 2.176-2.838 3.099-2.708 16.911.131 20.523s-25.176 8.641-25.176 8.641" class="K"/><path d="M233.688 197.076l-3.425 1.848s-.289-3.782-.694-3.908-.95 2.377-2.429 3.281-5.435-4.495-5.435-4.495 1.47-4.212 3.591-4.524 8.509-1.019 8.591.893-.199 6.905-.199 6.905" fill="#e2e1e7"/><path d="M229.286 192.519s-3.027.217-5.554 1.841-4.399-.406-4.399-.406l2.434-2.762.187-1.169s3.632.64 5.935-1.037 1.397 3.533 1.397 3.533" class="E"/><path d="M209.687 209.004s4.303-7.737 15.723-9.734c1.562-.329 4.518-3.192 2.433-2.808s-6.739-8.548-7.362-11.917-14.359 14.16-15.229 19.651c0 0 2.25 4.184 4.435 4.808" class="B"/><path d="M234.068 192.306s-1.309 1.028-2.371 1.028-2.994 0-3.806-.716-1.773-2.375-1.84-2.905 3.182-3.742 4.18-4.242 2.059.312 3.12.188 1.372 5.533.717 6.647" class="E"/><path d="M235.499 209.164s.915-6.829-4.496-9.272c0 0-1.483-.75-.274-2.104s2.999-6.684 3.54-9.08 7.223 9.739 6.754 17.197c0 0-3.7 2.77-5.524 3.259" class="B"/><path d="M183.864 194.052c-7.822-4.214-12.154-9.199-17.487-16.415-11.867-16.067-16.506-28.376-30.017-42.876-4.981-5.345-29.516 36.657-32.353 42.182-.555 1.078-2.941 6.274-4.973 4.637-.951-.763-4.258-4.119-6.368-5.194s-4.68-.519-5.177-3.643c5.567-20.722 30.352-86.858 59.779-65.09 20.876 15.441 36.443 39.178 39.106 42.624 9.661 12.499 3.369 25.023 7.685 33.916l.016.03.282.6.097.204.18.385.002.01.165.36.093.211.066.148h-.001c1.827 4.149 1.932 5.802 1.932 5.802l-4.059-4.512z" class="D"/><path d="M259.558 250.203c0-.869.704-1.573 1.573-1.573s1.572.704 1.572 1.573v42.629c0 4.869-1.729 11.472-7.548 16.271-4.104 3.385-10.23 5.847-19.197 6.089-10.43.282-21.679-.516-30.377-4.121-9.036-3.744-15.337-10.426-15.337-21.853v-36.242c0-.868.705-1.572 1.573-1.572s1.572.704 1.572 1.572v36.242c0 9.883 5.504 15.684 13.396 18.954 8.228 3.409 19.034 4.159 29.1 3.888 8.168-.221 13.663-2.394 17.279-5.377 4.93-4.065 6.394-9.694 6.394-13.851z" class="F"/><path d="M269.756 245.509h-1.266a3.17 3.17 0 0 1-3.159-3.159 3.17 3.17 0 0 1 3.159-3.159h1.266a3.17 3.17 0 0 1 3.159 3.159 3.17 3.17 0 0 1-3.159 3.159" class="L"/><path d="M256.565 229.768c6.92 0 12.582 5.661 12.582 12.582s-5.662 12.583-12.582 12.583z" class="F"/><path d="M256.565 257.676h-.001a2.25 2.25 0 0 1-2.243-2.243v-26.167a2.25 2.25 0 0 1 2.243-2.243h.001a2.25 2.25 0 0 1 2.243 2.243v26.167a2.25 2.25 0 0 1-2.243 2.243" class="C"/><path d="M229.225 297.982h0c-16.712.687-30.948-12.424-31.633-29.137l-1.135-27.613c-.686-16.713 12.425-30.949 29.138-31.634s30.947 12.424 31.633 29.137l1.135 27.614c.685 16.713-12.426 30.946-29.138 31.633" class="G"/><path d="M224.936 297.853c-14.793-1.491-26.718-13.747-27.344-29.007l-1.135-27.614c-.686-16.713 12.425-30.948 29.138-31.635 1.157-.047 2.301-.025 3.43.055-21.38.235-22.172 24.795-22.172 35.157s12.339 22.209 17.687 22.456 14.625-6.615 14.625-6.615 10.711 13.606 10.547 12.619c-2.347 2.348-14.567 16.168-24.776 24.584" class="H"/><path d="M221.049 235.666c-.22-5.337 3.929-9.842 9.267-10.062s9.843 3.931 10.062 9.268l-.017.001c.038.918-.682 1.7-1.6 1.737l-15.959.657c-.918.037-1.699-.683-1.737-1.601z" class="B"/><path d="M195.283 287.898s-14.27-4.248-2.19-33.566c2.966-.122 3.805-2.401 3.727-4.299l-.156-3.783c4.65 1.854 4.071 6.796 3.474 9.195 0 0 17.122 3.496 20.16 22.212 0 0 .125 1.357 1.824.263 1.459-.939 15.888-19.831 29.243-24.991 12.197-4.713 24.338 10.775 22.031 24.14-7.725 44.736-76.842 41.821-78.113 10.829" class="C"/><path d="M195.283 287.898s-14.27-4.248-2.19-33.566c2.966-.122 3.805-2.401 3.727-4.299l-.156-3.783c4.65 1.854 4.071 6.796 3.474 9.195 0 0 17.122 3.496 20.16 22.212 0 0 .125 1.357 1.824.263 1.459-.939 15.888-19.831 29.243-24.991 11.311-4.371 22.572 8.632 22.308 21.203-.044-.734-1.256-17.837-18.432-12.058-17.552 5.904-29.983 21.196-37.92 18.237-7.928-2.955-26.2-4.323-20.194 15.121-1.081-2.285-1.731-4.798-1.844-7.534" fill="#010518"/><path d="M190.244 289.08v-36.104c0-.867.705-1.572 1.573-1.572s1.572.705 1.572 1.572v36.104z" class="F"/><path d="M183.433 245.509h1.266a3.17 3.17 0 0 0 3.158-3.159 3.17 3.17 0 0 0-3.158-3.159h-1.266a3.17 3.17 0 0 0-3.159 3.159 3.17 3.17 0 0 0 3.159 3.159" class="L"/><path d="M196.625 229.768c-6.921 0-12.583 5.661-12.583 12.582s5.662 12.583 12.583 12.583z" class="F"/><g class="C"><path d="M196.625 257.676h0a2.25 2.25 0 0 0 2.244-2.243v-26.167a2.25 2.25 0 0 0-2.244-2.243 2.25 2.25 0 0 0-2.244 2.243v26.167a2.25 2.25 0 0 0 2.244 2.243m45.577-162.719c-3.052 41.676-5.21 72.604-35.55 108.3-2.104-.404-4.643-1.214-7.252-2.194l3.587-18.805s.184-.412.759-.555 8.453 1.172 8.453 1.172l-9.872-6.602c-.431-.39 39.519-81.582 39.519-81.582z"/></g><path d="M104.165 183.839c.77 4.047 4.586 13.043 5.506 13.997 1.212 1.26-5.184 5.107-7.451-.967 0 0-2.994-4.032-4.157-3.358s-3.427 16.26-3.621 18.206-2.851 2.096-3.454 1.547-.048-3.049.113-6.64.293-5.819-.011-6.175c-.861-1.005-5.155 12.213-6.685 13.071-.962.54-4.006-.763-3.845-2.582s4.921-12.596 5.093-14.169-.756-.709-1.458.148-7.117 11.574-7.997 12.11-3.69-1.085-3.037-2.929 6.733-12.599 6.69-13.502-.675-.799-2.668.614-5.944 4.334-7.081 4.052c-.739.035-1.712-2.226.055-4.039s5.995-6.466 6.537-7.234c2.852-4.052 4.306-8.51 6.964-11.365.961-1.033 2.217-1.816 3.629-2.344 8.66-3.239 15.291 3.206 16.878 11.559" class="G"/><path d="M83.058 175.318l.6-.694c.882-.949 2.013-1.688 3.285-2.209l.344-.135c5.688-2.128 10.501-.076 13.584 3.949 1.61 2.103 2.749 4.744 3.293 7.61l.061.296c-3.783-8.295-12.543-11.511-21.167-8.817" class="H"/><path d="M345.737 244.305s4.312 1.39 5.406 5.981 10.606 2.229 10.936.875 1.38-3.174 1.103-5.593.962-3.175.962-3.175c-6.641-3.995-7.531-.137-14.765-5.804-2.35-1.842-3.163 4.768-3.642 7.716" fill="#e68392"/><path d="M380.778 201.468l-4.933 7.173s-30.658-10.064-46.368-4.483 20.124 30.091 22.651 32.872-2.266 4.348-3.535 6.443-1.577 4.75-3.062 4.418-38.658-25.908-40.102-49.394 57.871-26.767 63.676-23.685 11.673 26.656 11.673 26.656" class="C"/><path d="M325.515 208.564h-.003c-1.275 7.904 14.447 20.592 16.293 27.086.954 3.351-.355 6.375-1.846 8.519 3.112 2.302 5.24 3.647 5.573 3.722 1.484.332 1.793-2.323 3.062-4.418s6.063-3.663 3.535-6.443c-2.089-2.297-26.923-19.435-26.614-28.466m55.264-7.096l-4.933 7.173s-6.975-2.288-15.975-4.077c-2.971-6.059-7.89-13.411-15.187-16.52-13.41-5.712-34.36-2.423-39.254 10.454-1.445-23.486 57.871-26.768 63.676-23.686s11.673 26.656 11.673 26.656" class="D"/><path d="M344.92 249.004s-2.522-1.49-3.261-2.176 1.116-4.636 2.985-7.983 3.869-5.064 4.453-5.239 2.244 1.335 2.244 1.335z" fill="#f2f0f0"/><path d="M374.949 286.697c-1.063-.421-31.26-26.175-33.068-27.618s-1.439-2.744.693-6.669l7.586-14.224c.808-1.841 2.713-3.794 4.269-3.846.446-.015 3.539-.546 3.894-.203l29.27 27.477c.496.68 1.72 2.616-.631 6.452-2.243 3.653-3.127 5.845-8.68 16.208-.294.548 1.88 1.966 1.248 2.267-1.235.592-3.702.506-4.581.156" class="C"/><g class="D"><path d="M378.473 286.468c-1.062-.422-31.259-26.176-33.067-27.618s-1.439-2.745.692-6.668l7.588-14.226c1.037-2.365 3.888-4.917 5.485-3.378s31.448 26.125 31.945 26.806 1.721 2.616-.631 6.452c-2.241 3.654-3.124 5.847-8.678 16.209-.655 1.222-1.738 3.056-3.334 2.423"/><path d="M359.484 234.86c3.551 3.125 31.153 25.87 31.631 26.523.497.681 1.722 2.617-.631 6.453-2.24 3.654-3.126 5.847-8.678 16.209-.259.481-.585 1.059-.98 1.541-5.597-4.417-30.342-25.511-31.974-26.813-1.809-1.443-1.438-2.745.694-6.669l7.587-14.226a8.18 8.18 0 0 1 2.351-3.018"/></g><g class="C"><path d="M354.493 249.182c-.501.947-1.666 1.15-2.601.452s-1.286-2.032-.783-2.979 1.665-1.15 2.601-.452 1.285 2.031.783 2.979m31.586 19.133c-.068.081-2.467 4.675-2.57 4.864s-.054.266.167.445l.794.655c.116.119.365.166.452-.02l2.505-4.755c.024-.073.077-.268-.159-.43-.224-.155-.328-.268-.908-.744-.068-.057-.178-.137-.281-.015m-3.204 6.051c-.067.08-.604 1.156-.706 1.345s-.055.264.167.443l.794.655c.117.12.365.166.452-.019l.642-1.235c.022-.072.075-.268-.161-.43-.224-.155-.326-.27-.907-.745-.068-.056-.178-.137-.281-.014"/></g><path d="M376.281 280.28c-.82-.328-22.615-18.898-24.013-20.013s-1.112-2.121.535-5.154l5.863-10.992c.803-1.827 3.007-3.798 4.24-2.609s22.76 18.857 23.143 19.384 1.331 2.021-.487 4.986c-1.732 2.823-2.415 4.518-6.706 12.524-.506.945-1.344 2.362-2.575 1.874" class="L"/><path d="M354.259 256.655c-.217-.566-.167-.82-.014-.883.111-.047.279-.003.44.09.169.096.327.244.411.401.095.182.083.376-.16.506-.25.133-.429.028-.632-.088zm4.612-3.962c.051.192.079.337.066.383zm.066.383l-.002.002zm-.002.002c-.013.041-.682.008-1.266-.021zm-1.266-.021l-.866-.017c.135-.018.484 0 .866.017m-.866-.017c-.039.005-.07.043-.065.085s.044.071.086.066c.12-.017.462 0 .837.019.637.031 1.366.067 1.419-.08l.001-.008zm1.717-1.379l-.037-.048-.298-.372.092-.113c.044.06.137.27.243.533m-1.351.748l-.263-.203c-.222-.183-.414-.37-.376-.434l.171-.266c.221-.337.533-.813.629-1.122l.663.863-.181.241-.643.921m.293.382c.035.022.082.01.103-.027s.009-.082-.026-.103l-.015-.01-.234-.156.645-.919.155-.21.276.343.039.052c.055.081.075.109.185.082l.281.85.148-.041c-.073-.268-.191-.616-.31-.922v-.003l-.005-.012-.039-.099c-.139-.346-.28-.621-.355-.649-.019-.006-.036-.007-.053-.002l-.005.001c-.014.004-.025.011-.033.022-.033.026-.077.074-.129.138l-.733-.889c-.006-.034-.033-.061-.068-.064-.042-.005-.078.026-.083.068-.021.25-.385.805-.632 1.183l-.176.271c-.088.151.138.402.412.627l.274.212-.08.127c-.015.039.006.083.046.097s.082-.006.096-.045a1.53 1.53 0 0 1 .059-.092l.238.159zm4.178-6.371l-.093-.051c.04-.012.082.011.093.051m-.089-.605a1.1 1.1 0 0 1 .568-.145l.006.003c.079.033.229.194.36.42s.245.519.242.804l-.001.003c-.003.11-.023.221-.068.324-.048.118-.138.242-.234.326-.048.042-.097.073-.141.084-.033.01-.063.007-.086-.008-.016-.013-.031-.034-.045-.063l-.002-.004-.266-.561-.243-.577-.001-.001c-.04-.148-.061-.315-.089-.605m-2.239.917c.018-.038.003-.083-.034-.1s-.083-.004-.102.034c-.274.561-.179 1.045.043 1.343a.89.89 0 0 0 .274.245.65.65 0 0 0 .318.088h.003c.2-.002.386-.117.486-.367l.135-.36c.209-.575.483-1.326.973-1.704.026.253.047.407.086.548v.002c.047.173.12.323.254.602l.265.561.001.003c.024.053.057.092.093.12.064.048.14.055.217.033.067-.02.135-.062.198-.115a1.11 1.11 0 0 0 .277-.381 1.03 1.03 0 0 0 .079-.381l-.001-.003c.006-.316-.114-.635-.262-.885s-.328-.439-.432-.482c-.02-.01-.04-.015-.058-.016h-.003a1.25 1.25 0 0 0-.587.132l-.045-.502c-.013-.135-.191-.266-.413-.312-.086-.018-.177-.025-.268-.014a.68.68 0 0 0-.269.089c-.211.127-.359.392-.304.872l.029.345.028.34c.005.042.043.073.084.067s.071-.043.066-.084l-.027-.334-.03-.352c-.045-.408.068-.627.232-.725.063-.036.134-.059.208-.068s.151-.003.222.013c.157.032.285.108.291.179l.053.569c-.572.384-.871 1.205-1.099 1.831l-.134.355c-.075.186-.208.269-.349.271-.081.002-.163-.022-.242-.066s-.161-.116-.226-.203c-.193-.261-.274-.686-.03-1.188m-5.695 10.323c.01-.041-.015-.083-.056-.092s-.08.015-.091.055c-.095.387.013.669.186.825a.52.52 0 0 0 .371.139.42.42 0 0 0 .336-.2c.113-.175.142-.472-.015-.903.194.105.389.167.659.023.339-.18.358-.455.223-.71a1.24 1.24 0 0 0-.471-.463c-.198-.113-.415-.163-.571-.097-.208.085-.307.357-.126.922-.144-.063-.309-.106-.518-.082-.039.004-.071.043-.065.084s.042.072.083.067c.236-.027.416.051.575.136l.029.073c.181.434.168.717.07.867-.052.083-.133.125-.218.131s-.183-.029-.262-.1c-.135-.121-.219-.353-.139-.675" class="B"/><path d="M450.034 202.253c-16.729 12.654-31.982 10.736-55.61 13.006-12.382-.789-19.848-7.535-24.245-17.621l-.032-.076-.033-.078-.1-.231-.033-.077-.02-.05-.011-.027-.034-.077-.129-.313-.032-.077-.027-.065-.005-.014-.032-.078-.031-.079-.094-.237-.031-.078-.007-.018-.055-.141-.031-.08-.122-.318-.031-.082-.004-.011-.025-.068-.179-.484-.01-.025-.018-.055-.03-.082-.144-.407-.014-.04-.015-.041-.362-1.077-.021-.068-.006-.015-.186-.587-.009-.005c-7.644-17.825-20.413-25.135-3.717-47.761l.106-.147.002-.001.011-.266.011-.266c1.619-39.117-1.182-55.704-3.204-88.046h83.505c-6.536 24.925-17.008 48.129-15.324 69.167 2.732 34.133 29.059 46.13 20.378 77.096" class="C"/><path d="M408.254 214.212l-.621-5.379s32.795.479 32.581-19.231-15.02-29.567-25.271-39.038c-11.227-6.559-54.895 1.187-55.753 3.222.05-.13.045-.274.002-.431 1.275-2.628 3.029-5.485 5.357-8.639l.106-.147.002-.001.011-.266.011-.266.134-3.482c.022-.002.038-.013.04-.04 24.605 1.492 47.086-3.216 53.141-30.581 2.934-13.258-2.824-36.743-9.969-53.943h36.956c-6.537 24.925-17.008 48.129-15.325 69.167 2.733 34.133 29.059 46.13 20.378 77.096-13.226 10.005-25.531 10.901-41.78 11.959" class="D"/><path d="M449.858 202.838c8.747-12.408 35.544-52.606 42.482-37.361 10.289 17.16 23.505 32.712 26.986 40.14.843 1.798 4.525-3.298 5.656-3.72 1.845-.693 5.76-.357 5.135-2.255-4.575-12.388-28.166-56.263-31.295-60.09-8.628-10.552-21.318-6.139-28.132-.432-9.353 7.838-21.285 16.968-31.548 28.613z" class="C"/><path d="M447.399 204.957c3.106-4.409 5.68-7.735 9.2-12.643-3.529-6.929-2.76-32.295 5.925-40.991 29.333-29.367 44.766 8.564 56.77 34.934 4.438 9.748.454 12.295-1.932 15.124.172.363 2.101 4.531 2.577 4.759 3.625 1.732 13.348-4.019 12.148-6.158-4.577-12.386-30.609-59.213-33.741-63.041-4.854-5.937-12.069-8.746-21.904-2.838-15.324 9.205-33.439 29.249-37.3 33.629z" class="D"/><path d="M416.629 245.731l-1.365-7.712-2.44-18.3c-.321-2.412 1.418-6.936 8.388-8.199 5.694-1.03-14.365-8.338-25.961-5.428-11.997 3.01-14.375 13.114-9.673 13.53 1.462.13 3.044 1.162 4.015 1.973 3.037 2.541 4.637 15.466 2.434 19.196s24.602 4.94 24.602 4.94" fill="#e37b64"/><path d="M376.023 286.093c1.549 17.59 12.582 38.037 35.258 39.732s45.987-10.327 49.7-39.458c2.437-19.116-1.775-41.541-3.757-60.023-3.301-17.777 2.413-28.005-1.26-33.191-6.148 10.916-16.751 12.163-16.751 12.163v-.003c-3.469.544-6.75-1.026-9.123-5.771-27.574-55.172-77.961-40.934-65.271 5.56 5.965 21.85 5.036 12.872 8.624 53.625l2.58 27.366" class="B"/><path d="M379.802 278.446l.339 2.537.32 2.415.654 4.907c.558 4.186 6.567 16.818 21.815 19.373s30.242-11.565 35.521-23.573 3.789-19.509 4.884-21.128 5.826 10.526-1.719 28.898c0 0-.568 2.184.306 2.988s10.229-12.571 9.827-38.628-17.622-44.649-45.126-45.899-33.529 21.372-30.412 44.773l22.911 15.358z" class="I"/><path d="M437.71 257.645l-1.505-9.5c-2.599-16.419-18.161-27.725-34.578-25.125s-27.726 18.161-25.127 34.58l3.745 23.653.001-.001s3.024 15.977 18.061 19.708 42.67-18.753 39.403-43.315" class="G"/><path d="M437.71 257.645l-1.505-9.5c-2.599-16.419-18.161-27.725-34.578-25.125 22.643-2.387 36.083 34.625 29.168 47.881s-21.193 17.255-21.193 17.255l3.674 4.585s3.426.083 8.574-.099c9.872-8.217 17.683-21.283 15.86-34.997" class="H"/><g fill="#010518"><path d="M381.844 286.155c2.142 5.022 6.845 12.418 16.463 14.805 11.325 2.81 29.797-9.256 36.828-25.878-34.164 23.365-49.379 13.562-53.291 11.073m23.839-41.954a7.82 7.82 0 0 0-8.812-6.68 7.82 7.82 0 0 0-6.679 8.811l.013-.002c.101.735.786 1.255 1.521 1.153l12.79-1.76c.736-.1 1.255-.786 1.154-1.52z"/></g><path d="M401.968 238.567c-1.477-.891-3.256-1.3-5.097-1.046-1.503.205-2.847.827-3.932 1.732.814 1.507 2.715 2.458 4.822 2.248 2.009-.202 3.627-1.4 4.207-2.934" fill="#d64341"/><path d="M391.553 247.494l12.021-1.653c.008-1.356-.792-2.615-1.727-2.784-1.137-.205-9.804 1.218-10.325 1.987-.251.371-.146 1.442.031 2.45" class="B"/><path d="M377.709 200.003c9.704-13.462 26.679-3.598 38.901 2.741 3.132 1.624 3.078 1.204 1.181-1.787-12.529-19.773-39.278-23.76-40.082-.954" class="I"/><g class="G"><path d="M348.333 264.885c3.084 1.819 3.717 3.243 5.22.87s6.604-1.076 5.535.791c-1.576 2.753-1.32 2.565.206 2.045 3.995-1.362 7.58.565 5.093 3.491 0 0 4.349-1.186 5.298.711s-1.106 3.954-1.106 3.954-.121 1.108.64 1.179c1.042.098 1.613-2.043 3.709-.704 1.178.753-.317 4.745-2.056 5.536s-6.722 1.028-8.146.396-1.819-2.927-1.819-2.927c-3.326.484-4.924-.392-5.219-3.48-.105-1.095-2.924-.723-3.79-2.06-.487-.751.967-4.105-.797-4.029-1.818.079-2.057-2.451-2.768-5.773m167.616-52.26c-.77 4.047-4.587 13.043-5.506 13.996-1.213 1.261 5.184 5.107 7.45-.965 0 0 2.994-4.032 4.158-3.358s3.426 16.26 3.622 18.205 2.849 2.096 3.452 1.547.049-3.049-.112-6.641-.293-5.817.01-6.173c.862-1.006 5.156 12.213 6.686 13.069.962.541 4.006-.762 3.844-2.582s-4.92-12.595-5.092-14.169.756-.708 1.458.149 7.117 11.575 7.998 12.111 3.689-1.085 3.036-2.93-6.733-12.6-6.691-13.503.675-.798 2.669.615 5.944 4.333 7.081 4.052c.739.035 1.711-2.225-.055-4.039s-5.995-6.467-6.537-7.234c-2.852-4.05-4.306-8.51-6.964-11.365-.961-1.032-2.218-1.817-3.629-2.344-8.66-3.239-15.291 3.206-16.878 11.559"/></g><path d="M537.056 204.105l-.6-.694c-.881-.949-2.013-1.687-3.286-2.209l-.343-.135c-5.689-2.127-10.502-.076-13.584 3.949-1.611 2.103-2.749 4.744-3.293 7.61l-.061.296c3.782-8.296 12.543-11.512 21.167-8.817" class="H"/><path d="M189.467 95.781h9.054v11.159h-9.054z" fill="#003f6a"/><path d="M194.137 104.632c1.122 0 2.039-.917 2.039-2.038v-2.62h2.345v6.162h-7.778c-.447 0-.873-.023-1.276-.065v-1.439z" fill="#04263b"/><path d="M166.829 95.781h9.054v11.159h-9.054z" fill="#003f6a"/><path d="M161.156 72.255h21.365 21.364c.904 0 1.521.739 1.373 1.643l-4.006 24.432c-.148.904-1.008 1.644-1.912 1.644h-16.819-16.82c-.904 0-1.764-.74-1.912-1.644l-4.006-24.432c-.148-.904.469-1.643 1.373-1.643" class="F"/><path d="M182.674 73.757h22.737c.888 0 2.161-.727 2.83-1.613l3.278-4.343h-28.845-28.845l3.278 4.343c.669.886 1.943 1.613 2.83 1.613z" class="C"/><path d="M183.605 97.516a11.4 11.4 0 0 0 11.396-11.396 11.4 11.4 0 0 0-11.396-11.395 11.4 11.4 0 0 0-11.396 11.395 11.4 11.4 0 0 0 11.396 11.396m14.112-.195l.253-1.539 3.612-22.025h3.694a1.86 1.86 0 0 1-.017.141l-4.007 24.432c-.147.904-1.007 1.644-1.911 1.644h-.82-2.345-6.709-6.945-6.639-2.345-6.709-1.127c-.68 0-1.334-.42-1.68-1.011h2.807 9.054 3.103 10.481 6.339c.903 0 1.763-.739 1.911-1.642" fill="#004a82"/><path d="M155.145 68.484h55.059a1.62 1.62 0 0 0 1.612-1.613V62.34a1.62 1.62 0 0 0-1.612-1.612h-55.059a1.62 1.62 0 0 0-1.612 1.612v4.531a1.62 1.62 0 0 0 1.612 1.613" class="M"/><path d="M182.559 75.518c6.277 0 11.396 5.12 11.396 11.396a11.42 11.42 0 0 1-11.396 11.395 11.42 11.42 0 0 1-11.396-11.395c0-6.276 5.119-11.396 11.396-11.396" class="B"/><path d="M182.559 81.393c3.041 0 5.521 2.48 5.521 5.521s-2.48 5.521-5.521 5.521-5.521-2.48-5.521-5.521 2.479-5.521 5.521-5.521" class="E"/><g fill="#b92f6d"><path d="M188.068 87.28l.012-.367a5.53 5.53 0 0 0-.304-1.81h-5.218a1.09 1.09 0 0 0-1.088 1.088 1.09 1.09 0 0 0 1.088 1.089z"/><path d="M182.559 89.561a2.65 2.65 0 0 0 2.647-2.647 2.65 2.65 0 0 0-2.647-2.647 2.65 2.65 0 0 0-2.647 2.647 2.65 2.65 0 0 0 2.647 2.647"/></g><g fill="#c9c4d1"><path d="M182.559 94.178c.673 0 1.222.549 1.222 1.221s-.549 1.222-1.222 1.222-1.221-.548-1.221-1.222.549-1.221 1.221-1.221m6.863-.401a1.22 1.22 0 0 0 0-1.728c-.477-.476-1.25-.476-1.727 0s-.477 1.251 0 1.728a1.22 1.22 0 0 0 1.727 0m0-13.728a1.22 1.22 0 0 0-1.727 0c-.477.478-.477 1.251 0 1.729a1.22 1.22 0 1 0 1.727-1.729m-6.863-2.843a1.221 1.221 0 1 0 0 2.443 1.221 1.221 0 1 0 0-2.443m-6.864 2.843c-.477.478-.477 1.251 0 1.729a1.22 1.22 0 0 0 1.727 0c.477-.476.477-1.251 0-1.729a1.22 1.22 0 0 0-1.727 0m-2.843 6.864a1.222 1.222 0 1 0 2.443 0 1.222 1.222 0 1 0-2.443 0m2.843 6.864a1.22 1.22 0 0 0 1.727 0c.477-.477.477-1.251 0-1.728a1.22 1.22 0 0 0-1.727 0c-.477.476-.477 1.251 0 1.728"/></g><path d="M182.559 85.825c-.601 0-1.088.486-1.088 1.088a1.09 1.09 0 0 0 1.088 1.089h8.486a1.09 1.09 0 0 0 1.088-1.089c0-.602-.487-1.088-1.088-1.088z" class="C"/><path d="M196.936 106.136c5.961 0 7.982-3.879 7.982-6.942l.995-1.724h12.67l.855.939v4.205c0 1.568.303 10.76-13.878 10.76h-23.039-23.038c-14.181 0-13.879-9.192-13.879-10.76v-4.205l.855-.939h12.67l.995 1.724c0 3.063 2.021 6.942 7.982 6.942h14.415z" class="M"/><path d="M160.525 99.193h-15.723c-.549 0-.999-.535-.999-1.187v-5.863c0-.653.45-1.187.999-1.187h15.723c.549 0 .998.534.998 1.187v5.863c0 .652-.449 1.187-.998 1.187" class="B"/><path d="M171.499 104.632c1.121 0 2.039-.917 2.039-2.038v-2.62h2.344v6.162h-7.776c-.448 0-.873-.023-1.277-.065v-1.439z" fill="#04263b"/><g class="C"><path d="M209.725 64.794a1.62 1.62 0 0 0-1.613-1.613h-54.579v-.84c0-.281.073-.547.202-.778h57.88c.129.231.202.497.202.778v4.53a1.6 1.6 0 0 1-.298.93l-.001.001-.055.074a1.61 1.61 0 0 1-1.259.608h-.479v-.683zm-27.204 41.342h6.946 1.276 6.193c.563 0 1.09-.034 1.585-.101 4.74-.626 6.396-4.068 6.396-6.841h4.033l-.055.091c0 3.49-2.299 7.904-9.085 7.904H183.4h-16.41c-6.784 0-9.085-4.414-9.085-7.904l-.053-.091h2.272c0 2.833 1.729 6.363 6.705 6.878.404.042.829.064 1.277.064h7.776z"/></g><g fill="#f4f4f7"><path d="M156.254 97.981h-9.658c-.338 0-.614-.276-.614-.614v-3.033c0-.338.276-.615.614-.615h9.658c.337 0 .613.277.613.615v3.033c0 .338-.276.614-.613.614m3.401.399v-4.817c0-.654-.45-1.188-.999-1.188h-14.853v-.23c0-.655.45-1.189.999-1.189h15.723c.549 0 .998.534.998 1.189v5.861c0 .652-.449 1.187-.998 1.187h-.401-.469z"/></g><path d="M220.24 99.193h-15.722c-.55 0-.999-.535-.999-1.187v-5.863c0-.653.449-1.187.999-1.187h15.722c.55 0 .999.534.999 1.187v5.863c0 .652-.449 1.187-.999 1.187" class="B"/><g fill="#f4f4f7"><path d="M215.969 97.981h-9.658c-.337 0-.613-.276-.613-.614v-3.033c0-.338.276-.615.613-.615h9.658c.338 0 .614.277.614.615v3.033c0 .338-.276.614-.614.614m3.401.399v-4.817c0-.654-.449-1.188-.998-1.188h-14.853v-.23c0-.655.449-1.189.999-1.189h15.722c.55 0 .999.534.999 1.189v5.861c0 .652-.449 1.187-.999 1.187h-.4-.47z"/></g><path d="M543.383 140.535l16.998 12.983h-33.995zm-18.652-8.687l13.374 10.216-13.373 10.216-.001-.05zm23.931 10.216l13.374-10.216v20.382l-.002.05zm12.535-11.451l-13.763 10.514-3.434-2.623-.002-.002-.011-.008c-.028-.022-.056-.041-.084-.059l-.005-.003-.017-.009-.005-.003-.017-.01-.003-.002-.019-.009-.002-.002-.019-.008-.003-.002-.021-.01-.002-.001-.02-.008-.001-.001-.021-.009h-.001l-.114-.037-.001-.001c-.039-.01-.077-.017-.116-.021l-.003-.001-.022-.002-.002-.001-.021-.002h-.002l-.046-.003h-.002l-.022-.001h-.002-.022-.002l-.021.001h-.003l-.045.003h-.003l-.02.002-.003.001-.022.002-.001.001c-.04.004-.079.011-.117.021l-.001.001c-.039.01-.076.023-.113.037h-.002l-.021.009-.002.001-.02.008-.002.001-.021.01-.002.002-.018.008-.004.002-.018.009-.004.002-.017.01-.005.003-.016.009-.006.003-.084.059-.01.008-.003.002-3.434 2.623-13.762-10.514c.14-.054.291-.082.449-.082h34.729c.157 0 .309.028.449.082m-35.178 24.899h34.729c.789 0 1.515-.283 2.082-.751a1 1 0 0 0 .405-.314c.061-.081.11-.17.144-.263.408-.545.65-1.223.65-1.954v-20.411c0-.901-.368-1.721-.963-2.315v-.004c-.594-.593-1.414-.962-2.318-.962h-34.729c-.904 0-1.724.369-2.319.962s-.963 1.416-.963 2.319v20.411a3.27 3.27 0 0 0 .654 1.961c.034.09.081.176.141.256.109.143.249.248.405.314.567.468 1.294.751 2.082.751" class="B"/><path d="M108.458 319.85H163.2c3.978 0 7.231-3.253 7.231-7.229v-29.814-2.207-18.978c0-.334-.19-.618-.498-.746a.79.79 0 0 0-.88.175l-12.319 12.32h-48.276c-3.977 0-7.23 3.252-7.23 7.229v32.021c0 3.976 3.253 7.229 7.23 7.229" class="E"/><g class="B"><path d="M119.7 292.629a3.99 3.99 0 0 1 3.98 3.981 3.99 3.99 0 0 1-3.98 3.982 3.99 3.99 0 0 1-3.982-3.982 3.99 3.99 0 0 1 3.982-3.981"/><use xlink:href="#C"/><path d="M151.959 292.629a3.99 3.99 0 0 1 3.982 3.981 3.99 3.99 0 0 1-3.982 3.982 3.99 3.99 0 0 1-3.981-3.982 3.99 3.99 0 0 1 3.981-3.981"/></g><path d="M431.567 177.201H298.809c-1.679 0-3.332-1.375-3.672-3.055l-16.912-83.495c-.136-.676-.04-1.304.233-1.811.544-1.013 2.858-3.543 3.454-3.519l128.085 5.41c1.674.071 3.205 1.411 3.673 3.053l22.691 79.739c.009.031-2.564 2.746-3.347 3.264-.397.264-.889.414-1.447.414" fill="#c9c4d1"/><path d="M434.378 174.433h-132.76c-1.679 0-3.331-1.374-3.672-3.054l-16.911-83.495c-.34-1.68.755-3.054 2.435-3.054h132.759c1.679 0 3.333 1.374 3.671 3.054l16.914 83.495c.339 1.68-.757 3.054-2.436 3.054" class="B"/><path d="M400.384 139.482h-58.453c-1.286 0-2.533-1.052-2.772-2.337l-7.223-38.872c-.239-1.285.617-2.337 1.902-2.337h58.453c1.285 0 2.532 1.052 2.773 2.337l7.223 38.872c.238 1.285-.617 2.337-1.903 2.337" fill="#ebeaef"/><path d="M369.247 120.214h-17.214c-2.12 0-3.433-1.733-2.919-3.853l11.934-49.205c.513-2.119 2.668-3.852 4.788-3.852h17.214c2.119 0 3.432 1.733 2.919 3.852l-11.933 49.205c-.514 2.12-2.669 3.853-4.789 3.853" fill="#c5c1cd"/><g class="B"><path d="M375.193 120.214h-17.214c-2.119 0-3.432-1.733-2.918-3.853l11.934-49.205c.513-2.119 2.667-3.852 4.787-3.852h17.214c2.12 0 3.433 1.733 2.92 3.852l-11.935 49.205c-.515 2.12-2.667 3.853-4.788 3.853"/><path d="M411.119 57.171h-77.282a4.6 4.6 0 0 0-4.583 4.583 4.6 4.6 0 0 0 4.583 4.583h77.282a4.6 4.6 0 0 0 4.582-4.583 4.6 4.6 0 0 0-4.582-4.583"/></g><path d="M349.293 57.171h-28.854a4.6 4.6 0 0 0-4.584 4.583 4.6 4.6 0 0 0 4.584 4.583h28.854a4.6 4.6 0 0 0 4.583-4.583 4.6 4.6 0 0 0-4.583-4.583" fill="#c5c1cd"/><g fill="#ebeaef"><path d="M418.731 167.075h-.712a1.34 1.34 0 0 1-1.252-1.058l-3.27-17.589c-.108-.582.28-1.058.862-1.058h.71a1.34 1.34 0 0 1 1.254 1.058l3.268 17.589c.109.582-.278 1.058-.86 1.058m-5.581 0h-.712a1.34 1.34 0 0 1-1.253-1.058l-3.268-17.589c-.109-.582.278-1.058.86-1.058h.711a1.34 1.34 0 0 1 1.254 1.058l3.267 17.589c.11.582-.278 1.058-.859 1.058m-5.582 0h-.711c-.581 0-1.144-.477-1.253-1.058l-3.269-17.589c-.108-.582.279-1.058.861-1.058h.711a1.34 1.34 0 0 1 1.254 1.058l3.268 17.589c.109.582-.279 1.058-.861 1.058m-5.58 0h-.712c-.582 0-1.145-.477-1.254-1.058l-3.268-17.589c-.108-.582.279-1.058.86-1.058h.712a1.34 1.34 0 0 1 1.253 1.058l3.269 17.589c.108.582-.279 1.058-.86 1.058m-5.582 0h-.711c-.582 0-1.145-.477-1.254-1.058l-3.268-17.589c-.109-.582.278-1.058.859-1.058h.712a1.34 1.34 0 0 1 1.254 1.058l3.269 17.589c.108.582-.28 1.058-.861 1.058m-5.582 0h-.71c-.583 0-1.145-.477-1.255-1.058l-3.268-17.589c-.109-.582.28-1.058.86-1.058h.712a1.34 1.34 0 0 1 1.253 1.058l3.269 17.589c.108.582-.278 1.058-.861 1.058m-5.581 0h-.711c-.581 0-1.145-.477-1.254-1.058l-3.268-17.589c-.109-.582.279-1.058.86-1.058h.711c.581 0 1.146.476 1.255 1.058l3.267 17.589c.108.582-.278 1.058-.86 1.058m-5.581 0h-.712c-.581 0-1.144-.477-1.253-1.058l-3.268-17.589c-.108-.582.279-1.058.86-1.058h.712a1.34 1.34 0 0 1 1.253 1.058l3.268 17.589c.109.582-.278 1.058-.86 1.058m-5.581 0h-.711c-.581 0-1.146-.477-1.254-1.058l-3.269-17.589c-.108-.582.28-1.058.861-1.058h.711a1.34 1.34 0 0 1 1.253 1.058l3.27 17.589c.108.582-.279 1.058-.861 1.058m-5.581 0h-.711a1.34 1.34 0 0 1-1.254-1.058l-3.269-17.589c-.108-.582.279-1.058.861-1.058h.71c.582 0 1.146.476 1.255 1.058l3.268 17.589c.108.582-.278 1.058-.86 1.058m-5.581 0h-.711a1.34 1.34 0 0 1-1.254-1.058l-3.268-17.589c-.109-.582.278-1.058.86-1.058h.71c.582 0 1.146.476 1.255 1.058l3.269 17.589c.107.582-.279 1.058-.861 1.058m-5.582 0h-.711a1.34 1.34 0 0 1-1.253-1.058l-3.269-17.589c-.109-.582.279-1.058.86-1.058h.711a1.34 1.34 0 0 1 1.253 1.058l3.27 17.589c.107.582-.279 1.058-.861 1.058m-5.582 0h-.711a1.34 1.34 0 0 1-1.253-1.058l-3.269-17.589c-.109-.582.279-1.058.86-1.058h.711a1.34 1.34 0 0 1 1.254 1.058l3.269 17.589c.108.582-.279 1.058-.861 1.058m-5.58 0h-.712a1.34 1.34 0 0 1-1.253-1.058l-3.269-17.589c-.108-.582.279-1.058.86-1.058h.711a1.34 1.34 0 0 1 1.254 1.058l3.269 17.589c.108.582-.279 1.058-.86 1.058m-5.582 0h-.712a1.34 1.34 0 0 1-1.253-1.058l-3.269-17.589c-.108-.582.279-1.058.86-1.058h.712a1.34 1.34 0 0 1 1.253 1.058l3.27 17.589c.107.582-.28 1.058-.861 1.058m-5.582 0h-.71a1.34 1.34 0 0 1-1.254-1.058l-3.269-17.589c-.109-.582.278-1.058.86-1.058h.711a1.34 1.34 0 0 1 1.254 1.058l3.269 17.589c.107.582-.279 1.058-.861 1.058m-5.581 0h-.711a1.34 1.34 0 0 1-1.253-1.058l-3.269-17.589c-.109-.582.279-1.058.86-1.058h.711c.581 0 1.146.476 1.255 1.058l3.268 17.589c.108.582-.278 1.058-.861 1.058m-5.582 0h-.711a1.34 1.34 0 0 1-1.253-1.058l-3.268-17.589c-.109-.582.278-1.058.859-1.058h.711a1.34 1.34 0 0 1 1.254 1.058l3.27 17.589c.107.582-.279 1.058-.862 1.058m-5.58 0h-.711c-.581 0-1.146-.477-1.254-1.058l-3.268-17.589c-.109-.582.278-1.058.86-1.058h.71c.582 0 1.147.476 1.254 1.058l3.27 17.589c.107.582-.28 1.058-.861 1.058"/></g><g class="B"><path d="M157.665 362.408c2.543 1.139 4.858 3.104 5.663 5.844.093.32.334.575.648.689a18.18 18.18 0 0 1 8.686 6.655 18.04 18.04 0 0 1 3.275 10.395 18.07 18.07 0 0 1-18.125 18.125c-4.823 0-9.405-1.899-12.815-5.309a18.07 18.07 0 0 1-5.309-12.816c0-4.504 1.652-8.808 4.672-12.149a18.09 18.09 0 0 1 11.624-5.886c.402-.04.744-.307.881-.688.326-.907.548-1.85.672-2.805a15.18 15.18 0 0 0 .128-2.055m7.507 4.747c-.863-2.433-2.638-4.312-4.809-5.668-1.033-.645-2.356-1.292-3.536-1.627a1.05 1.05 0 0 0-1.296.715c-.036.127-.05.262-.035.394.107 1.071.106 2.154-.034 3.222a11.65 11.65 0 0 1-.368 1.763c-4.736.638-9.079 2.937-12.285 6.485-3.369 3.727-5.216 8.528-5.216 13.552 0 5.38 2.117 10.495 5.922 14.298a20.16 20.16 0 0 0 34.518-14.298c0-4.163-1.266-8.191-3.658-11.599a20.28 20.28 0 0 0-9.203-7.237m.27 29.403c-.461 1.077-1.332 2.187-2.805 3.122-.562-.488-2.083-2.052-3.042-5.366.833-.554 3.126-2.309 2.051-4.173l-4.476-7.749c-1.089-1.811-3.726-.715-4.618-.275-2.395-2.493-2.985-4.594-3.125-5.317 1.546-.808 2.944-1.008 4.108-.867 1.655.199 2.827 1.07 3.269 1.836l8.694 15.057c.433.772.593 2.212-.056 3.732"/></g><path d="M540.158 314.573h-54.743c-3.977 0-7.231-3.253-7.231-7.229v-29.815-2.206-18.978c0-.333.191-.618.499-.746a.79.79 0 0 1 .879.175l12.32 12.32h48.276c3.976 0 7.229 3.253 7.229 7.229v32.021c0 3.976-3.253 7.229-7.229 7.229" class="F"/><g class="B"><use xlink:href="#D"/><path d="M512.786 287.353a3.99 3.99 0 0 1 3.981 3.981 3.99 3.99 0 0 1-3.981 3.981 3.99 3.99 0 0 1-3.981-3.981 3.99 3.99 0 0 1 3.981-3.981m-16.13 0a3.99 3.99 0 0 1 3.98 3.981 3.99 3.99 0 0 1-3.98 3.981 3.99 3.99 0 0 1-3.982-3.981 3.99 3.99 0 0 1 3.982-3.981m-202.091 45.988c10.426 0 18.931 8.504 18.931 18.931s-8.505 18.931-18.931 18.931-18.931-8.505-18.931-18.931 8.503-18.931 18.931-18.931"/><path d="M294.565 287.742c10.426 0 18.931 8.504 18.931 18.931s-8.505 18.931-18.931 18.931-18.931-8.504-18.931-18.931 8.503-18.931 18.931-18.931"/></g><g fill="#9eb1d9"><path d="M295.508 312.448c1.079 3.988 3.095 5.54 3.303 5.692a.39.39 0 0 0 .441.031c1.628-.967 2.58-2.159 3.076-3.322.691-1.614.496-3.189.012-4.052l-7.846-13.591c-.497-.858-1.771-1.83-3.531-2.042-1.251-.151-2.754.077-4.399.997-.137.069-.224.216-.211.378 0 .007.206 2.638 3.267 5.718a.39.39 0 0 0 .483.076c.008-.005 2.592-1.496 3.385-.161l4.027 6.975c.751 1.3-1.602 2.732-1.81 2.855-.158.083-.244.266-.197.446m33.663 50.865c-.411 0-.745.334-.745.746s.334.745.745.745h23.902c.411 0 .745-.333.745-.745s-.334-.746-.745-.746z"/><path d="M329.388 358.678c-.412 0-.746.334-.746.746s.334.746.746.746h9.198c.412 0 .746-.334.746-.746s-.334-.746-.746-.746zm-.217-4.962c-.412 0-.746.334-.746.746s.334.746.746.746h9.561c.412 0 .746-.335.746-.746s-.334-.746-.746-.746zm0-4.363c-.412 0-.746.334-.746.746s.334.746.746.746h19.122c.411 0 .745-.334.745-.746s-.334-.746-.745-.746zm-.538-4.638c-.115 0-.208.334-.208.746s.093.745.208.745h8.566c.116 0 .208-.334.208-.745s-.092-.746-.208-.746zm.538-4.978c-.412 0-.746.334-.746.746s.334.746.746.746h30.71c.413 0 .747-.334.747-.746s-.334-.746-.747-.746zm0-22.023c-.411 0-.745.334-.745.747s.334.745.745.745h23.902c.411 0 .745-.334.745-.745s-.334-.747-.745-.747zm.217-4.634c-.412 0-.746.334-.746.746s.334.745.746.745h9.198c.412 0 .746-.334.746-.745s-.334-.746-.746-.746zm-.217-4.962c-.412 0-.746.333-.746.746s.334.746.746.746h9.561c.412 0 .746-.335.746-.746s-.334-.746-.746-.746zm0-4.363c-.412 0-.746.333-.746.745s.334.746.746.746h19.122c.411 0 .745-.334.745-.746s-.334-.745-.745-.745zm0-4.638c-.412 0-.746.334-.746.746s.334.745.746.745h30.71c.413 0 .747-.334.747-.745s-.334-.746-.747-.746zm-.598-4.978c-.082 0-.148.333-.148.746s.066.746.148.746h6.081c.081 0 .148-.335.148-.746s-.067-.746-.148-.746zm-41.3 43.543l-1.637 1.598s-.177-.106-.496-.389a17.19 17.19 0 0 1 2.133-1.209"/><path d="M287.273 337.682l-1.637 1.598s-.177-.105-.496-.389a17.12 17.12 0 0 1 2.133-1.209m14.536 0l1.638 1.598s.177-.106.496-.389c-.679-.452-1.391-.857-2.134-1.209"/><path d="M301.809 337.682l1.638 1.598s.177-.105.496-.389c-.679-.452-1.391-.857-2.134-1.209"/></g><path d="M300.231 340.57l.133-.04h.002c.636-.187 1.828-.585 3.081-1.251.114-.071.279-.195.473-.404-2.687-1.784-5.91-2.826-9.378-2.826a16.89 16.89 0 0 0-9.375 2.825c.194.209.359.334.473.405 1.253.666 2.446 1.064 3.081 1.251h.002l.133.04.009-.009a15.57 15.57 0 0 0 2.329.286l3.31-.476.04.005.039-.005 3.31.476s1.077-.033 2.329-.286z" class="E"/><path d="M297.251 348.132l-.079-1.861v-4.388c0-.279.261-.683.722-1.035-2.391-2.592-4.311-2.592-6.701 0 .46.352.72.756.72 1.035v4.388l-.079 1.861 2.709-.577 2.708.577" class="K"/><path d="M285.921 358.595s-.415-.834-.404-1.602 1.629-1.085 2.182-1.085 15.519-.552 15.519-.552.464.086.464.533-2.566 6.044-2.566 6.044z" class="C"/><g class="K"><path d="M286.378 353.845c1.315 0 2.382-1.066 2.382-2.382s-1.067-2.382-2.382-2.382-2.382 1.067-2.382 2.382 1.067 2.382 2.382 2.382m16.372 0c1.315 0 2.383-1.066 2.383-2.382s-1.068-2.382-2.383-2.382-2.382 1.067-2.382 2.382a2.38 2.38 0 0 0 2.382 2.382"/></g><path d="M294.599 366.478h0c4.488 0 8.159-3.672 8.159-8.16v-7.416c0-4.487-3.671-8.159-8.159-8.159s-8.16 3.672-8.16 8.159v7.416c0 4.488 3.671 8.16 8.16 8.16" class="G"/><g class="C"><path d="M301.823 358.44v-2.56c0-1.004.183-1.301.685-1.668 0 0-.31-.97.252-1.198 0 0 0 .517.438.756v6.212c-.35-.403-.817-.744-1.437-.972.04-.176.061-.366.062-.57m-14.39.429v-1.846c0-.726-.132-.94-.495-1.205 0 0-.092-.616-.495-.781l-.361 4.849c.253-.291.948-.441 1.395-.605a2 2 0 0 1-.044-.412"/><path d="M303.682 355.889c-.498.602-1.132 1.105-1.861 1.522l.002.001-.037.019-.227.124c-1.434.825-1.925 1.897-1.925 1.897-.68-.468-3.467-.396-4.517-.351l-.356.017-.019.001-.027.001h-.001c-4.663.185-9.175-.944-9.198-2.127-4.039 8.493 6.062 16.671 15.047 7.391 4.751-.227 4.331-5.102 3.119-8.495"/></g><path d="M606.878 70.902h-83.574v-7.663h83.574z" fill="#e0dee1"/><path d="M533.6 70.234c.914 0 1.656.742 1.656 1.656s-.742 1.656-1.656 1.656h-59.039a6.45 6.45 0 0 1-4.568-1.9l-.007-.007c-1.171-1.173-1.9-2.791-1.9-4.568s.729-3.397 1.9-4.568a6.44 6.44 0 0 1 4.575-1.908H533.6c.914 0 1.656.742 1.656 1.657s-.742 1.655-1.656 1.655h-2.703a10.48 10.48 0 0 0-1.303 1.131c-.761.791-1.305 1.696-1.217 2.613.101 1.051.776 1.918 1.561 2.583z" class="B"/><path d="M606.878 70.234c.915 0 1.656.742 1.656 1.656s-.741 1.656-1.656 1.656h-74.045c-1.777 0-3.395-.728-4.568-1.9l-.007-.007c-1.172-1.173-1.901-2.791-1.901-4.568a6.45 6.45 0 0 1 1.901-4.568c1.172-1.179 2.792-1.908 4.575-1.908h74.045c.915 0 1.656.742 1.656 1.657s-.741 1.655-1.656 1.655h-74.045c-.869 0-1.659.357-2.233.931s-.93 1.363-.93 2.233.354 1.662.926 2.236a3.17 3.17 0 0 0 2.237.927z" fill="#acadbb"/><path d="M477.153 85.556h70.069v-9.299h-70.069z" class="I"/><path d="M534.732 84.745a2.01 2.01 0 0 0-2.009 2.008 2.01 2.01 0 0 0 2.009 2.009h54.41c2.156 0 4.119-.884 5.542-2.305l.008-.008c1.422-1.423 2.306-3.387 2.306-5.543s-.884-4.12-2.306-5.542c-1.421-1.43-3.388-2.314-5.55-2.314h-54.41a2.01 2.01 0 0 0-2.009 2.009 2.01 2.01 0 0 0 2.009 2.009h3.281c.55.408 1.097.87 1.579 1.371.923.96 1.583 2.06 1.477 3.17-.123 1.277-.941 2.327-1.894 3.136z" class="E"/><path d="M477.153 84.745a2.01 2.01 0 0 0-2.009 2.008 2.01 2.01 0 0 0 2.009 2.009h58.51c2.156 0 4.119-.884 5.542-2.305l.008-.008a7.84 7.84 0 0 0 2.305-5.543c0-2.157-.885-4.12-2.305-5.542a7.81 7.81 0 0 0-5.55-2.314h-58.51a2.01 2.01 0 0 0-2.009 2.009 2.01 2.01 0 0 0 2.009 2.009h58.51a3.83 3.83 0 0 1 2.708 1.129c.697.693 1.13 1.654 1.13 2.709s-.433 2.016-1.126 2.713-1.658 1.126-2.712 1.126z" fill="#ca2871"/><path d="M574.727 101.56h-45.47v-9.515h45.47z" class="I"/><path d="M542.039 100.73a2.06 2.06 0 0 1 2.056 2.056 2.06 2.06 0 0 1-2.056 2.056h-33.522c-2.207 0-4.216-.906-5.672-2.36l-.008-.007c-1.454-1.456-2.359-3.466-2.359-5.673s.905-4.216 2.359-5.671c1.454-1.464 3.467-2.368 5.68-2.368h33.522a2.06 2.06 0 0 1 2.056 2.057 2.06 2.06 0 0 1-2.056 2.056h-3.358c-.562.417-1.123.889-1.616 1.403-.945.981-1.622 2.107-1.511 3.245.126 1.304.963 2.38 1.937 3.206z" class="C"/><path d="M574.727 100.73a2.06 2.06 0 0 1 2.058 2.056 2.06 2.06 0 0 1-2.058 2.056h-33.64a8.02 8.02 0 0 1-5.673-2.36l-.007-.007c-1.455-1.456-2.36-3.466-2.36-5.673a8.01 8.01 0 0 1 2.36-5.671 7.99 7.99 0 0 1 5.68-2.368h33.64a2.06 2.06 0 0 1 2.058 2.057 2.06 2.06 0 0 1-2.058 2.056h-33.64c-1.078 0-2.06.443-2.772 1.155a3.9 3.9 0 0 0-1.155 2.771c0 1.081.441 2.064 1.15 2.777a3.93 3.93 0 0 0 2.777 1.151z" class="M"/><path d="M301.743 60.596H266.15v13.201h29.571z" class="D"/><path d="M229.609 60.596h60.09l6.021 13.201h-60.089z" fill="#b0dde5"/><g class="D"><path d="M708.966 50.95H95.002a4.94 4.94 0 0 0-4.919 4.922 4.94 4.94 0 0 0 4.919 4.921h613.964a4.94 4.94 0 0 0 4.919-4.921 4.94 4.94 0 0 0-4.919-4.922m-659.197 0H71.56a4.94 4.94 0 0 1 4.921 4.922 4.94 4.94 0 0 1-4.921 4.921H49.769c-2.707 0-4.921-2.214-4.921-4.921a4.94 4.94 0 0 1 4.921-4.922"/></g><g class="J"><path d="M619.481 273.921c-.99-.422-1.948-.902-2.872-1.436-.941-.544-1.845-1.143-2.705-1.791a26.62 26.62 0 0 1-2.466-2.106c-.029-.028-.066-.045-.107-.049s-.083.002-.118.022l-6.858 3.961c-.271.147-.563.236-.858.27a2.46 2.46 0 0 1-.902-.067 2.41 2.41 0 0 1-.84-.414c-.243-.185-.455-.42-.616-.7l-4.814-8.335a2.37 2.37 0 0 1-.298-.887c-.04-.316-.018-.634.062-.933a2.4 2.4 0 0 1 .413-.839 2.35 2.35 0 0 1 .7-.615l6.796-3.925c.035-.019.062-.052.077-.088s.021-.081.011-.119l-.158-.635.011-.003-.19-.939-.247-1.603-.144-1.611-.051-1.626.051-1.626.144-1.612.247-1.602.338-1.578c.011-.041.006-.085-.012-.122a.19.19 0 0 0-.084-.092l-7.502-4.329.089-.109-.076-.094a2.41 2.41 0 0 1-.413-.841c-.08-.298-.102-.616-.062-.932a2.33 2.33 0 0 1 .3-.886l5.173-8.962.095.059.16-.133a2.37 2.37 0 0 1 .84-.413 2.4 2.4 0 0 1 .93-.063c.297.038.592.133.863.284l6.828 3.943c.033.017.075.025.114.019s.083-.022.112-.05a26.63 26.63 0 0 1 2.464-2.105 26.9 26.9 0 0 1 2.703-1.789c.93-.537 1.895-1.02 2.891-1.443.989-.421 2.006-.783 3.045-1.08.041-.013.076-.037.099-.068s.042-.075.039-.114v-7.848c0-.32.065-.63.184-.913a2.41 2.41 0 0 1 .521-.778c.222-.219.485-.398.776-.52a2.39 2.39 0 0 1 .914-.182h9.63c.319 0 .628.065.912.182a2.46 2.46 0 0 1 .777.52c.219.22.397.483.521.778a2.39 2.39 0 0 1 .183.913v7.848c0 .047.015.088.038.118a.2.2 0 0 0 .106.066l.031.011c1.045.301 2.056.661 3.025 1.073a26.54 26.54 0 0 1 2.873 1.436 26.69 26.69 0 0 1 2.703 1.791c.863.649 1.687 1.354 2.467 2.107.033.031.074.048.113.052s.085-.007.122-.03l6.796-3.923c.278-.161.579-.26.881-.298a2.41 2.41 0 0 1 .933.063 2.38 2.38 0 0 1 .84.413 2.37 2.37 0 0 1 .604.68c1.786 2.871 3.472 6.014 5.175 8.962l-.092.055a1.96 1.96 0 0 1 .04.227 2.38 2.38 0 0 1-.062.93 2.41 2.41 0 0 1-.413.841c-.186.242-.42.453-.699.614l-6.796 3.924c-.035.021-.061.052-.078.088a.2.2 0 0 0-.01.123l.176.719-.01.002.171.852a27.68 27.68 0 0 1 .246 1.604 26.74 26.74 0 0 1 .145 1.612 26.6 26.6 0 0 1 .051 1.626c0 .528-.017 1.071-.051 1.625s-.082 1.092-.145 1.615-.146 1.055-.246 1.603a26.18 26.18 0 0 1-.339 1.572.2.2 0 0 0 .014.127.19.19 0 0 0 .086.089l6.789 3.918a2.36 2.36 0 0 1 .698.616c.193.255.332.541.411.838a2.42 2.42 0 0 1 .062.931 2.38 2.38 0 0 1-.287.867c-1.617 2.996-3.471 6.018-5.183 8.982l-.097-.058c-.052.047-.104.091-.16.133-.253.193-.54.334-.84.414a2.45 2.45 0 0 1-.932.062c-.305-.039-.606-.136-.882-.294l-.503-.289.002-.005-6.304-3.638a.19.19 0 0 0-.12-.024.2.2 0 0 0-.109.053l-.016.018a26.95 26.95 0 0 1-2.461 2.096c-.862.648-1.761 1.244-2.69 1.781a26.14 26.14 0 0 1-2.891 1.443 26.19 26.19 0 0 1-3.044 1.08c-.042.012-.076.037-.1.068s-.041.074-.038.115v7.847a2.39 2.39 0 0 1-.183.913 2.38 2.38 0 0 1-.524.777 2.39 2.39 0 0 1-.774.52c-.284.118-.593.184-.912.184h-9.63a2.37 2.37 0 0 1-.914-.184 2.48 2.48 0 0 1-.779-.52 2.39 2.39 0 0 1-.702-1.69v-7.847c0-.046-.014-.087-.039-.121s-.061-.054-.105-.064l-.031-.011a26.54 26.54 0 0 1-3.027-1.074m3.385-.298a24.54 24.54 0 0 1-2.829-1.008c-.937-.399-1.845-.853-2.717-1.357-.886-.512-1.741-1.079-2.56-1.697a25.37 25.37 0 0 1-2.338-1.994c-.26-.251-.585-.398-.919-.439-.34-.041-.694.028-1.001.206l-6.833 3.945c-.106.056-.218.09-.331.102a1.02 1.02 0 0 1-.377-.029.98.98 0 0 1-.345-.168c-.097-.074-.183-.17-.249-.284-1.644-2.485-3.292-5.698-4.815-8.335-.065-.112-.104-.233-.12-.354-.015-.127-.005-.26.029-.388a.99.99 0 0 1 .168-.345.96.96 0 0 1 .284-.249c2.029-1.341 4.641-2.683 6.791-3.924a1.6 1.6 0 0 0 .677-.76 1.68 1.68 0 0 0 .101-.335l.14-.046-.157-.634c-.124-.498-.231-.996-.323-1.492-.088-.483-.165-.989-.228-1.514a23.86 23.86 0 0 1-.14-1.527 25.43 25.43 0 0 1-.045-1.544c0-.536.015-1.052.045-1.542.029-.505.077-1.014.14-1.529.063-.526.14-1.031.229-1.514.091-.496.199-.995.322-1.493.091-.369.046-.74-.101-1.059a1.61 1.61 0 0 0-.727-.754l-6.014-3.472.003-.003-.713-.411c-.114-.066-.208-.151-.284-.249a1 1 0 0 1-.168-.345 1.05 1.05 0 0 1-.029-.389c.016-.12.055-.241.12-.353l4.452-7.715.003.002.36-.623a.96.96 0 0 1 .249-.283.98.98 0 0 1 .345-.168c.128-.034.259-.045.386-.029.12.015.24.055.353.12 2.154 1.353 4.584 2.644 6.806 3.927a1.61 1.61 0 0 0 .994.204c.341-.041.665-.191.919-.433l.003-.004a25.43 25.43 0 0 1 2.34-1.995 24.85 24.85 0 0 1 2.558-1.696c.878-.507 1.792-.963 2.736-1.366a25.07 25.07 0 0 1 2.879-1.018c.348-.1.639-.308.842-.578s.324-.615.325-.97l.003-7.848c0-.132.025-.257.073-.368.048-.117.122-.225.214-.317a.95.95 0 0 1 .317-.214c.111-.047.236-.072.369-.072h9.63a.96.96 0 0 1 .368.072c.118.05.226.123.317.214a1.01 1.01 0 0 1 .214.317.96.96 0 0 1 .072.368v7.848c0 .373.129.719.349.996a1.61 1.61 0 0 0 .89.57c.96.278 1.905.616 2.829 1.009a25.01 25.01 0 0 1 2.716 1.357c.887.511 1.741 1.079 2.559 1.696a25.48 25.48 0 0 1 2.34 1.996c.272.262.615.408.967.44a1.61 1.61 0 0 0 1.033-.257l6.717-3.879c.112-.065.233-.104.355-.119a1.01 1.01 0 0 1 .389.029.98.98 0 0 1 .345.168c.097.074.183.17.249.283l4.814 8.336a.97.97 0 0 1 .12.355 1.02 1.02 0 0 1-.028.387c-.034.127-.091.245-.168.346a.93.93 0 0 1-.278.248l-6.796 3.924a1.6 1.6 0 0 0-.677.759c-.036.084-.066.171-.086.259l-.178.036.179.721a25.14 25.14 0 0 1 .322 1.491c.088.483.165.99.23 1.516.062.514.109 1.024.139 1.529.03.49.044 1.006.044 1.542s-.014 1.05-.044 1.542a25.36 25.36 0 0 1-.139 1.526c-.066.533-.142 1.041-.23 1.52-.092.494-.198.991-.322 1.489-.091.371-.047.743.101 1.061s.402.586.723.751l6.732 3.887c.111.062.204.148.28.247s.134.218.168.347.044.26.028.386a.97.97 0 0 1-.12.355c-1.643 2.444-3.289 5.709-4.814 8.336-.066.114-.152.21-.249.284a.98.98 0 0 1-.345.168c-.128.035-.261.046-.388.029a.94.94 0 0 1-.354-.121l-6.801-3.925a1.59 1.59 0 0 0-1.019-.204 1.62 1.62 0 0 0-.92.455 25.13 25.13 0 0 1-2.328 1.984c-.808.609-1.66 1.173-2.55 1.688-.878.507-1.791.964-2.735 1.365-.927.394-1.889.736-2.879 1.019-.349.1-.639.309-.843.578a1.61 1.61 0 0 0-.324.971l-.003 7.847a.96.96 0 0 1-.072.368.99.99 0 0 1-.215.317c-.09.091-.198.164-.316.214a.96.96 0 0 1-.368.072h-9.63c-.133 0-.258-.025-.369-.072-.121-.049-.228-.123-.319-.213a.98.98 0 0 1-.285-.686v-7.847c0-.376-.13-.722-.347-.997-.224-.281-.537-.487-.892-.571m1.697-11.295c-1.699-.704-3.233-1.74-4.52-3.027a13.93 13.93 0 0 1-3.027-4.52c-.679-1.638-1.054-3.438-1.054-5.328s.375-3.691 1.054-5.33c.703-1.698 1.739-3.232 3.027-4.518s2.821-2.324 4.52-3.028c1.639-.678 3.438-1.053 5.329-1.053a13.87 13.87 0 0 1 5.326 1.053 13.92 13.92 0 0 1 4.523 3.028 13.93 13.93 0 0 1 3.026 4.518c.679 1.639 1.054 3.439 1.054 5.33a13.88 13.88 0 0 1-1.054 5.328c-.703 1.7-1.739 3.233-3.026 4.52s-2.821 2.323-4.52 3.027c-1.638.679-3.438 1.053-5.329 1.053s-3.69-.374-5.329-1.053m-5.525-2.021c1.412 1.412 3.102 2.552 4.986 3.332 1.811.751 3.794 1.164 5.868 1.164a15.28 15.28 0 0 0 5.867-1.164c1.884-.78 3.576-1.92 4.988-3.332a15.38 15.38 0 0 0 3.332-4.987 15.32 15.32 0 0 0 1.163-5.867c0-2.075-.414-4.058-1.163-5.869-.78-1.883-1.92-3.574-3.332-4.986a15.36 15.36 0 0 0-4.985-3.33 15.27 15.27 0 0 0-5.87-1.166c-2.074 0-4.057.414-5.868 1.164a15.39 15.39 0 0 0-4.986 3.332 15.36 15.36 0 0 0-3.332 4.986c-.75 1.811-1.164 3.794-1.164 5.869a15.3 15.3 0 0 0 1.164 5.867c.779 1.883 1.92 3.575 3.332 4.987m26.909-76.759c-.902-.261-1.759-.628-2.553-1.087-.815-.473-1.568-1.041-2.241-1.689a.4.4 0 0 0-.477-.058l-3.028 1.748-.015.01c-.174.095-.372.112-.553.063a.75.75 0 0 1-.456-.348l-.013-.021-2.13-3.689c-.102-.178-.123-.383-.073-.571a.75.75 0 0 1 .349-.456l.02-.011 3.003-1.735a.4.4 0 0 0 .189-.441c-.11-.446-.195-.906-.252-1.376-.056-.459-.084-.928-.084-1.404s.028-.945.084-1.404a11.64 11.64 0 0 1 .252-1.376.4.4 0 0 0-.21-.454l-3.002-1.733v-.001a.75.75 0 0 1-.349-.456c-.05-.187-.029-.392.073-.57l2.143-3.711v.001a.75.75 0 0 1 1.024-.276l.024.013 3.005 1.736c.158.09.351.061.476-.058.673-.65 1.426-1.218 2.241-1.689a11.42 11.42 0 0 1 2.57-1.092c.175-.051.291-.211.292-.386v-3.492a.75.75 0 0 1 .749-.749h4.285c.206 0 .392.085.528.221a.75.75 0 0 1 .222.528v3.492a.4.4 0 0 0 .307.391c.903.261 1.759.628 2.553 1.087.817.471 1.568 1.039 2.241 1.689a.4.4 0 0 0 .497.045l3.007-1.736a.75.75 0 0 1 1.025.276l.013.02 2.13 3.691c.103.178.123.383.073.569s-.169.354-.347.456l-3.025 1.746a.4.4 0 0 0-.188.442h-.001a11.81 11.81 0 0 1 .253 1.376c.057.458.084.927.084 1.404s-.027.946-.084 1.404c-.058.47-.142.93-.253 1.376-.045.186.048.373.211.454l3.003 1.733a.75.75 0 0 1 .274 1.026l-.012.022-2.13 3.689a.76.76 0 0 1-.456.348.75.75 0 0 1-.57-.072v-.001l-3.026-1.748c-.162-.094-.362-.061-.487.065a11.49 11.49 0 0 1-2.232 1.682c-.799.462-1.661.831-2.569 1.092a.4.4 0 0 0-.291.386v3.491a.74.74 0 0 1-.222.528c-.136.136-.322.222-.528.222h-4.285a.75.75 0 0 1-.53-.222c-.135-.135-.219-.323-.219-.528v-3.491a.4.4 0 0 0-.309-.391m-1.406-6.459c1.178 1.18 2.806 1.909 4.606 1.909a6.49 6.49 0 0 0 4.607-1.909c1.18-1.178 1.909-2.807 1.909-4.606s-.729-3.428-1.909-4.608a6.49 6.49 0 0 0-9.213 0c-1.18 1.18-1.909 2.808-1.909 4.608s.729 3.428 1.909 4.606m-3.388-12.895z"/></g><g fill="#b1c0e2"><path d="M401.217 415.293l16.998 12.984h-33.994zm-18.652-8.686l13.373 10.216-13.372 10.216-.001-.05zm23.932 10.216l13.373-10.216v20.382l-.002.05zm12.534-11.452l-13.763 10.514-3.434-2.623-.003-.002-.01-.008c-.027-.021-.056-.041-.083-.058l-.006-.004-.017-.009-.004-.003-.017-.009-.004-.002-.019-.01-.003-.001-.018-.01-.003-.001-.02-.009-.003-.001-.02-.009-.001-.001-.022-.009a1.26 1.26 0 0 0-.114-.037h-.001c-.039-.01-.078-.017-.116-.022l-.002-.001-.023-.002-.002-.001-.021-.002h-.003l-.045-.003h-.002-.022-.002-.021-.003-.021-.003l-.045.003h-.002l-.022.002-.002.001-.023.002-.001.001c-.039.005-.077.012-.116.022h-.001a.89.89 0 0 0-.114.037l-.022.009-.002.001-.02.009-.002.001-.021.009-.002.001-.018.01-.003.001-.019.01-.004.002-.017.009-.005.003-.016.009-.006.004c-.028.017-.056.037-.084.058l-.01.008-.003.002-3.434 2.623-13.762-10.514c.14-.053.291-.082.449-.082h34.73c.156 0 .308.029.448.082m-35.178 24.9h34.73c.787 0 1.513-.284 2.081-.752a.99.99 0 0 0 .406-.314c.06-.081.109-.17.142-.262.409-.547.651-1.224.651-1.954v-20.411a3.27 3.27 0 0 0-.962-2.315v-.004c-.594-.594-1.415-.963-2.318-.963h-34.73c-.904 0-1.725.369-2.319.963s-.963 1.415-.963 2.319v20.411a3.27 3.27 0 0 0 .654 1.962c.033.089.08.175.141.254a.98.98 0 0 0 .406.314 3.26 3.26 0 0 0 2.081.752m-310.336-99.25c-.956-1.302-2.068-3.289-2.858-6.151.318-.196 1.233-.789 1.999-1.579 1.004-1.034 1.755-2.389.949-3.785l-6.153-10.658c-1.454-2.45-5.37-.496-6.104-.101-1.46-1.483-2.472-2.894-3.172-4.118-1.174-2.053-1.446-3.526-1.502-3.937 1.084-.597 2.121-.984 3.095-1.204 1.104-.251 2.135-.287 3.066-.175 1.12.135 2.095.49 2.887.948.915.529 1.575 1.185 1.924 1.788l11.979 20.745-.002.001c.343.611.574 1.508.571 2.555-.001.907-.184 1.921-.623 2.952-.37.864-.919 1.74-1.692 2.573-.674.729-1.526 1.43-2.586 2.071-.248-.194-.94-.782-1.778-1.925m-4.398-5.883c.854 3.157 2.085 5.359 3.145 6.802 1.035 1.409 1.938 2.126 2.168 2.297.217.175.483.278.758.298h.003a1.37 1.37 0 0 0 .79-.188c1.236-.733 2.236-1.555 3.037-2.419.906-.978 1.549-2.005 1.982-3.019.525-1.23.743-2.455.746-3.559.002-1.329-.307-2.497-.767-3.315l-.005-.006-11.982-20.759c-.474-.817-1.331-1.684-2.492-2.353-.962-.558-2.14-.987-3.483-1.148-1.087-.132-2.294-.089-3.588.204-1.133.256-2.331.705-3.573 1.397a1.37 1.37 0 0 0-.576.552v.004c-.129.229-.193.496-.17.774v.003c0 .008.154 1.965 1.716 4.699.767 1.342 1.881 2.891 3.5 4.519.211.222.488.362.781.407.299.046.615-.004.894-.166.062-.034 3.303-1.888 4.113-.524l6.147 10.647c.339.589-.133 1.32-.718 1.923-.724.746-1.624 1.293-1.769 1.379-.265.15-.47.378-.586.645-.122.275-.153.591-.071.903z"/></g><g class="J"><path d="M654.217 84.388a1.12 1.12 0 0 1-1.116 1.117 1.12 1.12 0 0 1-1.118-1.117V81.76h-2.628c-.617 0-1.117-.5-1.117-1.117s.5-1.117 1.117-1.117h2.628v-2.628a1.12 1.12 0 0 1 1.118-1.118c.616 0 1.116.5 1.116 1.118v2.628h2.629c.617 0 1.116.5 1.116 1.117s-.499 1.117-1.116 1.117h-2.629zM296.133 237.491a1.12 1.12 0 0 1-1.118 1.117c-.617 0-1.117-.5-1.117-1.117v-2.627h-2.628a1.12 1.12 0 0 1-1.117-1.118c0-.617.5-1.117 1.117-1.117h2.628v-2.628c0-.618.5-1.117 1.117-1.117s1.118.499 1.118 1.117v2.628h2.627a1.12 1.12 0 0 1 1.118 1.117 1.12 1.12 0 0 1-1.118 1.118h-2.627zM172.13 221.042c0 .618-.5 1.117-1.117 1.117s-1.117-.499-1.117-1.117v-2.628h-2.628c-.617 0-1.117-.499-1.117-1.117a1.12 1.12 0 0 1 1.117-1.118h2.628v-2.627a1.12 1.12 0 0 1 1.117-1.118 1.12 1.12 0 0 1 1.117 1.118v2.627h2.628c.618 0 1.117.501 1.117 1.118s-.499 1.117-1.117 1.117h-2.628zm125.267 220.166a1.12 1.12 0 0 1-1.117 1.118 1.12 1.12 0 0 1-1.117-1.118v-2.627h-2.628a1.12 1.12 0 0 1-1.117-1.118c0-.618.5-1.117 1.117-1.117h2.628v-2.629c0-.617.5-1.116 1.117-1.116s1.117.499 1.117 1.116v2.629h2.628c.618 0 1.118.499 1.118 1.117a1.12 1.12 0 0 1-1.118 1.118h-2.628zM124.048 337.849a1.12 1.12 0 0 1-1.118 1.118 1.12 1.12 0 0 1-1.117-1.118v-2.627h-2.627a1.12 1.12 0 0 1-1.118-1.118 1.12 1.12 0 0 1 1.118-1.118h2.627v-2.627a1.12 1.12 0 0 1 1.117-1.118 1.12 1.12 0 0 1 1.118 1.118v2.627h2.628a1.12 1.12 0 0 1 1.118 1.118 1.12 1.12 0 0 1-1.118 1.118h-2.628zm-17.714 110.083c0 .618-.5 1.118-1.117 1.118s-1.117-.5-1.117-1.118v-2.627h-2.628a1.12 1.12 0 0 1-1.117-1.118 1.12 1.12 0 0 1 1.117-1.118h2.628v-2.628c0-.616.5-1.116 1.117-1.116s1.117.5 1.117 1.116v2.628h2.628a1.12 1.12 0 0 1 1.117 1.118 1.12 1.12 0 0 1-1.117 1.118h-2.628zm-59.47-215.105c0 .618-.5 1.117-1.117 1.117s-1.117-.499-1.117-1.117v-2.628h-2.628c-.618 0-1.117-.5-1.117-1.117s.499-1.118 1.117-1.118h2.628v-2.628c0-.616.499-1.117 1.117-1.117a1.12 1.12 0 0 1 1.117 1.117v2.628h2.628a1.12 1.12 0 0 1 1.118 1.118 1.12 1.12 0 0 1-1.118 1.117h-2.628zm540.291 93.634c0 .618-.5 1.118-1.117 1.118s-1.117-.5-1.117-1.118v-2.627h-2.628a1.12 1.12 0 0 1-1.117-1.118 1.12 1.12 0 0 1 1.117-1.118h2.628v-2.628a1.12 1.12 0 0 1 1.117-1.117 1.12 1.12 0 0 1 1.117 1.117v2.628h2.628a1.12 1.12 0 0 1 1.117 1.118 1.12 1.12 0 0 1-1.117 1.118h-2.628zm13.919-145.512a1.12 1.12 0 0 1-1.117 1.118 1.12 1.12 0 0 1-1.117-1.118v-2.628h-2.628c-.617 0-1.117-.5-1.117-1.117a1.12 1.12 0 0 1 1.117-1.118h2.628v-2.627a1.12 1.12 0 0 1 1.117-1.118 1.12 1.12 0 0 1 1.117 1.118v2.627h2.628a1.12 1.12 0 0 1 1.117 1.118 1.12 1.12 0 0 1-1.117 1.117h-2.628z"/></g><g class="B"><path d="M325.184 278.032a1.12 1.12 0 0 1-1.117 1.118 1.12 1.12 0 0 1-1.118-1.118v-2.627h-2.627a1.12 1.12 0 0 1-1.118-1.118c0-.617.5-1.117 1.118-1.117h2.627v-2.628a1.12 1.12 0 0 1 1.118-1.118 1.12 1.12 0 0 1 1.117 1.118v2.628h2.628a1.12 1.12 0 0 1 1.117 1.117 1.12 1.12 0 0 1-1.117 1.118h-2.628zm-80.98 82.246a1.12 1.12 0 0 1-1.117 1.118c-.618 0-1.117-.5-1.117-1.118v-2.627h-2.628a1.12 1.12 0 0 1-1.118-1.118c0-.617.5-1.117 1.118-1.117h2.628v-2.628c0-.617.499-1.117 1.117-1.117a1.12 1.12 0 0 1 1.117 1.117v2.628h2.628a1.12 1.12 0 0 1 1.117 1.117 1.12 1.12 0 0 1-1.117 1.118h-2.628zm146.777-17.714a1.12 1.12 0 0 1-1.117 1.118 1.12 1.12 0 0 1-1.118-1.118v-2.627h-2.627a1.12 1.12 0 0 1-1.118-1.118c0-.617.5-1.117 1.118-1.117h2.627v-2.628c0-.617.5-1.117 1.118-1.117a1.12 1.12 0 0 1 1.117 1.117v2.628h2.628c.617 0 1.117.5 1.117 1.117a1.12 1.12 0 0 1-1.117 1.118h-2.628zm72.123-227.758a1.12 1.12 0 0 1-1.117 1.118c-.618 0-1.117-.501-1.117-1.118v-2.628h-2.628c-.618 0-1.117-.5-1.117-1.117s.499-1.117 1.117-1.117h2.628v-2.628c0-.617.499-1.117 1.117-1.117s1.117.5 1.117 1.117v2.628h2.629c.616 0 1.116.5 1.116 1.117s-.5 1.117-1.116 1.117h-2.629zm153.103 1.265a1.12 1.12 0 0 1-1.116 1.118 1.12 1.12 0 0 1-1.118-1.118v-2.628h-2.627c-.618 0-1.118-.5-1.118-1.117a1.12 1.12 0 0 1 1.118-1.117h2.627v-2.628a1.12 1.12 0 0 1 1.118-1.117 1.12 1.12 0 0 1 1.116 1.117v2.628h2.629a1.12 1.12 0 0 1 1.117 1.117 1.12 1.12 0 0 1-1.117 1.117h-2.629z"/></g></g><path d="M193.157 494.216h-.871l5.065-9.852h1.008l-1.164 7.04 5.875-7.04h.998l-5.065 9.852h-.911l3.019-5.872.929-1.757h-.026l-1.416 1.764-3.655 4.387h-1.034l.743-4.405.354-1.6h-.026l-.797 1.6zm8.372 0H200.5l5.065-9.852h2.199q1.258 0 1.609.321.353.32.297.939-.057.62-.478 1.439-.711 1.383-1.95 2.323-1.24.94-2.737.94h-.978zm2.506-4.875h.693q1.365 0 2.134-.655.769-.653 1.239-1.568.408-.793.309-1.279-.099-.485-1.134-.485h-1.192zm5.464 5.173q-1.482 0-1.72-1.359-.239-1.359 1.05-3.865 1.289-2.508 2.923-3.863 1.634-1.356 3.116-1.356 1.482 0 1.725 1.356.243 1.355-1.047 3.863-1.289 2.507-2.926 3.865-1.639 1.359-3.12 1.359zm.509-.991q1.079 0 2.282-1.159 1.201-1.159 2.186-3.075.982-1.911.975-3.073-.009-1.161-1.089-1.161-1.074 0-2.28 1.161-1.206 1.163-2.189 3.073-.985 1.916-.972 3.075.013 1.159 1.087 1.159zm10.443-4.488q.79.285.862.961.072.677-.364 1.527-.363.705-.972 1.327-.611.623-1.335.993-.726.372-2.041.372h-2.367l5.065-9.852h2.098q1.437 0 1.795.257.359.257.351.759-.008.501-.322 1.111-.35.68-1.009 1.349-.66.669-1.761 1.196zm-2.328-.387h.988q.764 0 1.274-.255.509-.253.979-.727.469-.472.727-.973.284-.553.133-.947-.152-.393-1.073-.393h-1.335zm-2.356 4.583h1.452q1.029 0 1.655-.479.625-.48.961-1.133.271-.527.256-.972-.017-.444-.353-.727-.337-.281-1.36-.281h-.764zm13.234-.837h.947l-.032.063q-.242.471-.793.959-.552.489-1.176.743-.625.255-1.267.255-1.299 0-1.465-1.048-.168-1.047.655-2.647.842-1.637 2.142-2.713 1.299-1.076 2.475-1.076.646 0 .992.349.345.348.271 1.088-.076.74-.754 2.06l-.202.393h-4.038q-.584 1.136-.47 1.872.112.737.983.737.627 0 1.07-.301.443-.303.633-.671zm-1.728-2.464h3.071l.071-.139q.255-.496.303-.961.05-.467-.171-.692-.22-.225-.668-.225-.531 0-1.25.529-.721.531-1.357 1.488zm4.514.788l.506-.984h3.162l-.506.984zm2.868 3.497h-.952l8.303-9.852h1.04l-2.076 9.852h-1.11l.574-2.711h-3.488zm3.106-3.695h2.872l.967-4.576zm13.296-6.551h.947l-5.267 10.245h-.947l.633-1.232q-.643.687-1.055.953-.412.265-.81.371-.398.105-.733.105-.642 0-.955-.441-.313-.441-.162-1.317.15-.876.711-1.968.832-1.619 2.008-2.688 1.177-1.069 2.297-1.069.367 0 .621.129.254.131.373.388.121.256.081.917zm-3.443 6.697q.62-1.207.601-1.981-.021-.773-.774-.773-.693 0-1.503.685-.811.685-1.512 2.049-.819 1.593-.695 2.213.126.619.823.619.454 0 1.019-.343.566-.343 1.099-1.009.534-.667.942-1.46zm7.822-3.543h.947l-3.645 7.091h-.947l.636-1.237q-.589.571-1.021.856-.432.287-.807.432-.376.147-.732.147-.789 0-1.053-.556-.265-.556.599-2.237l2.311-4.495h.948l-2.056 4q-.799 1.555-.635 1.879.166.323.655.323.423 0 .955-.307.533-.308 1.04-.864.507-.555 1.016-1.545zm2.298 7.091q.146-.571.358-.984-1.016.768-1.563.975-.546.207-.948.207-.678 0-.898-.517-.221-.517.246-1.425.528-1.028 1.5-1.587.973-.559 2.857-.965l.571-.12.411-.8q.337-.655.121-.917-.216-.264-.71-.264-.59 0-1.088.324-.498.324-.72.755l-.053.103h-1.029l.049-.096q.241-.469.818-.971.577-.501 1.234-.756.658-.253 1.284-.253.62 0 1.006.241.386.241.41.651.024.409-.557 1.539l-1.416 2.755q-.232.451-.471.949-.238.499-.415 1.159zm1.693-3.58l-.332.089q-1.666.437-2.27.831-.604.393-.885.94-.143.279-.148.52-.004.241.161.375.166.133.395.133.397 0 .931-.289.532-.288.994-.771.462-.483.792-1.124zm1.522 3.58h-.948l3.645-7.091h.948l-.63 1.225q.597-.577 1.024-.857.426-.279.807-.421.381-.143.758-.143.535 0 .821.272.284.273.246.804-.038.529-.638 1.697l-2.32 4.513h-.947l2.059-4.005q.489-.952.591-1.349.102-.396-.077-.621-.179-.225-.526-.225-.417 0-.95.304-.535.305-1.042.851-.507.547-1.028 1.561z" class="B"/></svg>